G04 #@! TF.GenerationSoftware,KiCad,Pcbnew,(2017-08-25 revision dd37d0595)-makepkg*
G04 #@! TF.CreationDate,2018-05-28T16:00:08-04:00*
G04 #@! TF.ProjectId,MainboardRev1,4D61696E626F617264526576312E6B69,rev?*
G04 #@! TF.SameCoordinates,Original*
G04 #@! TF.FileFunction,Soldermask,Top*
G04 #@! TF.FilePolarity,Negative*
%FSLAX46Y46*%
G04 Gerber Fmt 4.6, Leading zero omitted, Abs format (unit mm)*
G04 Created by KiCad (PCBNEW (2017-08-25 revision dd37d0595)-makepkg) date 05/28/18 16:00:08*
%MOMM*%
%LPD*%
G01*
G04 APERTURE LIST*
%ADD10C,0.381000*%
%ADD11R,1.600000X1.150000*%
%ADD12R,1.150000X1.600000*%
%ADD13R,1.300000X1.600000*%
%ADD14R,1.600000X1.300000*%
%ADD15C,3.150000*%
%ADD16C,1.700000*%
%ADD17R,2.000000X2.000000*%
%ADD18C,2.200000*%
%ADD19C,1.500000*%
%ADD20C,2.000000*%
%ADD21R,1.200000X1.300000*%
%ADD22R,1.300000X1.200000*%
%ADD23R,1.400000X0.805000*%
%ADD24R,2.125000X2.635000*%
%ADD25R,1.160000X0.806250*%
%ADD26R,1.900000X1.700000*%
%ADD27R,0.650000X1.100000*%
%ADD28R,1.225000X1.250000*%
%ADD29R,1.100000X0.650000*%
%ADD30R,1.250000X1.225000*%
%ADD31R,3.400000X2.650000*%
%ADD32R,0.550000X0.300000*%
%ADD33R,0.300000X0.550000*%
%ADD34R,1.100000X0.700000*%
%ADD35R,0.700000X1.100000*%
%ADD36R,0.900000X0.750000*%
%ADD37R,1.310000X0.720000*%
%ADD38R,1.600000X2.800000*%
%ADD39R,2.200000X1.100000*%
%ADD40R,2.200000X1.200000*%
%ADD41C,5.400000*%
%ADD42C,1.650000*%
%ADD43C,1.900000*%
%ADD44C,2.100000*%
%ADD45R,1.450000X1.400000*%
%ADD46R,2.600000X1.450000*%
%ADD47C,3.050000*%
%ADD48C,2.400000*%
%ADD49R,3.399740X1.598880*%
G04 APERTURE END LIST*
D10*
G36*
X120506000Y-80372160D02*
X120506000Y-80748000D01*
X119899179Y-80748000D01*
X119899179Y-80372160D01*
X120506000Y-80372160D01*
G37*
X120506000Y-80372160D02*
X120506000Y-80748000D01*
X119899179Y-80748000D01*
X119899179Y-80372160D01*
X120506000Y-80372160D01*
G36*
X119434559Y-80286560D02*
X119808184Y-80286560D01*
X119808184Y-80895820D01*
X119434559Y-80895820D01*
X119434559Y-80286560D01*
G37*
X119434559Y-80286560D02*
X119808184Y-80286560D01*
X119808184Y-80895820D01*
X119434559Y-80895820D01*
X119434559Y-80286560D01*
G36*
X117439760Y-80748000D02*
X117439760Y-80371100D01*
X118056000Y-80371100D01*
X118056000Y-80748000D01*
X117439760Y-80748000D01*
G37*
X117439760Y-80748000D02*
X117439760Y-80371100D01*
X118056000Y-80371100D01*
X118056000Y-80748000D01*
X117439760Y-80748000D01*
G36*
X119804902Y-83839100D02*
X119437892Y-83839100D01*
X119437892Y-83229890D01*
X119804902Y-83229890D01*
X119804902Y-83839100D01*
G37*
X119804902Y-83839100D02*
X119437892Y-83839100D01*
X119437892Y-83229890D01*
X119804902Y-83229890D01*
X119804902Y-83839100D01*
G36*
X120506000Y-80804430D02*
X120506000Y-81178000D01*
X119898614Y-81178000D01*
X119898614Y-80804430D01*
X120506000Y-80804430D01*
G37*
X120506000Y-80804430D02*
X120506000Y-81178000D01*
X119898614Y-81178000D01*
X119898614Y-80804430D01*
X120506000Y-80804430D01*
G36*
X120506000Y-81235697D02*
X120506000Y-81608000D01*
X119898552Y-81608000D01*
X119898552Y-81235697D01*
X120506000Y-81235697D01*
G37*
X120506000Y-81235697D02*
X120506000Y-81608000D01*
X119898552Y-81608000D01*
X119898552Y-81235697D01*
X120506000Y-81235697D01*
G36*
X120506000Y-81666051D02*
X120506000Y-82038000D01*
X119900480Y-82038000D01*
X119900480Y-81666051D01*
X120506000Y-81666051D01*
G37*
X120506000Y-81666051D02*
X120506000Y-82038000D01*
X119900480Y-82038000D01*
X119900480Y-81666051D01*
X120506000Y-81666051D01*
G36*
X120506000Y-82529817D02*
X120506000Y-82898000D01*
X119899636Y-82898000D01*
X119899636Y-82529817D01*
X120506000Y-82529817D01*
G37*
X120506000Y-82529817D02*
X120506000Y-82898000D01*
X119899636Y-82898000D01*
X119899636Y-82529817D01*
X120506000Y-82529817D01*
G36*
X120506000Y-82098102D02*
X120506000Y-82468000D01*
X119899139Y-82468000D01*
X119899139Y-82098102D01*
X120506000Y-82098102D01*
G37*
X120506000Y-82098102D02*
X120506000Y-82468000D01*
X119899139Y-82468000D01*
X119899139Y-82098102D01*
X120506000Y-82098102D01*
G36*
X120506000Y-83391580D02*
X120506000Y-83758000D01*
X119898492Y-83758000D01*
X119898492Y-83391580D01*
X120506000Y-83391580D01*
G37*
X120506000Y-83391580D02*
X120506000Y-83758000D01*
X119898492Y-83758000D01*
X119898492Y-83391580D01*
X120506000Y-83391580D01*
G36*
X120506000Y-82961810D02*
X120506000Y-83328000D01*
X119899939Y-83328000D01*
X119899939Y-82961810D01*
X120506000Y-82961810D01*
G37*
X120506000Y-82961810D02*
X120506000Y-83328000D01*
X119899939Y-83328000D01*
X119899939Y-82961810D01*
X120506000Y-82961810D01*
G36*
X119373123Y-83840880D02*
X119008500Y-83840880D01*
X119008500Y-83230500D01*
X119373123Y-83230500D01*
X119373123Y-83840880D01*
G37*
X119373123Y-83840880D02*
X119008500Y-83840880D01*
X119008500Y-83230500D01*
X119373123Y-83230500D01*
X119373123Y-83840880D01*
G36*
X118943906Y-83840090D02*
X118576885Y-83840090D01*
X118576885Y-83228890D01*
X118943906Y-83228890D01*
X118943906Y-83840090D01*
G37*
X118943906Y-83840090D02*
X118576885Y-83840090D01*
X118576885Y-83228890D01*
X118943906Y-83228890D01*
X118943906Y-83840090D01*
G36*
X118512273Y-83841730D02*
X118146549Y-83841730D01*
X118146549Y-83228550D01*
X118512273Y-83228550D01*
X118512273Y-83841730D01*
G37*
X118512273Y-83841730D02*
X118146549Y-83841730D01*
X118146549Y-83228550D01*
X118512273Y-83228550D01*
X118512273Y-83841730D01*
G36*
X119003229Y-80285230D02*
X119378486Y-80285230D01*
X119378486Y-80895510D01*
X119003229Y-80895510D01*
X119003229Y-80285230D01*
G37*
X119003229Y-80285230D02*
X119378486Y-80285230D01*
X119378486Y-80895510D01*
X119003229Y-80895510D01*
X119003229Y-80285230D01*
G36*
X118574752Y-80286750D02*
X118946654Y-80286750D01*
X118946654Y-80897350D01*
X118574752Y-80897350D01*
X118574752Y-80286750D01*
G37*
X118574752Y-80286750D02*
X118946654Y-80286750D01*
X118946654Y-80897350D01*
X118574752Y-80897350D01*
X118574752Y-80286750D01*
G36*
X118140782Y-80282780D02*
X118517420Y-80282780D01*
X118517420Y-80896580D01*
X118140782Y-80896580D01*
X118140782Y-80282780D01*
G37*
X118140782Y-80282780D02*
X118517420Y-80282780D01*
X118517420Y-80896580D01*
X118140782Y-80896580D01*
X118140782Y-80282780D01*
G36*
X117443330Y-81178000D02*
X117443330Y-80805810D01*
X118056000Y-80805810D01*
X118056000Y-81178000D01*
X117443330Y-81178000D01*
G37*
X117443330Y-81178000D02*
X117443330Y-80805810D01*
X118056000Y-80805810D01*
X118056000Y-81178000D01*
X117443330Y-81178000D01*
G36*
X117444000Y-81608000D02*
X117444000Y-81236919D01*
X118056000Y-81236919D01*
X118056000Y-81608000D01*
X117444000Y-81608000D01*
G37*
X117444000Y-81608000D02*
X117444000Y-81236919D01*
X118056000Y-81236919D01*
X118056000Y-81608000D01*
X117444000Y-81608000D01*
G36*
X117442150Y-82038000D02*
X117442150Y-81666993D01*
X118056000Y-81666993D01*
X118056000Y-82038000D01*
X117442150Y-82038000D01*
G37*
X117442150Y-82038000D02*
X117442150Y-81666993D01*
X118056000Y-81666993D01*
X118056000Y-82038000D01*
X117442150Y-82038000D01*
G36*
X117441730Y-82898000D02*
X117441730Y-82529285D01*
X118056000Y-82529285D01*
X118056000Y-82898000D01*
X117441730Y-82898000D01*
G37*
X117441730Y-82898000D02*
X117441730Y-82529285D01*
X118056000Y-82529285D01*
X118056000Y-82898000D01*
X117441730Y-82898000D01*
G36*
X117442030Y-82468000D02*
X117442030Y-82098078D01*
X118056000Y-82098078D01*
X118056000Y-82468000D01*
X117442030Y-82468000D01*
G37*
X117442030Y-82468000D02*
X117442030Y-82098078D01*
X118056000Y-82098078D01*
X118056000Y-82468000D01*
X117442030Y-82468000D01*
G36*
X117442350Y-83758000D02*
X117442350Y-83391140D01*
X118056000Y-83391140D01*
X118056000Y-83758000D01*
X117442350Y-83758000D01*
G37*
X117442350Y-83758000D02*
X117442350Y-83391140D01*
X118056000Y-83391140D01*
X118056000Y-83758000D01*
X117442350Y-83758000D01*
G36*
X117441790Y-83328000D02*
X117441790Y-82960450D01*
X118056000Y-82960450D01*
X118056000Y-83328000D01*
X117441790Y-83328000D01*
G37*
X117441790Y-83328000D02*
X117441790Y-82960450D01*
X118056000Y-82960450D01*
X118056000Y-83328000D01*
X117441790Y-83328000D01*
D11*
X122230000Y-82880000D03*
X124130000Y-82880000D03*
X122170000Y-79460000D03*
X124070000Y-79460000D03*
X137930000Y-126110000D03*
X136030000Y-126110000D03*
D12*
X121070000Y-67910000D03*
X121070000Y-66010000D03*
X113380000Y-74040000D03*
X113380000Y-75940000D03*
X112970000Y-67390000D03*
X112970000Y-65490000D03*
D11*
X128090000Y-51650000D03*
X129990000Y-51650000D03*
D12*
X105743800Y-133006000D03*
X105743800Y-131106000D03*
D13*
X93390000Y-114270000D03*
X93390000Y-112070000D03*
X88390000Y-114080000D03*
X88390000Y-111880000D03*
X103760000Y-114170000D03*
X103760000Y-111970000D03*
X108770000Y-114170000D03*
X108770000Y-111970000D03*
X98390000Y-114170000D03*
X98390000Y-111970000D03*
X140220000Y-97060000D03*
X140220000Y-94860000D03*
X140170000Y-109330000D03*
X140170000Y-107130000D03*
D14*
X51960000Y-86500000D03*
X54160000Y-86500000D03*
X51986000Y-74168000D03*
X54186000Y-74168000D03*
X51986000Y-79756000D03*
X54186000Y-79756000D03*
X139950000Y-57220000D03*
X137750000Y-57220000D03*
D15*
X61100000Y-67750000D03*
X61100000Y-62250000D03*
X130900000Y-67750000D03*
X130900000Y-62250000D03*
D16*
X129410000Y-85200000D03*
D17*
X131370000Y-82200000D03*
D18*
X131370000Y-79200000D03*
D16*
X129410000Y-73200000D03*
D18*
X131370000Y-76200000D03*
D15*
X130730000Y-98560000D03*
X130730000Y-93060000D03*
X130830000Y-111070000D03*
X130830000Y-105570000D03*
D19*
X64410000Y-123870000D03*
D17*
X60410000Y-129870000D03*
D20*
X60410000Y-126870000D03*
X63410000Y-129870000D03*
X63410000Y-126870000D03*
D19*
X64350000Y-132870000D03*
D21*
X86470000Y-78670000D03*
X88370000Y-78670000D03*
X87420000Y-76670000D03*
D22*
X124130000Y-90570000D03*
X124130000Y-92470000D03*
X126130000Y-91520000D03*
X113180000Y-91060000D03*
X113180000Y-92960000D03*
X115180000Y-92010000D03*
D21*
X118440000Y-93480000D03*
X120340000Y-93480000D03*
X119390000Y-91480000D03*
D23*
X123825000Y-97790000D03*
X123825000Y-98450000D03*
X123825000Y-99110000D03*
X123825000Y-99770000D03*
D24*
X125825000Y-98780000D03*
D25*
X126790000Y-97790000D03*
X126790000Y-98451250D03*
X126790000Y-99112500D03*
X126790000Y-99773750D03*
D22*
X61600000Y-87700000D03*
X61600000Y-85800000D03*
X59600000Y-86750000D03*
X61990000Y-75330000D03*
X61990000Y-73430000D03*
X59990000Y-74380000D03*
X61850000Y-80860000D03*
X61850000Y-78960000D03*
X59850000Y-79910000D03*
X54530000Y-101760000D03*
X54530000Y-99860000D03*
X52530000Y-100810000D03*
D14*
X86410000Y-80800000D03*
X88610000Y-80800000D03*
X91420000Y-58860000D03*
X89220000Y-58860000D03*
D13*
X99360000Y-62850000D03*
X99360000Y-60650000D03*
X101020000Y-60650000D03*
X101020000Y-62850000D03*
D14*
X96825000Y-62275000D03*
X94625000Y-62275000D03*
X94610000Y-64050000D03*
X96810000Y-64050000D03*
X102954000Y-93472000D03*
X100754000Y-93472000D03*
X108375000Y-97600000D03*
X106175000Y-97600000D03*
X106200000Y-99275000D03*
X108400000Y-99275000D03*
D26*
X103050000Y-102450000D03*
X105750000Y-102450000D03*
X99225000Y-102325000D03*
X96525000Y-102325000D03*
D14*
X94975000Y-97575000D03*
X97175000Y-97575000D03*
X97175000Y-99275000D03*
X94975000Y-99275000D03*
D13*
X88390000Y-109700000D03*
X88390000Y-107500000D03*
X93390000Y-107500000D03*
X93390000Y-109700000D03*
X103770000Y-109700000D03*
X103770000Y-107500000D03*
X108770000Y-109700000D03*
X108770000Y-107500000D03*
X98390000Y-107500000D03*
X98390000Y-109700000D03*
X122260000Y-92680000D03*
X122260000Y-90480000D03*
X111440000Y-93170000D03*
X111440000Y-90970000D03*
D14*
X120410000Y-89660000D03*
X118210000Y-89660000D03*
X109650000Y-89240000D03*
X107450000Y-89240000D03*
X118280000Y-95390000D03*
X120480000Y-95390000D03*
X107700000Y-94930000D03*
X109900000Y-94930000D03*
D13*
X136760000Y-94940000D03*
X136760000Y-97140000D03*
X136750000Y-107150000D03*
X136750000Y-109350000D03*
X120580000Y-99800000D03*
X120580000Y-97600000D03*
X122140000Y-110440000D03*
X122140000Y-108240000D03*
X86170000Y-94890000D03*
X86170000Y-92690000D03*
X86080000Y-85480000D03*
X86080000Y-87680000D03*
D14*
X54110000Y-84650000D03*
X51910000Y-84650000D03*
X54160000Y-72460000D03*
X51960000Y-72460000D03*
X54150000Y-77990000D03*
X51950000Y-77990000D03*
D13*
X63930000Y-85570000D03*
X63930000Y-87770000D03*
X64070000Y-73300000D03*
X64070000Y-75500000D03*
X63930000Y-78800000D03*
X63930000Y-81000000D03*
D14*
X73150000Y-81750000D03*
X70950000Y-81750000D03*
X73087200Y-84507200D03*
X70887200Y-84507200D03*
X122180000Y-81110000D03*
X124380000Y-81110000D03*
X138200000Y-124220000D03*
X136000000Y-124220000D03*
D13*
X122910000Y-67950000D03*
X122910000Y-65750000D03*
X111720000Y-74040000D03*
X111720000Y-76240000D03*
X111420000Y-67390000D03*
X111420000Y-65190000D03*
X56490000Y-99710000D03*
X56490000Y-101910000D03*
X56410000Y-95870000D03*
X56410000Y-93670000D03*
D14*
X128090000Y-53120000D03*
X130290000Y-53120000D03*
X135040000Y-57190000D03*
X132840000Y-57190000D03*
D13*
X104042000Y-132990900D03*
X104042000Y-130790900D03*
D14*
X122246000Y-121286400D03*
X124446000Y-121286400D03*
X122246000Y-122899300D03*
X124446000Y-122899300D03*
D27*
X96425000Y-57380000D03*
X95975000Y-57380000D03*
X95525000Y-57380000D03*
X95075000Y-57380000D03*
X94625000Y-57380000D03*
X94175000Y-57380000D03*
X93725000Y-57380000D03*
X93275000Y-57380000D03*
X93275000Y-60280000D03*
X93725000Y-60280000D03*
X94175000Y-60280000D03*
X94625000Y-60280000D03*
X95075000Y-60280000D03*
X95525000Y-60280000D03*
X95975000Y-60280000D03*
X96425000Y-60280000D03*
D28*
X93612500Y-59255000D03*
X94437500Y-59255000D03*
X95262500Y-59255000D03*
X96087500Y-59255000D03*
X93612500Y-58405000D03*
X94437500Y-58405000D03*
X95262500Y-58405000D03*
X96087500Y-58405000D03*
D29*
X103070000Y-99975000D03*
X103070000Y-99525000D03*
X103070000Y-99075000D03*
X103070000Y-98625000D03*
X103070000Y-98175000D03*
X103070000Y-97725000D03*
X103070000Y-97275000D03*
X103070000Y-96825000D03*
X100170000Y-96825000D03*
X100170000Y-97275000D03*
X100170000Y-97725000D03*
X100170000Y-98175000D03*
X100170000Y-98625000D03*
X100170000Y-99075000D03*
X100170000Y-99525000D03*
X100170000Y-99975000D03*
D30*
X101195000Y-97162500D03*
X101195000Y-97987500D03*
X101195000Y-98812500D03*
X101195000Y-99637500D03*
X102045000Y-97162500D03*
X102045000Y-97987500D03*
X102045000Y-98812500D03*
X102045000Y-99637500D03*
D20*
X68460000Y-112350000D03*
X68460000Y-114890000D03*
X68460000Y-117430000D03*
X68460000Y-119970000D03*
X68460000Y-109810000D03*
X68460000Y-107270000D03*
X68460000Y-104730000D03*
X68460000Y-122510000D03*
X68460000Y-125050000D03*
X68460000Y-127590000D03*
X68460000Y-130130000D03*
X71000000Y-117430000D03*
X83700000Y-130130000D03*
X83700000Y-127590000D03*
X83700000Y-125050000D03*
X83700000Y-122510000D03*
X83700000Y-119970000D03*
X83700000Y-117430000D03*
X83700000Y-114890000D03*
X83700000Y-112350000D03*
X68460000Y-102190000D03*
X68460000Y-99650000D03*
X68460000Y-97110000D03*
X68460000Y-94570000D03*
X68460000Y-92030000D03*
X68460000Y-89490000D03*
X68460000Y-86950000D03*
X68460000Y-84410000D03*
X68460000Y-81870000D03*
X68460000Y-79330000D03*
X68460000Y-76790000D03*
X68460000Y-74250000D03*
D17*
X68460000Y-71710000D03*
D20*
X83700000Y-109810000D03*
X83700000Y-107270000D03*
X83700000Y-104730000D03*
X83700000Y-102190000D03*
X83700000Y-99650000D03*
X83700000Y-97110000D03*
X83700000Y-94570000D03*
X83700000Y-92030000D03*
X83700000Y-89490000D03*
X83700000Y-86950000D03*
X83700000Y-84410000D03*
X83700000Y-81870000D03*
X83700000Y-79330000D03*
X83700000Y-76790000D03*
X83700000Y-74250000D03*
X83700000Y-71710000D03*
D31*
X140400000Y-135460000D03*
X140400000Y-138000000D03*
X140400000Y-140540000D03*
X132600000Y-140540000D03*
X132600000Y-138000000D03*
X132600000Y-135460000D03*
D32*
X120201000Y-83573000D03*
D33*
X119621000Y-83538000D03*
X119191000Y-83538000D03*
X118761000Y-83538000D03*
X118331000Y-83538000D03*
D32*
X117751000Y-83573000D03*
X117751000Y-83143000D03*
X117751000Y-82713000D03*
X117751000Y-82283000D03*
X117751000Y-81853000D03*
X117751000Y-81423000D03*
X117751000Y-80993000D03*
X117751000Y-80563000D03*
D33*
X118331000Y-80598000D03*
X118761000Y-80598000D03*
X119191000Y-80598000D03*
X119621000Y-80598000D03*
D32*
X120201000Y-80563000D03*
X120201000Y-80993000D03*
X120201000Y-81423000D03*
X120201000Y-81853000D03*
X120201000Y-82283000D03*
X120201000Y-82713000D03*
X120201000Y-83143000D03*
D34*
X120180000Y-70020000D03*
X120180000Y-70520000D03*
X120180000Y-71020000D03*
X120180000Y-71520000D03*
X120180000Y-72020000D03*
X122980000Y-70020000D03*
X122980000Y-70520000D03*
X122980000Y-71020000D03*
X122980000Y-71520000D03*
X122980000Y-72020000D03*
D35*
X121080000Y-72420000D03*
X121580000Y-72420000D03*
X122080000Y-72420000D03*
X122080000Y-69620000D03*
X121580000Y-69620000D03*
X121080000Y-69620000D03*
D36*
X114918000Y-72408000D03*
X116968000Y-72408000D03*
X116968000Y-73058000D03*
X116968000Y-73708000D03*
X116968000Y-74358000D03*
X114918000Y-73058000D03*
X114918000Y-73708000D03*
X114918000Y-74358000D03*
D37*
X117189000Y-69798000D03*
X117189000Y-69198000D03*
X117189000Y-68598000D03*
X117189000Y-67998000D03*
X117189000Y-67398000D03*
X114679000Y-67398000D03*
X114679000Y-67998000D03*
X114679000Y-68598000D03*
X114679000Y-69198000D03*
X114679000Y-69798000D03*
D38*
X115934000Y-68598000D03*
D39*
X125530000Y-60270000D03*
D40*
X125530000Y-59170000D03*
X125530000Y-58070000D03*
X125530000Y-56970000D03*
X125530000Y-55870000D03*
X125530000Y-54770000D03*
X125530000Y-53670000D03*
X125530000Y-52570000D03*
X125530000Y-51470000D03*
X115930000Y-51470000D03*
X115930000Y-52570000D03*
X115930000Y-53670000D03*
X115930000Y-54770000D03*
X115930000Y-55870000D03*
X115930000Y-56970000D03*
X115930000Y-58070000D03*
X115930000Y-59170000D03*
D39*
X115930000Y-60270000D03*
D41*
X54000000Y-62000000D03*
X138000000Y-62000000D03*
X54000000Y-130000000D03*
X138000000Y-130000000D03*
D42*
X63800000Y-93880000D03*
X63800000Y-97880000D03*
X63800000Y-101880000D03*
X61300000Y-93880000D03*
X61300000Y-97880000D03*
X61300000Y-101880000D03*
D43*
X65550000Y-90380000D03*
X59550000Y-90380000D03*
X65550000Y-105380000D03*
X59550000Y-105380000D03*
D44*
X82110000Y-138870000D03*
X79570000Y-138920000D03*
X129310000Y-126540000D03*
X131850000Y-126490000D03*
D11*
X95980000Y-67390000D03*
X94080000Y-67390000D03*
D45*
X106335000Y-52580000D03*
D46*
X104810000Y-54055000D03*
X104810000Y-51105000D03*
D47*
X98600000Y-125500000D03*
D48*
X101140000Y-122960000D03*
X96060000Y-122960000D03*
X96060000Y-128040000D03*
X101140000Y-128040000D03*
D44*
X129220000Y-116860000D03*
X131760000Y-116810000D03*
X72660000Y-138870000D03*
X70120000Y-138920000D03*
X117280000Y-119410000D03*
X114740000Y-119460000D03*
X117280000Y-109110000D03*
X114740000Y-109160000D03*
D49*
X123634280Y-139045200D03*
X123634280Y-137046220D03*
X123634280Y-135047240D03*
X123634280Y-133045720D03*
X123634280Y-131049280D03*
X123634280Y-129047760D03*
X123634280Y-127048780D03*
X123634280Y-125049800D03*
X108638120Y-125049800D03*
X108638120Y-127048780D03*
X108638120Y-129047760D03*
X108638120Y-131049280D03*
X108638120Y-133045720D03*
X108638120Y-135047240D03*
X108638120Y-137046220D03*
X108638120Y-139045200D03*
D21*
X107780000Y-93100000D03*
X109680000Y-93100000D03*
X108730000Y-91100000D03*
D23*
X124160000Y-108330000D03*
X124160000Y-108990000D03*
X124160000Y-109650000D03*
X124160000Y-110310000D03*
D24*
X126160000Y-109320000D03*
D25*
X127125000Y-108330000D03*
X127125000Y-108991250D03*
X127125000Y-109652500D03*
X127125000Y-110313750D03*
D22*
X54420000Y-95780000D03*
X54420000Y-93880000D03*
X52420000Y-94830000D03*
D14*
X54000000Y-97820000D03*
X56200000Y-97820000D03*
D11*
X91430000Y-57400000D03*
X89530000Y-57400000D03*
X102900000Y-95120000D03*
X101000000Y-95120000D03*
X122150000Y-84560000D03*
X124050000Y-84560000D03*
D44*
X63490000Y-114490000D03*
X60950000Y-114540000D03*
M02*
