M48
;DRILL file {KiCad (2017-08-25 revision dd37d0595)-makepkg} date 05/28/18 16:00:11
;FORMAT={-:-/ absolute / inch / decimal}
FMAT,2
INCH,TZ
T1C0.016
T2C0.020
T3C0.024
T4C0.028
T5C0.041
T6C0.043
T7C0.050
T8C0.055
T9C0.057
T10C0.138
T11C0.043
T12C0.051
T13C0.059
%
G90
G05
M72
T1
X2.0069Y-5.3327
X2.0325Y-4.185
X2.0374Y-4.9232
X2.0433Y-2.0167
X2.0856Y-4.5364
X2.0984Y-2.7965
X2.1309Y-4.0551
X2.1329Y-3.5187
X2.2106Y-5.5384
X2.2209Y-3.6441
X2.2362Y-2.2638
X2.2398Y-4.9409
X2.2657Y-3.2687
X2.3169Y-2.9203
X2.3317Y-4.2362
X2.3583Y-3.9892
X2.3839Y-2.0148
X2.3874Y-3.3535
X2.4606Y-3.2234
X2.4724Y-4.6663
X2.497Y-5.3799
X2.5154Y-3.0594
X2.516Y-2.5622
X2.5177Y-3.522
X2.5358Y-3.9587
X2.5681Y-4.335
X2.5886Y-4.3079
X2.5969Y-4.7098
X2.7096Y-2.0128
X2.7469Y-3.9709
X2.7555Y-3.5535
X2.7563Y-3.4374
X2.7587Y-5.4134
X2.7615Y-2.7081
X2.7857Y-3.4072
X2.789Y-2.6864
X2.8108Y-2.7102
X2.8114Y-3.1209
X2.813Y-5.4154
X2.8331Y-3.6087
X2.8357Y-3.5721
X2.8377Y-3.0741
X2.8461Y-2.5642
X2.8514Y-2.2854
X2.8799Y-3.1752
X2.9163Y-2.8868
X2.9833Y-3.4902
X2.9833Y-3.5345
X2.9861Y-2.5291
X2.9951Y-3.1191
X2.9961Y-3.9512
X2.9983Y-4.0291
X2.999Y-2.0108
X2.9992Y-3.9898
X3.0118Y-2.8878
X3.0213Y-4.7035
X3.0536Y-5.1886
X3.0736Y-5.4909
X3.0807Y-5.2425
X3.0858Y-5.4134
X3.1043Y-2.8878
X3.1382Y-4.6681
X3.1453Y-4.5449
X3.1469Y-4.3728
X3.1472Y-3.2244
X3.1512Y-3.4579
X3.1559Y-3.6811
X3.1593Y-3.9138
X3.1843Y-5.0555
X3.187Y-2.8858
X3.189Y-4.3512
X3.2461Y-3.9949
X3.3081Y-5.3602
X3.3425Y-2.0079
X3.3472Y-3.952
X3.3556Y-5.2427
X3.3661Y-2.4591
X3.372Y-4.8858
X3.3786Y-5.2181
X3.385Y-3.9144
X3.3878Y-3.3268
X3.3937Y-3.5902
X3.452Y-3.8087
X3.4761Y-2.7991
X3.4796Y-4.448
X3.5453Y-5.5
X3.5504Y-2.4024
X3.5504Y-2.4543
X3.5561Y-2.2291
X3.5606Y-4.5823
X3.5661Y-5.0791
X3.5861Y-3.9991
X3.5882Y-2.4287
X3.5933Y-4.3224
X3.6051Y-3.2185
X3.6061Y-3.5991
X3.6299Y-2.753
X3.6309Y-2.878
X3.6378Y-2.7913
X3.6457Y-2.3732
X3.6559Y-3.0787
X3.6663Y-2.0079
X3.6766Y-4.4576
X3.6776Y-3.5906
X3.6831Y-3.9484
X3.7067Y-3.5634
X3.7228Y-2.7134
X3.7228Y-2.765
X3.7583Y-3.2287
X3.7705Y-2.7634
X3.774Y-2.7138
X3.7752Y-2.2083
X3.787Y-2.4102
X3.7982Y-3.0659
X3.8022Y-2.2246
X3.8114Y-2.8504
X3.8209Y-2.4079
X3.8283Y-3.7409
X3.8497Y-3.7971
X3.8547Y-2.5618
X3.8591Y-2.5209
X3.8594Y-3.7358
X3.8626Y-2.478
X3.8736Y-4.4531
X3.8744Y-2.6941
X3.8752Y-2.7732
X3.9232Y-2.7207
X3.9636Y-3.0689
X3.9638Y-2.5303
X3.9669Y-3.6406
X3.9861Y-3.9891
X3.9862Y-2.0039
X4.0346Y-2.8472
X4.061Y-5.1492
X4.0831Y-4.5886
X4.0929Y-2.2524
X4.1256Y-4.2319
X4.1287Y-3.7984
X4.1461Y-3.3991
X4.1594Y-4.9823
X4.163Y-5.1161
X4.1634Y-4.8445
X4.1783Y-3.1378
X4.2028Y-2.9793
X4.2213Y-3.1433
X4.2461Y-3.2791
X4.2618Y-2.0148
X4.2854Y-3.7776
X4.2972Y-3.0291
X4.3062Y-3.1328
X4.328Y-3.3492
X4.3282Y-3.1554
X4.3327Y-2.8061
X4.3386Y-2.1447
X4.3425Y-2.8652
X4.352Y-4.5323
X4.3634Y-3.002
X4.3761Y-4.6991
X4.3791Y-4.3902
X4.4193Y-5.2264
X4.4409Y-4.8465
X4.4433Y-4.0752
X4.4492Y-4.3992
X4.4577Y-2.1703
X4.4813Y-2.0148
X4.5091Y-2.3415
X4.5149Y-2.8035
X4.5398Y-4.3902
X4.6033Y-2.6171
X4.6197Y-3.3701
X4.6565Y-2.0187
X4.689Y-4.998
X4.7126Y-2.6358
X4.7154Y-2.8646
X4.7346Y-3.3732
X4.8504Y-3.2291
X4.8681Y-2.0177
X4.939Y-4.4163
X4.9567Y-5.5512
X4.9894Y-3.9988
X5.0866Y-5.1673
X5.2018Y-2.0118
X5.3004Y-4.0488
X5.3321Y-5.4339
X5.348Y-5.3343
X5.4374Y-5.535
X5.4636Y-2.0541
X5.5181Y-4.3488
X5.5205Y-3.8661
X5.5299Y-4.7764
X5.5315Y-2.6484
X5.5315Y-3.2626
X5.5539Y-2.252
T2
X5.2205Y-5.3331
X5.2205Y-5.4331
X5.2205Y-5.5331
X5.5276Y-5.3331
X5.5276Y-5.4331
X5.5276Y-5.5331
T3
X2.276Y-3.772
X2.5563Y-2.387
X2.587Y-2.8106
X2.587Y-3.3697
X3.4827Y-2.3661
X3.7937Y-3.4598
X3.7996Y-4.0906
X3.8409Y-2.6531
X3.8681Y-2.2587
X3.9063Y-4.1591
X4.0567Y-4.1551
X4.163Y-4.0866
X4.4559Y-3.7043
X4.5409Y-3.5681
X4.5988Y-3.9429
X4.7449Y-3.7961
X4.7634Y-4.8366
X4.8134Y-3.6114
X4.8421Y-4.4933
X4.8933Y-2.6024
X4.9205Y-4.126
X5.1295Y-2.1366
X5.3543Y-4.8472
T4
X2.4134Y-3.6961
X2.4134Y-3.8535
X2.4134Y-4.011
X2.5118Y-3.6961
X2.5118Y-3.8535
X2.5118Y-4.011
T5
X3.1327Y-5.4693
X3.2327Y-5.4673
X5.0909Y-4.9819
X5.1909Y-4.9799
X2.3996Y-4.5094
X2.4996Y-4.5075
X5.0874Y-4.6008
X5.1874Y-4.5988
X4.5173Y-4.7031
X4.6173Y-4.7012
X4.5173Y-4.2976
X4.6173Y-4.2957
X2.7606Y-5.4693
X2.8606Y-5.4673
T6
X2.3783Y-4.9949
X2.3783Y-5.113
X2.4965Y-4.9949
X2.4965Y-5.113
X2.6953Y-2.8232
X2.6953Y-2.9232
X2.6953Y-3.0232
X2.6953Y-3.1232
X2.6953Y-3.2232
X2.6953Y-3.3232
X2.6953Y-3.4232
X2.6953Y-3.5232
X2.6953Y-3.6232
X2.6953Y-3.7232
X2.6953Y-3.8232
X2.6953Y-3.9232
X2.6953Y-4.0232
X2.6953Y-4.1232
X2.6953Y-4.2232
X2.6953Y-4.3232
X2.6953Y-4.4232
X2.6953Y-4.5232
X2.6953Y-4.6232
X2.6953Y-4.7232
X2.6953Y-4.8232
X2.6953Y-4.9232
X2.6953Y-5.0232
X2.6953Y-5.1232
X2.7953Y-4.6232
X3.2953Y-2.8232
X3.2953Y-2.9232
X3.2953Y-3.0232
X3.2953Y-3.1232
X3.2953Y-3.2232
X3.2953Y-3.3232
X3.2953Y-3.4232
X3.2953Y-3.5232
X3.2953Y-3.6232
X3.2953Y-3.7232
X3.2953Y-3.8232
X3.2953Y-3.9232
X3.2953Y-4.0232
X3.2953Y-4.1232
X3.2953Y-4.2232
X3.2953Y-4.3232
X3.2953Y-4.4232
X3.2953Y-4.5232
X3.2953Y-4.6232
X3.2953Y-4.7232
X3.2953Y-4.8232
X3.2953Y-4.9232
X3.2953Y-5.0232
X3.2953Y-5.1232
X5.172Y-3.
X5.172Y-3.1181
X5.172Y-3.2362
T7
X3.7819Y-4.8409
X3.7819Y-5.0409
X3.9819Y-4.8409
X3.9819Y-5.0409
T8
X5.1469Y-3.6638
X5.1469Y-3.8803
X2.4055Y-2.4508
X2.4055Y-2.6673
X5.1535Y-2.4508
X5.1535Y-2.6673
X5.1508Y-4.1563
X5.1508Y-4.3728
T9
X3.8819Y-4.9409
T10
X2.126Y-2.4409
X5.4331Y-5.1181
X5.4331Y-2.4409
X2.126Y-5.1181
T11
X2.5335Y-5.2311
X2.5358Y-4.8768
T12
X5.0949Y-2.8819
X5.0949Y-3.3543
T13
X2.3445Y-3.5583
X2.3445Y-4.1488
X2.5807Y-3.5583
X2.5807Y-4.1488
T0
M30
