G04 #@! TF.GenerationSoftware,KiCad,Pcbnew,(2017-07-31 revision 67ae5935d)-makepkg*
G04 #@! TF.CreationDate,2018-05-29T16:44:51-04:00*
G04 #@! TF.ProjectId,MainboardRev1,4D61696E626F617264526576312E6B69,rev?*
G04 #@! TF.SameCoordinates,Original*
G04 #@! TF.FileFunction,Copper,L2,Inr,Plane*
G04 #@! TF.FilePolarity,Positive*
%FSLAX46Y46*%
G04 Gerber Fmt 4.6, Leading zero omitted, Abs format (unit mm)*
G04 Created by KiCad (PCBNEW (2017-07-31 revision 67ae5935d)-makepkg) date 05/29/18 16:44:51*
%MOMM*%
%LPD*%
G01*
G04 APERTURE LIST*
%ADD10C,2.750000*%
%ADD11R,1.600000X1.600000*%
%ADD12C,1.800000*%
%ADD13C,1.600000*%
%ADD14R,3.000000X2.250000*%
%ADD15C,5.000000*%
%ADD16C,1.250000*%
%ADD17C,1.700000*%
%ADD18C,2.650000*%
%ADD19C,2.000000*%
%ADD20C,0.800000*%
%ADD21C,0.646100*%
%ADD22C,0.250000*%
%ADD23C,0.254000*%
G04 APERTURE END LIST*
D10*
X61100000Y-67750000D03*
X61100000Y-62250000D03*
X130900000Y-67750000D03*
X130900000Y-62250000D03*
D11*
X131370000Y-82200000D03*
D12*
X131370000Y-79200000D03*
X131370000Y-76200000D03*
D10*
X130730000Y-98560000D03*
X130730000Y-93060000D03*
X130830000Y-111070000D03*
X130830000Y-105570000D03*
D11*
X60410000Y-129870000D03*
D13*
X60410000Y-126870000D03*
X63410000Y-129870000D03*
X63410000Y-126870000D03*
X68460000Y-112350000D03*
X68460000Y-114890000D03*
X68460000Y-117430000D03*
X68460000Y-119970000D03*
X68460000Y-109810000D03*
X68460000Y-107270000D03*
X68460000Y-104730000D03*
X68460000Y-122510000D03*
X68460000Y-125050000D03*
X68460000Y-127590000D03*
X68460000Y-130130000D03*
X71000000Y-117430000D03*
X83700000Y-130130000D03*
X83700000Y-127590000D03*
X83700000Y-125050000D03*
X83700000Y-122510000D03*
X83700000Y-119970000D03*
X83700000Y-117430000D03*
X83700000Y-114890000D03*
X83700000Y-112350000D03*
X68460000Y-102190000D03*
X68460000Y-99650000D03*
X68460000Y-97110000D03*
X68460000Y-94570000D03*
X68460000Y-92030000D03*
X68460000Y-89490000D03*
X68460000Y-86950000D03*
X68460000Y-84410000D03*
X68460000Y-81870000D03*
X68460000Y-79330000D03*
X68460000Y-76790000D03*
X68460000Y-74250000D03*
D11*
X68460000Y-71710000D03*
D13*
X83700000Y-109810000D03*
X83700000Y-107270000D03*
X83700000Y-104730000D03*
X83700000Y-102190000D03*
X83700000Y-99650000D03*
X83700000Y-97110000D03*
X83700000Y-94570000D03*
X83700000Y-92030000D03*
X83700000Y-89490000D03*
X83700000Y-86950000D03*
X83700000Y-84410000D03*
X83700000Y-81870000D03*
X83700000Y-79330000D03*
X83700000Y-76790000D03*
X83700000Y-74250000D03*
X83700000Y-71710000D03*
D14*
X140149200Y-135337680D03*
X140149200Y-137877680D03*
X140149200Y-140417680D03*
X132349200Y-140417680D03*
X132349200Y-137877680D03*
X132349200Y-135337680D03*
D15*
X54000000Y-62000000D03*
X138000000Y-62000000D03*
X54000000Y-130000000D03*
X138000000Y-130000000D03*
D16*
X63661400Y-93872680D03*
X63661400Y-97872680D03*
X63661400Y-101872680D03*
X61161400Y-93872680D03*
X61161400Y-97872680D03*
X61161400Y-101872680D03*
D17*
X82110000Y-138870000D03*
X79570000Y-138920000D03*
X129310000Y-126540000D03*
X131850000Y-126490000D03*
D18*
X98600000Y-125500000D03*
D19*
X101140000Y-122960000D03*
X96060000Y-122960000D03*
X96060000Y-128040000D03*
X101140000Y-128040000D03*
D17*
X129220000Y-116860000D03*
X131760000Y-116810000D03*
X72660000Y-138870000D03*
X70120000Y-138920000D03*
X117280000Y-119410000D03*
X114740000Y-119460000D03*
X117280000Y-109110000D03*
X114740000Y-109160000D03*
X63490000Y-114490000D03*
X60950000Y-114540000D03*
D20*
X98250000Y-57370000D03*
D21*
X96634083Y-56542091D03*
X100680000Y-64270000D03*
D20*
X97560000Y-67390000D03*
X115340000Y-90630000D03*
X124980000Y-104800000D03*
X122990000Y-114130000D03*
X113180000Y-94090000D03*
X122260000Y-91730000D03*
D21*
X104790000Y-107490000D03*
X122177600Y-85751800D03*
X117483680Y-85599400D03*
X64138600Y-65299720D03*
X59900000Y-101325000D03*
X54125000Y-103000000D03*
X59225000Y-107600000D03*
X125450000Y-112175000D03*
X90326000Y-56618000D03*
X75848000Y-64238000D03*
X85500000Y-62460000D03*
X88294000Y-71096000D03*
X90580000Y-129008000D03*
X105312000Y-86336000D03*
X107852000Y-83288000D03*
X91596000Y-91416000D03*
X91088000Y-101576000D03*
X101248000Y-101322000D03*
X111154000Y-119356000D03*
X103710000Y-116550000D03*
X90440000Y-116390000D03*
X79710000Y-118570000D03*
X80880000Y-128410000D03*
X140460000Y-121320000D03*
X126730000Y-101570000D03*
X134630000Y-102840000D03*
X140500000Y-82870000D03*
X140500000Y-67270000D03*
X114529998Y-59475000D03*
X113225000Y-55125000D03*
X110200000Y-54475000D03*
X72425000Y-58050000D03*
X56800000Y-57500000D03*
X51900000Y-51225000D03*
X60550000Y-51175000D03*
X68825000Y-51125000D03*
X76175000Y-51075000D03*
X84900000Y-51000000D03*
X93125000Y-51000000D03*
X101250000Y-50900000D03*
X108250000Y-51175000D03*
X113825000Y-51175000D03*
X118275000Y-51275000D03*
X123650000Y-51250000D03*
X132125000Y-51100000D03*
X138775000Y-52175000D03*
X119700000Y-66950000D03*
X116925000Y-66475000D03*
X110300000Y-72775000D03*
X106750000Y-75675000D03*
X96475000Y-77875000D03*
X100675000Y-77950000D03*
X74075000Y-73325000D03*
X76500000Y-73350000D03*
X78850000Y-73350000D03*
X76075000Y-79225000D03*
X80950000Y-73300000D03*
X62500000Y-81875000D03*
X58850000Y-74175000D03*
X57550000Y-83025000D03*
X54175000Y-89375000D03*
X63425000Y-136650000D03*
X56150000Y-140675000D03*
X50975000Y-135450000D03*
X51750000Y-125050000D03*
X51625000Y-106300000D03*
X52975000Y-115225000D03*
X62800000Y-118525000D03*
X90050000Y-139700000D03*
X84025000Y-136150000D03*
X125900000Y-141000000D03*
X129200000Y-131250000D03*
X119100000Y-126950000D03*
X112250000Y-132750000D03*
X112800000Y-123100000D03*
X105750000Y-123050000D03*
X105650000Y-126550000D03*
X95460000Y-82010000D03*
X97783044Y-96446956D03*
X102480000Y-72320000D03*
X98020000Y-64030000D03*
X95770000Y-70190000D03*
X94560000Y-68920000D03*
X94560000Y-70230000D03*
X95860000Y-68930000D03*
X119770000Y-72760000D03*
X104870000Y-96480000D03*
X71450000Y-137550000D03*
X70070000Y-137500000D03*
X78070000Y-139470000D03*
X78380000Y-137500000D03*
X105740000Y-129950000D03*
D20*
X120520000Y-96420000D03*
D21*
X60640000Y-85180000D03*
X63950000Y-89460000D03*
X56410000Y-92560000D03*
X141070000Y-57200000D03*
X140220000Y-98200000D03*
X140160000Y-110460000D03*
X109150000Y-76940000D03*
X87680000Y-96739998D03*
X85980000Y-99425010D03*
D20*
X64930000Y-60630000D03*
D21*
X98410000Y-68430000D03*
X92400010Y-70900000D03*
X96190000Y-61220000D03*
X92200000Y-69925000D03*
X92225000Y-73100000D03*
X95903842Y-56089680D03*
D20*
X96510000Y-103900000D03*
X105740000Y-103800000D03*
D21*
X91570000Y-81750000D03*
D20*
X96360000Y-87880000D03*
X57810000Y-95810000D03*
X65710000Y-85590000D03*
D21*
X113010000Y-111740000D03*
X112860000Y-103510000D03*
D20*
X65710000Y-71390000D03*
D21*
X96810000Y-72400000D03*
X98430000Y-70440000D03*
X93386700Y-113221900D03*
X53300000Y-71030000D03*
X108850000Y-95949998D03*
D20*
X99220000Y-105640000D03*
D21*
X98390500Y-113107600D03*
X71410000Y-79270000D03*
X71393248Y-68839022D03*
X80999998Y-110520000D03*
X86200000Y-91190000D03*
X86050000Y-84500000D03*
X79930000Y-111070000D03*
D20*
X116810000Y-100150000D03*
D21*
X103960000Y-57210000D03*
X72290000Y-65130000D03*
X72078051Y-78081949D03*
X92860000Y-78200000D03*
X98110000Y-62940000D03*
X97050000Y-61160000D03*
X109930000Y-85070002D03*
X79890000Y-115440000D03*
X76740000Y-119470000D03*
X85650000Y-124100000D03*
X111230000Y-111510000D03*
X115310000Y-111510000D03*
X65960000Y-119630000D03*
X65750000Y-109420000D03*
X65230000Y-110110000D03*
X80244990Y-99410000D03*
X100760000Y-92470020D03*
X123200000Y-82020000D03*
X110830000Y-76250000D03*
X79940000Y-81900000D03*
X80040000Y-87830000D03*
X80160000Y-93500000D03*
X73150000Y-80650000D03*
X93550000Y-100290000D03*
X91270000Y-109790000D03*
X56890000Y-125500000D03*
X63890000Y-77710000D03*
D20*
X88460168Y-60100074D03*
X124290000Y-66100000D03*
X130290000Y-54270000D03*
X136000000Y-123120000D03*
X120990000Y-122850000D03*
D21*
X103150000Y-130790000D03*
D20*
X103040000Y-105540000D03*
D21*
X98042520Y-94890720D03*
X94150000Y-90510020D03*
X91140000Y-61690000D03*
X72027824Y-90730593D03*
X110050000Y-71275010D03*
X92600000Y-60280000D03*
X114679000Y-71210000D03*
X135840000Y-135490000D03*
X76100000Y-100360000D03*
X69770000Y-100860000D03*
X64410000Y-100550000D03*
X97231821Y-95021343D03*
X90180000Y-61020000D03*
X90180000Y-62340000D03*
X93410000Y-91200000D03*
X71960000Y-91660000D03*
X135435010Y-138020000D03*
X85817500Y-132538600D03*
X77562500Y-131790388D03*
X75774969Y-88650000D03*
X82450000Y-101470000D03*
X76157279Y-102339744D03*
X138110000Y-140590000D03*
X78250277Y-133160691D03*
X85233300Y-133163620D03*
X107219999Y-79853956D03*
X109939880Y-80158720D03*
X85019998Y-100380000D03*
X76180000Y-101340000D03*
X70143226Y-68786251D03*
X69990000Y-90260000D03*
X70010000Y-87310000D03*
X70840567Y-68235020D03*
X70756074Y-86543270D03*
X75774969Y-89777226D03*
X109370920Y-79569440D03*
X106130000Y-79700000D03*
X110540000Y-115120000D03*
X99650000Y-69104982D03*
X97910000Y-65070000D03*
X88382900Y-112980002D03*
D22*
X97719471Y-94567671D02*
X98042520Y-94890720D01*
X94150000Y-90510020D02*
X94150000Y-90998200D01*
X94150000Y-90998200D02*
X97719471Y-94567671D01*
X64410000Y-100550000D02*
X64720000Y-100860000D01*
X69345736Y-100860000D02*
X69770000Y-100860000D01*
X64720000Y-100860000D02*
X69345736Y-100860000D01*
X97231343Y-95021343D02*
X97231821Y-95021343D01*
X93410000Y-91200000D02*
X97231343Y-95021343D01*
X97910000Y-65070000D02*
X97910000Y-66180000D01*
X99650000Y-67920000D02*
X99650000Y-68680718D01*
X97910000Y-66180000D02*
X99650000Y-67920000D01*
X99650000Y-68680718D02*
X99650000Y-69104982D01*
D23*
G36*
X141544000Y-133293000D02*
X130899576Y-133293000D01*
X130822441Y-133177559D01*
X130674504Y-133078711D01*
X130500000Y-133044000D01*
X127000000Y-133044000D01*
X126825496Y-133078711D01*
X126677559Y-133177559D01*
X126578711Y-133325496D01*
X126544000Y-133500000D01*
X126544000Y-141544000D01*
X50456000Y-141544000D01*
X50456000Y-139113787D01*
X71428787Y-139113787D01*
X71615800Y-139566395D01*
X71961784Y-139912983D01*
X72414065Y-140100786D01*
X72903787Y-140101213D01*
X73356395Y-139914200D01*
X73702983Y-139568216D01*
X73890786Y-139115935D01*
X73890787Y-139113787D01*
X80878787Y-139113787D01*
X81065800Y-139566395D01*
X81411784Y-139912983D01*
X81864065Y-140100786D01*
X82353787Y-140101213D01*
X82806395Y-139914200D01*
X83152983Y-139568216D01*
X83340786Y-139115935D01*
X83341213Y-138626213D01*
X83154200Y-138173605D01*
X82808216Y-137827017D01*
X82355935Y-137639214D01*
X81866213Y-137638787D01*
X81413605Y-137825800D01*
X81067017Y-138171784D01*
X80879214Y-138624065D01*
X80878787Y-139113787D01*
X73890787Y-139113787D01*
X73891213Y-138626213D01*
X73704200Y-138173605D01*
X73358216Y-137827017D01*
X72905935Y-137639214D01*
X72416213Y-137638787D01*
X71963605Y-137825800D01*
X71617017Y-138171784D01*
X71429214Y-138624065D01*
X71428787Y-139113787D01*
X50456000Y-139113787D01*
X50456000Y-133054375D01*
X63418839Y-133054375D01*
X63560277Y-133396680D01*
X63821943Y-133658803D01*
X64164000Y-133800838D01*
X64534375Y-133801161D01*
X64876680Y-133659723D01*
X65138803Y-133398057D01*
X65179469Y-133300121D01*
X77546105Y-133300121D01*
X77653065Y-133558982D01*
X77850944Y-133757207D01*
X78109618Y-133864618D01*
X78389707Y-133864863D01*
X78648568Y-133757903D01*
X78846793Y-133560024D01*
X78953498Y-133303050D01*
X84529128Y-133303050D01*
X84636088Y-133561911D01*
X84833967Y-133760136D01*
X85092641Y-133867547D01*
X85372730Y-133867792D01*
X85631591Y-133760832D01*
X85829816Y-133562953D01*
X85937227Y-133304279D01*
X85937281Y-133242755D01*
X85956930Y-133242772D01*
X86215791Y-133135812D01*
X86414016Y-132937933D01*
X86521427Y-132679259D01*
X86521672Y-132399170D01*
X86414712Y-132140309D01*
X86216833Y-131942084D01*
X85958159Y-131834673D01*
X85678070Y-131834428D01*
X85419209Y-131941388D01*
X85220984Y-132139267D01*
X85113573Y-132397941D01*
X85113519Y-132459465D01*
X85093870Y-132459448D01*
X84835009Y-132566408D01*
X84636784Y-132764287D01*
X84529373Y-133022961D01*
X84529128Y-133303050D01*
X78953498Y-133303050D01*
X78954204Y-133301350D01*
X78954449Y-133021261D01*
X78847489Y-132762400D01*
X78649610Y-132564175D01*
X78390936Y-132456764D01*
X78110847Y-132456519D01*
X77851986Y-132563479D01*
X77653761Y-132761358D01*
X77546350Y-133020032D01*
X77546105Y-133300121D01*
X65179469Y-133300121D01*
X65280838Y-133056000D01*
X65281161Y-132685625D01*
X65139723Y-132343320D01*
X64878057Y-132081197D01*
X64536000Y-131939162D01*
X64165625Y-131938839D01*
X63823320Y-132080277D01*
X63561197Y-132341943D01*
X63419162Y-132684000D01*
X63418839Y-133054375D01*
X50456000Y-133054375D01*
X50456000Y-131929818D01*
X76858328Y-131929818D01*
X76965288Y-132188679D01*
X77163167Y-132386904D01*
X77421841Y-132494315D01*
X77701930Y-132494560D01*
X77960791Y-132387600D01*
X78159016Y-132189721D01*
X78266427Y-131931047D01*
X78266672Y-131650958D01*
X78159712Y-131392097D01*
X77961833Y-131193872D01*
X77703159Y-131086461D01*
X77423070Y-131086216D01*
X77164209Y-131193176D01*
X76965984Y-131391055D01*
X76858573Y-131649729D01*
X76858328Y-131929818D01*
X50456000Y-131929818D01*
X50456000Y-129070000D01*
X59221536Y-129070000D01*
X59221536Y-130670000D01*
X59251106Y-130818659D01*
X59335314Y-130944686D01*
X59461341Y-131028894D01*
X59610000Y-131058464D01*
X61210000Y-131058464D01*
X61358659Y-131028894D01*
X61484686Y-130944686D01*
X61568894Y-130818659D01*
X61598464Y-130670000D01*
X61598464Y-130103885D01*
X62228796Y-130103885D01*
X62408213Y-130538109D01*
X62740144Y-130870619D01*
X63174054Y-131050794D01*
X63643885Y-131051204D01*
X64078109Y-130871787D01*
X64410619Y-130539856D01*
X64483688Y-130363885D01*
X67278796Y-130363885D01*
X67458213Y-130798109D01*
X67790144Y-131130619D01*
X68224054Y-131310794D01*
X68693885Y-131311204D01*
X69128109Y-131131787D01*
X69460619Y-130799856D01*
X69640794Y-130365946D01*
X69640795Y-130363885D01*
X82518796Y-130363885D01*
X82698213Y-130798109D01*
X83030144Y-131130619D01*
X83464054Y-131310794D01*
X83933885Y-131311204D01*
X84368109Y-131131787D01*
X84570818Y-130929430D01*
X102445828Y-130929430D01*
X102552788Y-131188291D01*
X102750667Y-131386516D01*
X103009341Y-131493927D01*
X103289430Y-131494172D01*
X103548291Y-131387212D01*
X103746516Y-131189333D01*
X103853927Y-130930659D01*
X103854172Y-130650570D01*
X103747212Y-130391709D01*
X103549333Y-130193484D01*
X103290659Y-130086073D01*
X103010570Y-130085828D01*
X102751709Y-130192788D01*
X102553484Y-130390667D01*
X102446073Y-130649341D01*
X102445828Y-130929430D01*
X84570818Y-130929430D01*
X84700619Y-130799856D01*
X84880794Y-130365946D01*
X84881204Y-129896115D01*
X84701787Y-129461891D01*
X84369856Y-129129381D01*
X83935946Y-128949206D01*
X83466115Y-128948796D01*
X83031891Y-129128213D01*
X82699381Y-129460144D01*
X82519206Y-129894054D01*
X82518796Y-130363885D01*
X69640795Y-130363885D01*
X69641204Y-129896115D01*
X69461787Y-129461891D01*
X69129856Y-129129381D01*
X68695946Y-128949206D01*
X68226115Y-128948796D01*
X67791891Y-129128213D01*
X67459381Y-129460144D01*
X67279206Y-129894054D01*
X67278796Y-130363885D01*
X64483688Y-130363885D01*
X64590794Y-130105946D01*
X64591204Y-129636115D01*
X64411787Y-129201891D01*
X64079856Y-128869381D01*
X63645946Y-128689206D01*
X63176115Y-128688796D01*
X62741891Y-128868213D01*
X62409381Y-129200144D01*
X62229206Y-129634054D01*
X62228796Y-130103885D01*
X61598464Y-130103885D01*
X61598464Y-129070000D01*
X61568894Y-128921341D01*
X61484686Y-128795314D01*
X61358659Y-128711106D01*
X61210000Y-128681536D01*
X59610000Y-128681536D01*
X59461341Y-128711106D01*
X59335314Y-128795314D01*
X59251106Y-128921341D01*
X59221536Y-129070000D01*
X50456000Y-129070000D01*
X50456000Y-127103885D01*
X59228796Y-127103885D01*
X59408213Y-127538109D01*
X59740144Y-127870619D01*
X60174054Y-128050794D01*
X60643885Y-128051204D01*
X61078109Y-127871787D01*
X61126094Y-127823885D01*
X67278796Y-127823885D01*
X67458213Y-128258109D01*
X67790144Y-128590619D01*
X68224054Y-128770794D01*
X68693885Y-128771204D01*
X69128109Y-128591787D01*
X69460619Y-128259856D01*
X69640794Y-127825946D01*
X69640795Y-127823885D01*
X82518796Y-127823885D01*
X82698213Y-128258109D01*
X83030144Y-128590619D01*
X83464054Y-128770794D01*
X83933885Y-128771204D01*
X84368109Y-128591787D01*
X84700619Y-128259856D01*
X84880794Y-127825946D01*
X84881204Y-127356115D01*
X84701787Y-126921891D01*
X84369856Y-126589381D01*
X83935946Y-126409206D01*
X83466115Y-126408796D01*
X83031891Y-126588213D01*
X82699381Y-126920144D01*
X82519206Y-127354054D01*
X82518796Y-127823885D01*
X69640795Y-127823885D01*
X69641204Y-127356115D01*
X69461787Y-126921891D01*
X69129856Y-126589381D01*
X68695946Y-126409206D01*
X68226115Y-126408796D01*
X67791891Y-126588213D01*
X67459381Y-126920144D01*
X67279206Y-127354054D01*
X67278796Y-127823885D01*
X61126094Y-127823885D01*
X61410619Y-127539856D01*
X61590794Y-127105946D01*
X61591204Y-126636115D01*
X61411787Y-126201891D01*
X61079856Y-125869381D01*
X60645946Y-125689206D01*
X60176115Y-125688796D01*
X59741891Y-125868213D01*
X59409381Y-126200144D01*
X59229206Y-126634054D01*
X59228796Y-127103885D01*
X50456000Y-127103885D01*
X50456000Y-125639430D01*
X56185828Y-125639430D01*
X56292788Y-125898291D01*
X56490667Y-126096516D01*
X56749341Y-126203927D01*
X57029430Y-126204172D01*
X57288291Y-126097212D01*
X57486516Y-125899333D01*
X57593927Y-125640659D01*
X57594172Y-125360570D01*
X57562487Y-125283885D01*
X67278796Y-125283885D01*
X67458213Y-125718109D01*
X67790144Y-126050619D01*
X68224054Y-126230794D01*
X68693885Y-126231204D01*
X69128109Y-126051787D01*
X69460619Y-125719856D01*
X69640794Y-125285946D01*
X69640795Y-125283885D01*
X82518796Y-125283885D01*
X82698213Y-125718109D01*
X83030144Y-126050619D01*
X83464054Y-126230794D01*
X83933885Y-126231204D01*
X84368109Y-126051787D01*
X84582413Y-125837856D01*
X96893704Y-125837856D01*
X97152880Y-126465109D01*
X97632367Y-126945433D01*
X98259167Y-127205704D01*
X98937856Y-127206296D01*
X99565109Y-126947120D01*
X99728727Y-126783787D01*
X128078787Y-126783787D01*
X128265800Y-127236395D01*
X128611784Y-127582983D01*
X129064065Y-127770786D01*
X129553787Y-127771213D01*
X130006395Y-127584200D01*
X130352983Y-127238216D01*
X130540786Y-126785935D01*
X130541213Y-126296213D01*
X130354200Y-125843605D01*
X130008216Y-125497017D01*
X129555935Y-125309214D01*
X129066213Y-125308787D01*
X128613605Y-125495800D01*
X128267017Y-125841784D01*
X128079214Y-126294065D01*
X128078787Y-126783787D01*
X99728727Y-126783787D01*
X100045433Y-126467633D01*
X100305704Y-125840833D01*
X100306296Y-125162144D01*
X100047120Y-124534891D01*
X99567633Y-124054567D01*
X98940833Y-123794296D01*
X98262144Y-123793704D01*
X97634891Y-124052880D01*
X97154567Y-124532367D01*
X96894296Y-125159167D01*
X96893704Y-125837856D01*
X84582413Y-125837856D01*
X84700619Y-125719856D01*
X84880794Y-125285946D01*
X84881204Y-124816115D01*
X84701787Y-124381891D01*
X84559575Y-124239430D01*
X84945828Y-124239430D01*
X85052788Y-124498291D01*
X85250667Y-124696516D01*
X85509341Y-124803927D01*
X85789430Y-124804172D01*
X86048291Y-124697212D01*
X86246516Y-124499333D01*
X86353927Y-124240659D01*
X86354172Y-123960570D01*
X86247212Y-123701709D01*
X86049333Y-123503484D01*
X85790659Y-123396073D01*
X85510570Y-123395828D01*
X85251709Y-123502788D01*
X85053484Y-123700667D01*
X84946073Y-123959341D01*
X84945828Y-124239430D01*
X84559575Y-124239430D01*
X84369856Y-124049381D01*
X83935946Y-123869206D01*
X83466115Y-123868796D01*
X83031891Y-124048213D01*
X82699381Y-124380144D01*
X82519206Y-124814054D01*
X82518796Y-125283885D01*
X69640795Y-125283885D01*
X69641204Y-124816115D01*
X69461787Y-124381891D01*
X69129856Y-124049381D01*
X68695946Y-123869206D01*
X68226115Y-123868796D01*
X67791891Y-124048213D01*
X67459381Y-124380144D01*
X67279206Y-124814054D01*
X67278796Y-125283885D01*
X57562487Y-125283885D01*
X57487212Y-125101709D01*
X57289333Y-124903484D01*
X57030659Y-124796073D01*
X56750570Y-124795828D01*
X56491709Y-124902788D01*
X56293484Y-125100667D01*
X56186073Y-125359341D01*
X56185828Y-125639430D01*
X50456000Y-125639430D01*
X50456000Y-124054375D01*
X63478839Y-124054375D01*
X63620277Y-124396680D01*
X63881943Y-124658803D01*
X64224000Y-124800838D01*
X64594375Y-124801161D01*
X64936680Y-124659723D01*
X65198803Y-124398057D01*
X65340838Y-124056000D01*
X65341161Y-123685625D01*
X65199723Y-123343320D01*
X64938057Y-123081197D01*
X64596000Y-122939162D01*
X64225625Y-122938839D01*
X63883320Y-123080277D01*
X63621197Y-123341943D01*
X63479162Y-123684000D01*
X63478839Y-124054375D01*
X50456000Y-124054375D01*
X50456000Y-122743885D01*
X67278796Y-122743885D01*
X67458213Y-123178109D01*
X67790144Y-123510619D01*
X68224054Y-123690794D01*
X68693885Y-123691204D01*
X69128109Y-123511787D01*
X69460619Y-123179856D01*
X69640794Y-122745946D01*
X69640795Y-122743885D01*
X82518796Y-122743885D01*
X82698213Y-123178109D01*
X83030144Y-123510619D01*
X83464054Y-123690794D01*
X83933885Y-123691204D01*
X84368109Y-123511787D01*
X84700619Y-123179856D01*
X84773362Y-123004669D01*
X120208864Y-123004669D01*
X120327514Y-123291823D01*
X120547021Y-123511714D01*
X120833968Y-123630864D01*
X121144669Y-123631136D01*
X121431823Y-123512486D01*
X121651714Y-123292979D01*
X121659316Y-123274669D01*
X135218864Y-123274669D01*
X135337514Y-123561823D01*
X135557021Y-123781714D01*
X135843968Y-123900864D01*
X136154669Y-123901136D01*
X136441823Y-123782486D01*
X136661714Y-123562979D01*
X136780864Y-123276032D01*
X136781136Y-122965331D01*
X136662486Y-122678177D01*
X136442979Y-122458286D01*
X136156032Y-122339136D01*
X135845331Y-122338864D01*
X135558177Y-122457514D01*
X135338286Y-122677021D01*
X135219136Y-122963968D01*
X135218864Y-123274669D01*
X121659316Y-123274669D01*
X121770864Y-123006032D01*
X121771136Y-122695331D01*
X121652486Y-122408177D01*
X121432979Y-122188286D01*
X121146032Y-122069136D01*
X120835331Y-122068864D01*
X120548177Y-122187514D01*
X120328286Y-122407021D01*
X120209136Y-122693968D01*
X120208864Y-123004669D01*
X84773362Y-123004669D01*
X84880794Y-122745946D01*
X84881204Y-122276115D01*
X84701787Y-121841891D01*
X84369856Y-121509381D01*
X83935946Y-121329206D01*
X83466115Y-121328796D01*
X83031891Y-121508213D01*
X82699381Y-121840144D01*
X82519206Y-122274054D01*
X82518796Y-122743885D01*
X69640795Y-122743885D01*
X69641204Y-122276115D01*
X69461787Y-121841891D01*
X69129856Y-121509381D01*
X68695946Y-121329206D01*
X68226115Y-121328796D01*
X67791891Y-121508213D01*
X67459381Y-121840144D01*
X67279206Y-122274054D01*
X67278796Y-122743885D01*
X50456000Y-122743885D01*
X50456000Y-119769430D01*
X65255828Y-119769430D01*
X65362788Y-120028291D01*
X65560667Y-120226516D01*
X65819341Y-120333927D01*
X66099430Y-120334172D01*
X66358291Y-120227212D01*
X66381658Y-120203885D01*
X67278796Y-120203885D01*
X67458213Y-120638109D01*
X67790144Y-120970619D01*
X68224054Y-121150794D01*
X68693885Y-121151204D01*
X69128109Y-120971787D01*
X69460619Y-120639856D01*
X69640794Y-120205946D01*
X69640795Y-120203885D01*
X82518796Y-120203885D01*
X82698213Y-120638109D01*
X83030144Y-120970619D01*
X83464054Y-121150794D01*
X83933885Y-121151204D01*
X84368109Y-120971787D01*
X84700619Y-120639856D01*
X84880794Y-120205946D01*
X84881204Y-119736115D01*
X84847187Y-119653787D01*
X116048787Y-119653787D01*
X116235800Y-120106395D01*
X116581784Y-120452983D01*
X117034065Y-120640786D01*
X117523787Y-120641213D01*
X117976395Y-120454200D01*
X118322983Y-120108216D01*
X118510786Y-119655935D01*
X118511213Y-119166213D01*
X118324200Y-118713605D01*
X117978216Y-118367017D01*
X117525935Y-118179214D01*
X117036213Y-118178787D01*
X116583605Y-118365800D01*
X116237017Y-118711784D01*
X116049214Y-119164065D01*
X116048787Y-119653787D01*
X84847187Y-119653787D01*
X84701787Y-119301891D01*
X84369856Y-118969381D01*
X83935946Y-118789206D01*
X83466115Y-118788796D01*
X83031891Y-118968213D01*
X82699381Y-119300144D01*
X82519206Y-119734054D01*
X82518796Y-120203885D01*
X69640795Y-120203885D01*
X69641204Y-119736115D01*
X69588860Y-119609430D01*
X76035828Y-119609430D01*
X76142788Y-119868291D01*
X76340667Y-120066516D01*
X76599341Y-120173927D01*
X76879430Y-120174172D01*
X77138291Y-120067212D01*
X77336516Y-119869333D01*
X77443927Y-119610659D01*
X77444172Y-119330570D01*
X77337212Y-119071709D01*
X77139333Y-118873484D01*
X76880659Y-118766073D01*
X76600570Y-118765828D01*
X76341709Y-118872788D01*
X76143484Y-119070667D01*
X76036073Y-119329341D01*
X76035828Y-119609430D01*
X69588860Y-119609430D01*
X69461787Y-119301891D01*
X69129856Y-118969381D01*
X68695946Y-118789206D01*
X68226115Y-118788796D01*
X67791891Y-118968213D01*
X67459381Y-119300144D01*
X67279206Y-119734054D01*
X67278796Y-120203885D01*
X66381658Y-120203885D01*
X66556516Y-120029333D01*
X66663927Y-119770659D01*
X66664172Y-119490570D01*
X66557212Y-119231709D01*
X66359333Y-119033484D01*
X66100659Y-118926073D01*
X65820570Y-118925828D01*
X65561709Y-119032788D01*
X65363484Y-119230667D01*
X65256073Y-119489341D01*
X65255828Y-119769430D01*
X50456000Y-119769430D01*
X50456000Y-117663885D01*
X67278796Y-117663885D01*
X67458213Y-118098109D01*
X67790144Y-118430619D01*
X68224054Y-118610794D01*
X68693885Y-118611204D01*
X69128109Y-118431787D01*
X69460619Y-118099856D01*
X69640794Y-117665946D01*
X69640795Y-117663885D01*
X69818796Y-117663885D01*
X69998213Y-118098109D01*
X70330144Y-118430619D01*
X70764054Y-118610794D01*
X71233885Y-118611204D01*
X71668109Y-118431787D01*
X72000619Y-118099856D01*
X72180794Y-117665946D01*
X72180795Y-117663885D01*
X82518796Y-117663885D01*
X82698213Y-118098109D01*
X83030144Y-118430619D01*
X83464054Y-118610794D01*
X83933885Y-118611204D01*
X84368109Y-118431787D01*
X84700619Y-118099856D01*
X84880794Y-117665946D01*
X84881204Y-117196115D01*
X84843055Y-117103787D01*
X127988787Y-117103787D01*
X128175800Y-117556395D01*
X128521784Y-117902983D01*
X128974065Y-118090786D01*
X129463787Y-118091213D01*
X129916395Y-117904200D01*
X130262983Y-117558216D01*
X130450786Y-117105935D01*
X130451213Y-116616213D01*
X130264200Y-116163605D01*
X129918216Y-115817017D01*
X129465935Y-115629214D01*
X128976213Y-115628787D01*
X128523605Y-115815800D01*
X128177017Y-116161784D01*
X127989214Y-116614065D01*
X127988787Y-117103787D01*
X84843055Y-117103787D01*
X84701787Y-116761891D01*
X84369856Y-116429381D01*
X83935946Y-116249206D01*
X83466115Y-116248796D01*
X83031891Y-116428213D01*
X82699381Y-116760144D01*
X82519206Y-117194054D01*
X82518796Y-117663885D01*
X72180795Y-117663885D01*
X72181204Y-117196115D01*
X72001787Y-116761891D01*
X71669856Y-116429381D01*
X71235946Y-116249206D01*
X70766115Y-116248796D01*
X70331891Y-116428213D01*
X69999381Y-116760144D01*
X69819206Y-117194054D01*
X69818796Y-117663885D01*
X69640795Y-117663885D01*
X69641204Y-117196115D01*
X69461787Y-116761891D01*
X69129856Y-116429381D01*
X68695946Y-116249206D01*
X68226115Y-116248796D01*
X67791891Y-116428213D01*
X67459381Y-116760144D01*
X67279206Y-117194054D01*
X67278796Y-117663885D01*
X50456000Y-117663885D01*
X50456000Y-114733787D01*
X62258787Y-114733787D01*
X62445800Y-115186395D01*
X62791784Y-115532983D01*
X63244065Y-115720786D01*
X63733787Y-115721213D01*
X64186395Y-115534200D01*
X64532983Y-115188216D01*
X64559695Y-115123885D01*
X67278796Y-115123885D01*
X67458213Y-115558109D01*
X67790144Y-115890619D01*
X68224054Y-116070794D01*
X68693885Y-116071204D01*
X69128109Y-115891787D01*
X69441010Y-115579430D01*
X79185828Y-115579430D01*
X79292788Y-115838291D01*
X79490667Y-116036516D01*
X79749341Y-116143927D01*
X80029430Y-116144172D01*
X80288291Y-116037212D01*
X80486516Y-115839333D01*
X80593927Y-115580659D01*
X80594172Y-115300570D01*
X80521167Y-115123885D01*
X82518796Y-115123885D01*
X82698213Y-115558109D01*
X83030144Y-115890619D01*
X83464054Y-116070794D01*
X83933885Y-116071204D01*
X84368109Y-115891787D01*
X84700619Y-115559856D01*
X84825366Y-115259430D01*
X109835828Y-115259430D01*
X109942788Y-115518291D01*
X110140667Y-115716516D01*
X110399341Y-115823927D01*
X110679430Y-115824172D01*
X110938291Y-115717212D01*
X111136516Y-115519333D01*
X111243927Y-115260659D01*
X111244172Y-114980570D01*
X111137212Y-114721709D01*
X110939333Y-114523484D01*
X110680659Y-114416073D01*
X110400570Y-114415828D01*
X110141709Y-114522788D01*
X109943484Y-114720667D01*
X109836073Y-114979341D01*
X109835828Y-115259430D01*
X84825366Y-115259430D01*
X84880794Y-115125946D01*
X84881204Y-114656115D01*
X84727727Y-114284669D01*
X122208864Y-114284669D01*
X122327514Y-114571823D01*
X122547021Y-114791714D01*
X122833968Y-114910864D01*
X123144669Y-114911136D01*
X123431823Y-114792486D01*
X123651714Y-114572979D01*
X123770864Y-114286032D01*
X123771136Y-113975331D01*
X123652486Y-113688177D01*
X123432979Y-113468286D01*
X123146032Y-113349136D01*
X122835331Y-113348864D01*
X122548177Y-113467514D01*
X122328286Y-113687021D01*
X122209136Y-113973968D01*
X122208864Y-114284669D01*
X84727727Y-114284669D01*
X84701787Y-114221891D01*
X84369856Y-113889381D01*
X83935946Y-113709206D01*
X83466115Y-113708796D01*
X83031891Y-113888213D01*
X82699381Y-114220144D01*
X82519206Y-114654054D01*
X82518796Y-115123885D01*
X80521167Y-115123885D01*
X80487212Y-115041709D01*
X80289333Y-114843484D01*
X80030659Y-114736073D01*
X79750570Y-114735828D01*
X79491709Y-114842788D01*
X79293484Y-115040667D01*
X79186073Y-115299341D01*
X79185828Y-115579430D01*
X69441010Y-115579430D01*
X69460619Y-115559856D01*
X69640794Y-115125946D01*
X69641204Y-114656115D01*
X69461787Y-114221891D01*
X69129856Y-113889381D01*
X68695946Y-113709206D01*
X68226115Y-113708796D01*
X67791891Y-113888213D01*
X67459381Y-114220144D01*
X67279206Y-114654054D01*
X67278796Y-115123885D01*
X64559695Y-115123885D01*
X64720786Y-114735935D01*
X64721213Y-114246213D01*
X64534200Y-113793605D01*
X64188216Y-113447017D01*
X63735935Y-113259214D01*
X63246213Y-113258787D01*
X62793605Y-113445800D01*
X62447017Y-113791784D01*
X62259214Y-114244065D01*
X62258787Y-114733787D01*
X50456000Y-114733787D01*
X50456000Y-112583885D01*
X67278796Y-112583885D01*
X67458213Y-113018109D01*
X67790144Y-113350619D01*
X68224054Y-113530794D01*
X68693885Y-113531204D01*
X69128109Y-113351787D01*
X69460619Y-113019856D01*
X69640794Y-112585946D01*
X69640795Y-112583885D01*
X82518796Y-112583885D01*
X82698213Y-113018109D01*
X83030144Y-113350619D01*
X83464054Y-113530794D01*
X83933885Y-113531204D01*
X84368109Y-113351787D01*
X84600869Y-113119432D01*
X87678728Y-113119432D01*
X87785688Y-113378293D01*
X87983567Y-113576518D01*
X88242241Y-113683929D01*
X88522330Y-113684174D01*
X88781191Y-113577214D01*
X88979416Y-113379335D01*
X88986892Y-113361330D01*
X92682528Y-113361330D01*
X92789488Y-113620191D01*
X92987367Y-113818416D01*
X93246041Y-113925827D01*
X93526130Y-113926072D01*
X93784991Y-113819112D01*
X93983216Y-113621233D01*
X94090627Y-113362559D01*
X94090728Y-113247030D01*
X97686328Y-113247030D01*
X97793288Y-113505891D01*
X97991167Y-113704116D01*
X98249841Y-113811527D01*
X98529930Y-113811772D01*
X98788791Y-113704812D01*
X98987016Y-113506933D01*
X99094427Y-113248259D01*
X99094672Y-112968170D01*
X98987712Y-112709309D01*
X98789833Y-112511084D01*
X98531159Y-112403673D01*
X98251070Y-112403428D01*
X97992209Y-112510388D01*
X97793984Y-112708267D01*
X97686573Y-112966941D01*
X97686328Y-113247030D01*
X94090728Y-113247030D01*
X94090872Y-113082470D01*
X93983912Y-112823609D01*
X93786033Y-112625384D01*
X93527359Y-112517973D01*
X93247270Y-112517728D01*
X92988409Y-112624688D01*
X92790184Y-112822567D01*
X92682773Y-113081241D01*
X92682528Y-113361330D01*
X88986892Y-113361330D01*
X89086827Y-113120661D01*
X89087072Y-112840572D01*
X88980112Y-112581711D01*
X88782233Y-112383486D01*
X88523559Y-112276075D01*
X88243470Y-112275830D01*
X87984609Y-112382790D01*
X87786384Y-112580669D01*
X87678973Y-112839343D01*
X87678728Y-113119432D01*
X84600869Y-113119432D01*
X84700619Y-113019856D01*
X84880794Y-112585946D01*
X84881204Y-112116115D01*
X84701787Y-111681891D01*
X84669383Y-111649430D01*
X110525828Y-111649430D01*
X110632788Y-111908291D01*
X110830667Y-112106516D01*
X111089341Y-112213927D01*
X111369430Y-112214172D01*
X111628291Y-112107212D01*
X111826516Y-111909333D01*
X111838932Y-111879430D01*
X112305828Y-111879430D01*
X112412788Y-112138291D01*
X112610667Y-112336516D01*
X112869341Y-112443927D01*
X113149430Y-112444172D01*
X113408291Y-112337212D01*
X113606516Y-112139333D01*
X113713927Y-111880659D01*
X113714129Y-111649430D01*
X114605828Y-111649430D01*
X114712788Y-111908291D01*
X114910667Y-112106516D01*
X115169341Y-112213927D01*
X115449430Y-112214172D01*
X115708291Y-112107212D01*
X115906516Y-111909333D01*
X116013927Y-111650659D01*
X116014130Y-111417758D01*
X129073696Y-111417758D01*
X129340468Y-112063395D01*
X129834007Y-112557796D01*
X130479178Y-112825694D01*
X131177758Y-112826304D01*
X131823395Y-112559532D01*
X132317796Y-112065993D01*
X132585694Y-111420822D01*
X132586304Y-110722242D01*
X132319532Y-110076605D01*
X131825993Y-109582204D01*
X131180822Y-109314306D01*
X130482242Y-109313696D01*
X129836605Y-109580468D01*
X129342204Y-110074007D01*
X129074306Y-110719178D01*
X129073696Y-111417758D01*
X116014130Y-111417758D01*
X116014172Y-111370570D01*
X115907212Y-111111709D01*
X115709333Y-110913484D01*
X115450659Y-110806073D01*
X115170570Y-110805828D01*
X114911709Y-110912788D01*
X114713484Y-111110667D01*
X114606073Y-111369341D01*
X114605828Y-111649430D01*
X113714129Y-111649430D01*
X113714172Y-111600570D01*
X113607212Y-111341709D01*
X113409333Y-111143484D01*
X113150659Y-111036073D01*
X112870570Y-111035828D01*
X112611709Y-111142788D01*
X112413484Y-111340667D01*
X112306073Y-111599341D01*
X112305828Y-111879430D01*
X111838932Y-111879430D01*
X111933927Y-111650659D01*
X111934172Y-111370570D01*
X111827212Y-111111709D01*
X111629333Y-110913484D01*
X111370659Y-110806073D01*
X111090570Y-110805828D01*
X110831709Y-110912788D01*
X110633484Y-111110667D01*
X110526073Y-111369341D01*
X110525828Y-111649430D01*
X84669383Y-111649430D01*
X84369856Y-111349381D01*
X83935946Y-111169206D01*
X83466115Y-111168796D01*
X83031891Y-111348213D01*
X82699381Y-111680144D01*
X82519206Y-112114054D01*
X82518796Y-112583885D01*
X69640795Y-112583885D01*
X69641204Y-112116115D01*
X69461787Y-111681891D01*
X69129856Y-111349381D01*
X68792817Y-111209430D01*
X79225828Y-111209430D01*
X79332788Y-111468291D01*
X79530667Y-111666516D01*
X79789341Y-111773927D01*
X80069430Y-111774172D01*
X80328291Y-111667212D01*
X80526516Y-111469333D01*
X80633927Y-111210659D01*
X80633997Y-111130357D01*
X80859339Y-111223927D01*
X81139428Y-111224172D01*
X81398289Y-111117212D01*
X81596514Y-110919333D01*
X81703925Y-110660659D01*
X81704170Y-110380570D01*
X81597210Y-110121709D01*
X81519522Y-110043885D01*
X82518796Y-110043885D01*
X82698213Y-110478109D01*
X83030144Y-110810619D01*
X83464054Y-110990794D01*
X83933885Y-110991204D01*
X84368109Y-110811787D01*
X84700619Y-110479856D01*
X84880794Y-110045946D01*
X84880895Y-109929430D01*
X90565828Y-109929430D01*
X90672788Y-110188291D01*
X90870667Y-110386516D01*
X91129341Y-110493927D01*
X91409430Y-110494172D01*
X91668291Y-110387212D01*
X91866516Y-110189333D01*
X91973927Y-109930659D01*
X91974172Y-109650570D01*
X91867212Y-109391709D01*
X91829357Y-109353787D01*
X116048787Y-109353787D01*
X116235800Y-109806395D01*
X116581784Y-110152983D01*
X117034065Y-110340786D01*
X117523787Y-110341213D01*
X117976395Y-110154200D01*
X118322983Y-109808216D01*
X118510786Y-109355935D01*
X118511213Y-108866213D01*
X118324200Y-108413605D01*
X117978216Y-108067017D01*
X117525935Y-107879214D01*
X117036213Y-107878787D01*
X116583605Y-108065800D01*
X116237017Y-108411784D01*
X116049214Y-108864065D01*
X116048787Y-109353787D01*
X91829357Y-109353787D01*
X91669333Y-109193484D01*
X91410659Y-109086073D01*
X91130570Y-109085828D01*
X90871709Y-109192788D01*
X90673484Y-109390667D01*
X90566073Y-109649341D01*
X90565828Y-109929430D01*
X84880895Y-109929430D01*
X84881204Y-109576115D01*
X84701787Y-109141891D01*
X84369856Y-108809381D01*
X83935946Y-108629206D01*
X83466115Y-108628796D01*
X83031891Y-108808213D01*
X82699381Y-109140144D01*
X82519206Y-109574054D01*
X82518796Y-110043885D01*
X81519522Y-110043885D01*
X81399331Y-109923484D01*
X81140657Y-109816073D01*
X80860568Y-109815828D01*
X80601707Y-109922788D01*
X80403482Y-110120667D01*
X80296071Y-110379341D01*
X80296001Y-110459643D01*
X80070659Y-110366073D01*
X79790570Y-110365828D01*
X79531709Y-110472788D01*
X79333484Y-110670667D01*
X79226073Y-110929341D01*
X79225828Y-111209430D01*
X68792817Y-111209430D01*
X68695946Y-111169206D01*
X68226115Y-111168796D01*
X67791891Y-111348213D01*
X67459381Y-111680144D01*
X67279206Y-112114054D01*
X67278796Y-112583885D01*
X50456000Y-112583885D01*
X50456000Y-110249430D01*
X64525828Y-110249430D01*
X64632788Y-110508291D01*
X64830667Y-110706516D01*
X65089341Y-110813927D01*
X65369430Y-110814172D01*
X65628291Y-110707212D01*
X65826516Y-110509333D01*
X65933927Y-110250659D01*
X65934054Y-110105734D01*
X66083738Y-110043885D01*
X67278796Y-110043885D01*
X67458213Y-110478109D01*
X67790144Y-110810619D01*
X68224054Y-110990794D01*
X68693885Y-110991204D01*
X69128109Y-110811787D01*
X69460619Y-110479856D01*
X69640794Y-110045946D01*
X69641204Y-109576115D01*
X69461787Y-109141891D01*
X69129856Y-108809381D01*
X68695946Y-108629206D01*
X68226115Y-108628796D01*
X67791891Y-108808213D01*
X67459381Y-109140144D01*
X67279206Y-109574054D01*
X67278796Y-110043885D01*
X66083738Y-110043885D01*
X66148291Y-110017212D01*
X66346516Y-109819333D01*
X66453927Y-109560659D01*
X66454172Y-109280570D01*
X66347212Y-109021709D01*
X66149333Y-108823484D01*
X65890659Y-108716073D01*
X65610570Y-108715828D01*
X65351709Y-108822788D01*
X65153484Y-109020667D01*
X65046073Y-109279341D01*
X65045946Y-109424266D01*
X64831709Y-109512788D01*
X64633484Y-109710667D01*
X64526073Y-109969341D01*
X64525828Y-110249430D01*
X50456000Y-110249430D01*
X50456000Y-107503885D01*
X67278796Y-107503885D01*
X67458213Y-107938109D01*
X67790144Y-108270619D01*
X68224054Y-108450794D01*
X68693885Y-108451204D01*
X69128109Y-108271787D01*
X69460619Y-107939856D01*
X69589519Y-107629430D01*
X104085828Y-107629430D01*
X104192788Y-107888291D01*
X104390667Y-108086516D01*
X104649341Y-108193927D01*
X104929430Y-108194172D01*
X105188291Y-108087212D01*
X105386516Y-107889333D01*
X105493927Y-107630659D01*
X105494172Y-107350570D01*
X105387212Y-107091709D01*
X105189333Y-106893484D01*
X104930659Y-106786073D01*
X104650570Y-106785828D01*
X104391709Y-106892788D01*
X104193484Y-107090667D01*
X104086073Y-107349341D01*
X104085828Y-107629430D01*
X69589519Y-107629430D01*
X69640794Y-107505946D01*
X69641204Y-107036115D01*
X69461787Y-106601891D01*
X69129856Y-106269381D01*
X68695946Y-106089206D01*
X68226115Y-106088796D01*
X67791891Y-106268213D01*
X67459381Y-106600144D01*
X67279206Y-107034054D01*
X67278796Y-107503885D01*
X50456000Y-107503885D01*
X50456000Y-105596663D01*
X58280204Y-105596663D01*
X58452025Y-106012503D01*
X58769903Y-106330936D01*
X59185443Y-106503484D01*
X59635383Y-106503876D01*
X60051223Y-106332055D01*
X60369656Y-106014177D01*
X60542204Y-105598637D01*
X60542205Y-105596663D01*
X64280204Y-105596663D01*
X64452025Y-106012503D01*
X64769903Y-106330936D01*
X65185443Y-106503484D01*
X65635383Y-106503876D01*
X66051223Y-106332055D01*
X66369656Y-106014177D01*
X66542204Y-105598637D01*
X66542596Y-105148697D01*
X66466234Y-104963885D01*
X67278796Y-104963885D01*
X67458213Y-105398109D01*
X67790144Y-105730619D01*
X68224054Y-105910794D01*
X68693885Y-105911204D01*
X69128109Y-105731787D01*
X69460619Y-105399856D01*
X69640794Y-104965946D01*
X69640795Y-104963885D01*
X82518796Y-104963885D01*
X82698213Y-105398109D01*
X83030144Y-105730619D01*
X83464054Y-105910794D01*
X83933885Y-105911204D01*
X84215922Y-105794669D01*
X98438864Y-105794669D01*
X98557514Y-106081823D01*
X98777021Y-106301714D01*
X99063968Y-106420864D01*
X99374669Y-106421136D01*
X99661823Y-106302486D01*
X99881714Y-106082979D01*
X100000864Y-105796032D01*
X100000952Y-105694669D01*
X102258864Y-105694669D01*
X102377514Y-105981823D01*
X102597021Y-106201714D01*
X102883968Y-106320864D01*
X103194669Y-106321136D01*
X103481823Y-106202486D01*
X103701714Y-105982979D01*
X103728795Y-105917758D01*
X129073696Y-105917758D01*
X129340468Y-106563395D01*
X129834007Y-107057796D01*
X130479178Y-107325694D01*
X131177758Y-107326304D01*
X131823395Y-107059532D01*
X132317796Y-106565993D01*
X132585694Y-105920822D01*
X132586304Y-105222242D01*
X132319532Y-104576605D01*
X131825993Y-104082204D01*
X131180822Y-103814306D01*
X130482242Y-103813696D01*
X129836605Y-104080468D01*
X129342204Y-104574007D01*
X129074306Y-105219178D01*
X129073696Y-105917758D01*
X103728795Y-105917758D01*
X103820864Y-105696032D01*
X103821136Y-105385331D01*
X103702486Y-105098177D01*
X103559229Y-104954669D01*
X124198864Y-104954669D01*
X124317514Y-105241823D01*
X124537021Y-105461714D01*
X124823968Y-105580864D01*
X125134669Y-105581136D01*
X125421823Y-105462486D01*
X125641714Y-105242979D01*
X125760864Y-104956032D01*
X125761136Y-104645331D01*
X125642486Y-104358177D01*
X125422979Y-104138286D01*
X125136032Y-104019136D01*
X124825331Y-104018864D01*
X124538177Y-104137514D01*
X124318286Y-104357021D01*
X124199136Y-104643968D01*
X124198864Y-104954669D01*
X103559229Y-104954669D01*
X103482979Y-104878286D01*
X103196032Y-104759136D01*
X102885331Y-104758864D01*
X102598177Y-104877514D01*
X102378286Y-105097021D01*
X102259136Y-105383968D01*
X102258864Y-105694669D01*
X100000952Y-105694669D01*
X100001136Y-105485331D01*
X99882486Y-105198177D01*
X99662979Y-104978286D01*
X99376032Y-104859136D01*
X99065331Y-104858864D01*
X98778177Y-104977514D01*
X98558286Y-105197021D01*
X98439136Y-105483968D01*
X98438864Y-105794669D01*
X84215922Y-105794669D01*
X84368109Y-105731787D01*
X84700619Y-105399856D01*
X84880794Y-104965946D01*
X84881204Y-104496115D01*
X84701787Y-104061891D01*
X84694578Y-104054669D01*
X95728864Y-104054669D01*
X95847514Y-104341823D01*
X96067021Y-104561714D01*
X96353968Y-104680864D01*
X96664669Y-104681136D01*
X96951823Y-104562486D01*
X97171714Y-104342979D01*
X97290864Y-104056032D01*
X97290952Y-103954669D01*
X104958864Y-103954669D01*
X105077514Y-104241823D01*
X105297021Y-104461714D01*
X105583968Y-104580864D01*
X105894669Y-104581136D01*
X106181823Y-104462486D01*
X106401714Y-104242979D01*
X106520864Y-103956032D01*
X106521132Y-103649430D01*
X112155828Y-103649430D01*
X112262788Y-103908291D01*
X112460667Y-104106516D01*
X112719341Y-104213927D01*
X112999430Y-104214172D01*
X113258291Y-104107212D01*
X113456516Y-103909333D01*
X113563927Y-103650659D01*
X113564172Y-103370570D01*
X113457212Y-103111709D01*
X113259333Y-102913484D01*
X113000659Y-102806073D01*
X112720570Y-102805828D01*
X112461709Y-102912788D01*
X112263484Y-103110667D01*
X112156073Y-103369341D01*
X112155828Y-103649430D01*
X106521132Y-103649430D01*
X106521136Y-103645331D01*
X106402486Y-103358177D01*
X106182979Y-103138286D01*
X105896032Y-103019136D01*
X105585331Y-103018864D01*
X105298177Y-103137514D01*
X105078286Y-103357021D01*
X104959136Y-103643968D01*
X104958864Y-103954669D01*
X97290952Y-103954669D01*
X97291136Y-103745331D01*
X97172486Y-103458177D01*
X96952979Y-103238286D01*
X96666032Y-103119136D01*
X96355331Y-103118864D01*
X96068177Y-103237514D01*
X95848286Y-103457021D01*
X95729136Y-103743968D01*
X95728864Y-104054669D01*
X84694578Y-104054669D01*
X84369856Y-103729381D01*
X83935946Y-103549206D01*
X83466115Y-103548796D01*
X83031891Y-103728213D01*
X82699381Y-104060144D01*
X82519206Y-104494054D01*
X82518796Y-104963885D01*
X69640795Y-104963885D01*
X69641204Y-104496115D01*
X69461787Y-104061891D01*
X69129856Y-103729381D01*
X68695946Y-103549206D01*
X68226115Y-103548796D01*
X67791891Y-103728213D01*
X67459381Y-104060144D01*
X67279206Y-104494054D01*
X67278796Y-104963885D01*
X66466234Y-104963885D01*
X66370775Y-104732857D01*
X66052897Y-104414424D01*
X65637357Y-104241876D01*
X65187417Y-104241484D01*
X64771577Y-104413305D01*
X64453144Y-104731183D01*
X64280596Y-105146723D01*
X64280204Y-105596663D01*
X60542205Y-105596663D01*
X60542596Y-105148697D01*
X60370775Y-104732857D01*
X60052897Y-104414424D01*
X59637357Y-104241876D01*
X59187417Y-104241484D01*
X58771577Y-104413305D01*
X58453144Y-104731183D01*
X58280596Y-105146723D01*
X58280204Y-105596663D01*
X50456000Y-105596663D01*
X50456000Y-102071908D01*
X60155225Y-102071908D01*
X60308057Y-102441789D01*
X60590803Y-102725028D01*
X60960416Y-102878505D01*
X61360628Y-102878855D01*
X61730509Y-102726023D01*
X62013748Y-102443277D01*
X62167225Y-102073664D01*
X62167226Y-102071908D01*
X62655225Y-102071908D01*
X62808057Y-102441789D01*
X63090803Y-102725028D01*
X63460416Y-102878505D01*
X63860628Y-102878855D01*
X64230509Y-102726023D01*
X64513748Y-102443277D01*
X64667225Y-102073664D01*
X64667575Y-101673452D01*
X64523960Y-101325878D01*
X64526362Y-101327483D01*
X64720000Y-101366000D01*
X67613794Y-101366000D01*
X67459381Y-101520144D01*
X67279206Y-101954054D01*
X67278796Y-102423885D01*
X67458213Y-102858109D01*
X67790144Y-103190619D01*
X68224054Y-103370794D01*
X68693885Y-103371204D01*
X69128109Y-103191787D01*
X69460619Y-102859856D01*
X69640794Y-102425946D01*
X69641204Y-101956115D01*
X69461787Y-101521891D01*
X69414833Y-101474856D01*
X69629341Y-101563927D01*
X69909430Y-101564172D01*
X70168291Y-101457212D01*
X70366516Y-101259333D01*
X70473927Y-101000659D01*
X70474172Y-100720570D01*
X70382799Y-100499430D01*
X75395828Y-100499430D01*
X75502788Y-100758291D01*
X75634253Y-100889986D01*
X75583484Y-100940667D01*
X75476073Y-101199341D01*
X75475828Y-101479430D01*
X75582788Y-101738291D01*
X75672855Y-101828515D01*
X75560763Y-101940411D01*
X75453352Y-102199085D01*
X75453107Y-102479174D01*
X75560067Y-102738035D01*
X75757946Y-102936260D01*
X76016620Y-103043671D01*
X76296709Y-103043916D01*
X76555570Y-102936956D01*
X76753795Y-102739077D01*
X76861206Y-102480403D01*
X76861451Y-102200314D01*
X76754491Y-101941453D01*
X76664424Y-101851229D01*
X76776516Y-101739333D01*
X76830456Y-101609430D01*
X81745828Y-101609430D01*
X81852788Y-101868291D01*
X82050667Y-102066516D01*
X82309341Y-102173927D01*
X82519014Y-102174110D01*
X82518796Y-102423885D01*
X82698213Y-102858109D01*
X83030144Y-103190619D01*
X83464054Y-103370794D01*
X83933885Y-103371204D01*
X84368109Y-103191787D01*
X84700619Y-102859856D01*
X84880794Y-102425946D01*
X84881204Y-101956115D01*
X84701787Y-101521891D01*
X84369856Y-101189381D01*
X83935946Y-101009206D01*
X83466115Y-101008796D01*
X83086096Y-101165816D01*
X83047212Y-101071709D01*
X82849333Y-100873484D01*
X82590659Y-100766073D01*
X82310570Y-100765828D01*
X82051709Y-100872788D01*
X81853484Y-101070667D01*
X81746073Y-101329341D01*
X81745828Y-101609430D01*
X76830456Y-101609430D01*
X76883927Y-101480659D01*
X76884172Y-101200570D01*
X76777212Y-100941709D01*
X76645747Y-100810014D01*
X76696516Y-100759333D01*
X76803927Y-100500659D01*
X76804172Y-100220570D01*
X76697212Y-99961709D01*
X76499333Y-99763484D01*
X76240659Y-99656073D01*
X75960570Y-99655828D01*
X75701709Y-99762788D01*
X75503484Y-99960667D01*
X75396073Y-100219341D01*
X75395828Y-100499430D01*
X70382799Y-100499430D01*
X70367212Y-100461709D01*
X70169333Y-100263484D01*
X69910659Y-100156073D01*
X69630570Y-100155828D01*
X69507637Y-100206623D01*
X69640794Y-99885946D01*
X69641087Y-99549430D01*
X79540818Y-99549430D01*
X79647778Y-99808291D01*
X79845657Y-100006516D01*
X80104331Y-100113927D01*
X80384420Y-100114172D01*
X80643281Y-100007212D01*
X80766823Y-99883885D01*
X82518796Y-99883885D01*
X82698213Y-100318109D01*
X83030144Y-100650619D01*
X83464054Y-100830794D01*
X83933885Y-100831204D01*
X84368109Y-100651787D01*
X84369813Y-100650086D01*
X84422786Y-100778291D01*
X84620665Y-100976516D01*
X84879339Y-101083927D01*
X85159428Y-101084172D01*
X85418289Y-100977212D01*
X85616514Y-100779333D01*
X85723925Y-100520659D01*
X85724004Y-100429430D01*
X92845828Y-100429430D01*
X92952788Y-100688291D01*
X93150667Y-100886516D01*
X93409341Y-100993927D01*
X93689430Y-100994172D01*
X93948291Y-100887212D01*
X94146516Y-100689333D01*
X94253927Y-100430659D01*
X94254037Y-100304669D01*
X116028864Y-100304669D01*
X116147514Y-100591823D01*
X116367021Y-100811714D01*
X116653968Y-100930864D01*
X116964669Y-100931136D01*
X117251823Y-100812486D01*
X117471714Y-100592979D01*
X117590864Y-100306032D01*
X117591136Y-99995331D01*
X117472486Y-99708177D01*
X117252979Y-99488286D01*
X116966032Y-99369136D01*
X116655331Y-99368864D01*
X116368177Y-99487514D01*
X116148286Y-99707021D01*
X116029136Y-99993968D01*
X116028864Y-100304669D01*
X94254037Y-100304669D01*
X94254172Y-100150570D01*
X94147212Y-99891709D01*
X93949333Y-99693484D01*
X93690659Y-99586073D01*
X93410570Y-99585828D01*
X93151709Y-99692788D01*
X92953484Y-99890667D01*
X92846073Y-100149341D01*
X92845828Y-100429430D01*
X85724004Y-100429430D01*
X85724170Y-100240570D01*
X85644638Y-100048089D01*
X85839341Y-100128937D01*
X86119430Y-100129182D01*
X86378291Y-100022222D01*
X86576516Y-99824343D01*
X86683927Y-99565669D01*
X86684172Y-99285580D01*
X86577212Y-99026719D01*
X86458459Y-98907758D01*
X128973696Y-98907758D01*
X129240468Y-99553395D01*
X129734007Y-100047796D01*
X130379178Y-100315694D01*
X131077758Y-100316304D01*
X131723395Y-100049532D01*
X132217796Y-99555993D01*
X132485694Y-98910822D01*
X132486304Y-98212242D01*
X132219532Y-97566605D01*
X131725993Y-97072204D01*
X131080822Y-96804306D01*
X130382242Y-96803696D01*
X129736605Y-97070468D01*
X129242204Y-97564007D01*
X128974306Y-98209178D01*
X128973696Y-98907758D01*
X86458459Y-98907758D01*
X86379333Y-98828494D01*
X86120659Y-98721083D01*
X85840570Y-98720838D01*
X85581709Y-98827798D01*
X85383484Y-99025677D01*
X85276073Y-99284351D01*
X85275828Y-99564440D01*
X85355360Y-99756921D01*
X85160657Y-99676073D01*
X84880977Y-99675828D01*
X84881204Y-99416115D01*
X84701787Y-98981891D01*
X84369856Y-98649381D01*
X83935946Y-98469206D01*
X83466115Y-98468796D01*
X83031891Y-98648213D01*
X82699381Y-98980144D01*
X82519206Y-99414054D01*
X82518796Y-99883885D01*
X80766823Y-99883885D01*
X80841506Y-99809333D01*
X80948917Y-99550659D01*
X80949162Y-99270570D01*
X80842202Y-99011709D01*
X80644323Y-98813484D01*
X80385649Y-98706073D01*
X80105560Y-98705828D01*
X79846699Y-98812788D01*
X79648474Y-99010667D01*
X79541063Y-99269341D01*
X79540818Y-99549430D01*
X69641087Y-99549430D01*
X69641204Y-99416115D01*
X69461787Y-98981891D01*
X69129856Y-98649381D01*
X68695946Y-98469206D01*
X68226115Y-98468796D01*
X67791891Y-98648213D01*
X67459381Y-98980144D01*
X67279206Y-99414054D01*
X67278796Y-99883885D01*
X67458213Y-100318109D01*
X67494042Y-100354000D01*
X65090798Y-100354000D01*
X65007212Y-100151709D01*
X64809333Y-99953484D01*
X64550659Y-99846073D01*
X64270570Y-99845828D01*
X64011709Y-99952788D01*
X63813484Y-100150667D01*
X63706073Y-100409341D01*
X63705828Y-100689430D01*
X63779109Y-100866782D01*
X63462172Y-100866505D01*
X63092291Y-101019337D01*
X62809052Y-101302083D01*
X62655575Y-101671696D01*
X62655225Y-102071908D01*
X62167226Y-102071908D01*
X62167575Y-101673452D01*
X62014743Y-101303571D01*
X61731997Y-101020332D01*
X61362384Y-100866855D01*
X60962172Y-100866505D01*
X60592291Y-101019337D01*
X60309052Y-101302083D01*
X60155575Y-101671696D01*
X60155225Y-102071908D01*
X50456000Y-102071908D01*
X50456000Y-98071908D01*
X60155225Y-98071908D01*
X60308057Y-98441789D01*
X60590803Y-98725028D01*
X60960416Y-98878505D01*
X61360628Y-98878855D01*
X61730509Y-98726023D01*
X62013748Y-98443277D01*
X62167225Y-98073664D01*
X62167226Y-98071908D01*
X62655225Y-98071908D01*
X62808057Y-98441789D01*
X63090803Y-98725028D01*
X63460416Y-98878505D01*
X63860628Y-98878855D01*
X64230509Y-98726023D01*
X64513748Y-98443277D01*
X64667225Y-98073664D01*
X64667575Y-97673452D01*
X64531401Y-97343885D01*
X67278796Y-97343885D01*
X67458213Y-97778109D01*
X67790144Y-98110619D01*
X68224054Y-98290794D01*
X68693885Y-98291204D01*
X69128109Y-98111787D01*
X69460619Y-97779856D01*
X69640794Y-97345946D01*
X69640795Y-97343885D01*
X82518796Y-97343885D01*
X82698213Y-97778109D01*
X83030144Y-98110619D01*
X83464054Y-98290794D01*
X83933885Y-98291204D01*
X84368109Y-98111787D01*
X84700619Y-97779856D01*
X84880794Y-97345946D01*
X84881201Y-96879428D01*
X86975828Y-96879428D01*
X87082788Y-97138289D01*
X87280667Y-97336514D01*
X87539341Y-97443925D01*
X87819430Y-97444170D01*
X88078291Y-97337210D01*
X88276516Y-97139331D01*
X88383927Y-96880657D01*
X88384172Y-96600568D01*
X88277212Y-96341707D01*
X88079333Y-96143482D01*
X87949157Y-96089428D01*
X108145828Y-96089428D01*
X108252788Y-96348289D01*
X108450667Y-96546514D01*
X108709341Y-96653925D01*
X108989430Y-96654170D01*
X109248291Y-96547210D01*
X109446516Y-96349331D01*
X109553927Y-96090657D01*
X109554172Y-95810568D01*
X109447212Y-95551707D01*
X109249333Y-95353482D01*
X108990659Y-95246071D01*
X108710570Y-95245826D01*
X108451709Y-95352786D01*
X108253484Y-95550665D01*
X108146073Y-95809339D01*
X108145828Y-96089428D01*
X87949157Y-96089428D01*
X87820659Y-96036071D01*
X87540570Y-96035826D01*
X87281709Y-96142786D01*
X87083484Y-96340665D01*
X86976073Y-96599339D01*
X86975828Y-96879428D01*
X84881201Y-96879428D01*
X84881204Y-96876115D01*
X84701787Y-96441891D01*
X84369856Y-96109381D01*
X83935946Y-95929206D01*
X83466115Y-95928796D01*
X83031891Y-96108213D01*
X82699381Y-96440144D01*
X82519206Y-96874054D01*
X82518796Y-97343885D01*
X69640795Y-97343885D01*
X69641204Y-96876115D01*
X69461787Y-96441891D01*
X69129856Y-96109381D01*
X68695946Y-95929206D01*
X68226115Y-95928796D01*
X67791891Y-96108213D01*
X67459381Y-96440144D01*
X67279206Y-96874054D01*
X67278796Y-97343885D01*
X64531401Y-97343885D01*
X64514743Y-97303571D01*
X64231997Y-97020332D01*
X63862384Y-96866855D01*
X63462172Y-96866505D01*
X63092291Y-97019337D01*
X62809052Y-97302083D01*
X62655575Y-97671696D01*
X62655225Y-98071908D01*
X62167226Y-98071908D01*
X62167575Y-97673452D01*
X62014743Y-97303571D01*
X61731997Y-97020332D01*
X61362384Y-96866855D01*
X60962172Y-96866505D01*
X60592291Y-97019337D01*
X60309052Y-97302083D01*
X60155575Y-97671696D01*
X60155225Y-98071908D01*
X50456000Y-98071908D01*
X50456000Y-95964669D01*
X57028864Y-95964669D01*
X57147514Y-96251823D01*
X57367021Y-96471714D01*
X57653968Y-96590864D01*
X57964669Y-96591136D01*
X58251823Y-96472486D01*
X58471714Y-96252979D01*
X58590864Y-95966032D01*
X58591136Y-95655331D01*
X58472486Y-95368177D01*
X58252979Y-95148286D01*
X57966032Y-95029136D01*
X57655331Y-95028864D01*
X57368177Y-95147514D01*
X57148286Y-95367021D01*
X57029136Y-95653968D01*
X57028864Y-95964669D01*
X50456000Y-95964669D01*
X50456000Y-94071908D01*
X62655225Y-94071908D01*
X62808057Y-94441789D01*
X63090803Y-94725028D01*
X63460416Y-94878505D01*
X63860628Y-94878855D01*
X64042068Y-94803885D01*
X67278796Y-94803885D01*
X67458213Y-95238109D01*
X67790144Y-95570619D01*
X68224054Y-95750794D01*
X68693885Y-95751204D01*
X69128109Y-95571787D01*
X69460619Y-95239856D01*
X69640794Y-94805946D01*
X69640795Y-94803885D01*
X82518796Y-94803885D01*
X82698213Y-95238109D01*
X83030144Y-95570619D01*
X83464054Y-95750794D01*
X83933885Y-95751204D01*
X84368109Y-95571787D01*
X84700619Y-95239856D01*
X84880794Y-94805946D01*
X84881204Y-94336115D01*
X84701787Y-93901891D01*
X84369856Y-93569381D01*
X83935946Y-93389206D01*
X83466115Y-93388796D01*
X83031891Y-93568213D01*
X82699381Y-93900144D01*
X82519206Y-94334054D01*
X82518796Y-94803885D01*
X69640795Y-94803885D01*
X69641204Y-94336115D01*
X69461787Y-93901891D01*
X69199784Y-93639430D01*
X79455828Y-93639430D01*
X79562788Y-93898291D01*
X79760667Y-94096516D01*
X80019341Y-94203927D01*
X80299430Y-94204172D01*
X80558291Y-94097212D01*
X80756516Y-93899333D01*
X80863927Y-93640659D01*
X80864172Y-93360570D01*
X80757212Y-93101709D01*
X80559333Y-92903484D01*
X80300659Y-92796073D01*
X80020570Y-92795828D01*
X79761709Y-92902788D01*
X79563484Y-93100667D01*
X79456073Y-93359341D01*
X79455828Y-93639430D01*
X69199784Y-93639430D01*
X69129856Y-93569381D01*
X68695946Y-93389206D01*
X68226115Y-93388796D01*
X67791891Y-93568213D01*
X67459381Y-93900144D01*
X67279206Y-94334054D01*
X67278796Y-94803885D01*
X64042068Y-94803885D01*
X64230509Y-94726023D01*
X64513748Y-94443277D01*
X64667225Y-94073664D01*
X64667575Y-93673452D01*
X64514743Y-93303571D01*
X64231997Y-93020332D01*
X63862384Y-92866855D01*
X63462172Y-92866505D01*
X63092291Y-93019337D01*
X62809052Y-93302083D01*
X62655575Y-93671696D01*
X62655225Y-94071908D01*
X50456000Y-94071908D01*
X50456000Y-92263885D01*
X67278796Y-92263885D01*
X67458213Y-92698109D01*
X67790144Y-93030619D01*
X68224054Y-93210794D01*
X68693885Y-93211204D01*
X69128109Y-93031787D01*
X69460619Y-92699856D01*
X69640794Y-92265946D01*
X69641201Y-91799430D01*
X71255828Y-91799430D01*
X71362788Y-92058291D01*
X71560667Y-92256516D01*
X71819341Y-92363927D01*
X72099430Y-92364172D01*
X72342141Y-92263885D01*
X82518796Y-92263885D01*
X82698213Y-92698109D01*
X83030144Y-93030619D01*
X83464054Y-93210794D01*
X83933885Y-93211204D01*
X84368109Y-93031787D01*
X84700619Y-92699856D01*
X84880794Y-92265946D01*
X84881204Y-91796115D01*
X84701787Y-91361891D01*
X84669383Y-91329430D01*
X85495828Y-91329430D01*
X85602788Y-91588291D01*
X85800667Y-91786516D01*
X86059341Y-91893927D01*
X86339430Y-91894172D01*
X86598291Y-91787212D01*
X86796516Y-91589333D01*
X86900284Y-91339430D01*
X92705828Y-91339430D01*
X92812788Y-91598291D01*
X93010667Y-91796516D01*
X93269341Y-91903927D01*
X93398448Y-91904040D01*
X96527760Y-95033352D01*
X96527649Y-95160773D01*
X96634609Y-95419634D01*
X96832488Y-95617859D01*
X97091162Y-95725270D01*
X97371251Y-95725515D01*
X97630112Y-95618555D01*
X97726857Y-95521979D01*
X97901861Y-95594647D01*
X98181950Y-95594892D01*
X98440811Y-95487932D01*
X98639036Y-95290053D01*
X98746447Y-95031379D01*
X98746692Y-94751290D01*
X98639732Y-94492429D01*
X98441853Y-94294204D01*
X98322560Y-94244669D01*
X112398864Y-94244669D01*
X112517514Y-94531823D01*
X112737021Y-94751714D01*
X113023968Y-94870864D01*
X113334669Y-94871136D01*
X113621823Y-94752486D01*
X113841714Y-94532979D01*
X113960864Y-94246032D01*
X113961136Y-93935331D01*
X113842486Y-93648177D01*
X113622979Y-93428286D01*
X113573542Y-93407758D01*
X128973696Y-93407758D01*
X129240468Y-94053395D01*
X129734007Y-94547796D01*
X130379178Y-94815694D01*
X131077758Y-94816304D01*
X131723395Y-94549532D01*
X132217796Y-94055993D01*
X132485694Y-93410822D01*
X132486304Y-92712242D01*
X132219532Y-92066605D01*
X131725993Y-91572204D01*
X131080822Y-91304306D01*
X130382242Y-91303696D01*
X129736605Y-91570468D01*
X129242204Y-92064007D01*
X128974306Y-92709178D01*
X128973696Y-93407758D01*
X113573542Y-93407758D01*
X113336032Y-93309136D01*
X113025331Y-93308864D01*
X112738177Y-93427514D01*
X112518286Y-93647021D01*
X112399136Y-93933968D01*
X112398864Y-94244669D01*
X98322560Y-94244669D01*
X98183179Y-94186793D01*
X98054072Y-94186680D01*
X96476842Y-92609450D01*
X100055828Y-92609450D01*
X100162788Y-92868311D01*
X100360667Y-93066536D01*
X100619341Y-93173947D01*
X100899430Y-93174192D01*
X101158291Y-93067232D01*
X101356516Y-92869353D01*
X101463927Y-92610679D01*
X101464172Y-92330590D01*
X101357212Y-92071729D01*
X101170479Y-91884669D01*
X121478864Y-91884669D01*
X121597514Y-92171823D01*
X121817021Y-92391714D01*
X122103968Y-92510864D01*
X122414669Y-92511136D01*
X122701823Y-92392486D01*
X122921714Y-92172979D01*
X123040864Y-91886032D01*
X123041136Y-91575331D01*
X122922486Y-91288177D01*
X122702979Y-91068286D01*
X122416032Y-90949136D01*
X122105331Y-90948864D01*
X121818177Y-91067514D01*
X121598286Y-91287021D01*
X121479136Y-91573968D01*
X121478864Y-91884669D01*
X101170479Y-91884669D01*
X101159333Y-91873504D01*
X100900659Y-91766093D01*
X100620570Y-91765848D01*
X100361709Y-91872808D01*
X100163484Y-92070687D01*
X100056073Y-92329361D01*
X100055828Y-92609450D01*
X96476842Y-92609450D01*
X94755385Y-90887993D01*
X94798289Y-90784669D01*
X114558864Y-90784669D01*
X114677514Y-91071823D01*
X114897021Y-91291714D01*
X115183968Y-91410864D01*
X115494669Y-91411136D01*
X115781823Y-91292486D01*
X116001714Y-91072979D01*
X116120864Y-90786032D01*
X116121136Y-90475331D01*
X116002486Y-90188177D01*
X115782979Y-89968286D01*
X115496032Y-89849136D01*
X115185331Y-89848864D01*
X114898177Y-89967514D01*
X114678286Y-90187021D01*
X114559136Y-90473968D01*
X114558864Y-90784669D01*
X94798289Y-90784669D01*
X94853927Y-90650679D01*
X94854172Y-90370590D01*
X94747212Y-90111729D01*
X94549333Y-89913504D01*
X94290659Y-89806093D01*
X94010570Y-89805848D01*
X93751709Y-89912808D01*
X93553484Y-90110687D01*
X93446073Y-90369361D01*
X93445962Y-90495981D01*
X93270570Y-90495828D01*
X93011709Y-90602788D01*
X92813484Y-90800667D01*
X92706073Y-91059341D01*
X92705828Y-91339430D01*
X86900284Y-91339430D01*
X86903927Y-91330659D01*
X86904172Y-91050570D01*
X86797212Y-90791709D01*
X86599333Y-90593484D01*
X86340659Y-90486073D01*
X86060570Y-90485828D01*
X85801709Y-90592788D01*
X85603484Y-90790667D01*
X85496073Y-91049341D01*
X85495828Y-91329430D01*
X84669383Y-91329430D01*
X84369856Y-91029381D01*
X83935946Y-90849206D01*
X83466115Y-90848796D01*
X83031891Y-91028213D01*
X82699381Y-91360144D01*
X82519206Y-91794054D01*
X82518796Y-92263885D01*
X72342141Y-92263885D01*
X72358291Y-92257212D01*
X72556516Y-92059333D01*
X72663927Y-91800659D01*
X72664172Y-91520570D01*
X72557212Y-91261709D01*
X72524826Y-91229266D01*
X72624340Y-91129926D01*
X72731751Y-90871252D01*
X72731996Y-90591163D01*
X72625036Y-90332302D01*
X72427157Y-90134077D01*
X72168483Y-90026666D01*
X71888394Y-90026421D01*
X71629533Y-90133381D01*
X71431308Y-90331260D01*
X71323897Y-90589934D01*
X71323652Y-90870023D01*
X71430612Y-91128884D01*
X71462998Y-91161327D01*
X71363484Y-91260667D01*
X71256073Y-91519341D01*
X71255828Y-91799430D01*
X69641201Y-91799430D01*
X69641204Y-91796115D01*
X69461787Y-91361891D01*
X69129856Y-91029381D01*
X68695946Y-90849206D01*
X68226115Y-90848796D01*
X67791891Y-91028213D01*
X67459381Y-91360144D01*
X67279206Y-91794054D01*
X67278796Y-92263885D01*
X50456000Y-92263885D01*
X50456000Y-90596663D01*
X58280204Y-90596663D01*
X58452025Y-91012503D01*
X58769903Y-91330936D01*
X59185443Y-91503484D01*
X59635383Y-91503876D01*
X60051223Y-91332055D01*
X60369656Y-91014177D01*
X60542204Y-90598637D01*
X60542205Y-90596663D01*
X64280204Y-90596663D01*
X64452025Y-91012503D01*
X64769903Y-91330936D01*
X65185443Y-91503484D01*
X65635383Y-91503876D01*
X66051223Y-91332055D01*
X66369656Y-91014177D01*
X66542204Y-90598637D01*
X66542596Y-90148697D01*
X66370775Y-89732857D01*
X66361819Y-89723885D01*
X67278796Y-89723885D01*
X67458213Y-90158109D01*
X67790144Y-90490619D01*
X68224054Y-90670794D01*
X68693885Y-90671204D01*
X69128109Y-90491787D01*
X69285885Y-90334286D01*
X69285828Y-90399430D01*
X69392788Y-90658291D01*
X69590667Y-90856516D01*
X69849341Y-90963927D01*
X70129430Y-90964172D01*
X70388291Y-90857212D01*
X70586516Y-90659333D01*
X70693927Y-90400659D01*
X70694172Y-90120570D01*
X70587212Y-89861709D01*
X70389333Y-89663484D01*
X70130659Y-89556073D01*
X69850570Y-89555828D01*
X69640867Y-89642476D01*
X69641204Y-89256115D01*
X69461787Y-88821891D01*
X69429383Y-88789430D01*
X75070797Y-88789430D01*
X75177757Y-89048291D01*
X75342905Y-89213728D01*
X75178453Y-89377893D01*
X75071042Y-89636567D01*
X75070797Y-89916656D01*
X75177757Y-90175517D01*
X75375636Y-90373742D01*
X75634310Y-90481153D01*
X75914399Y-90481398D01*
X76173260Y-90374438D01*
X76371485Y-90176559D01*
X76478896Y-89917885D01*
X76479065Y-89723885D01*
X82518796Y-89723885D01*
X82698213Y-90158109D01*
X83030144Y-90490619D01*
X83464054Y-90670794D01*
X83933885Y-90671204D01*
X84368109Y-90491787D01*
X84700619Y-90159856D01*
X84880794Y-89725946D01*
X84881204Y-89256115D01*
X84701787Y-88821891D01*
X84369856Y-88489381D01*
X83935946Y-88309206D01*
X83466115Y-88308796D01*
X83031891Y-88488213D01*
X82699381Y-88820144D01*
X82519206Y-89254054D01*
X82518796Y-89723885D01*
X76479065Y-89723885D01*
X76479141Y-89637796D01*
X76372181Y-89378935D01*
X76207033Y-89213498D01*
X76371485Y-89049333D01*
X76478896Y-88790659D01*
X76479141Y-88510570D01*
X76372181Y-88251709D01*
X76174302Y-88053484D01*
X75971878Y-87969430D01*
X79335828Y-87969430D01*
X79442788Y-88228291D01*
X79640667Y-88426516D01*
X79899341Y-88533927D01*
X80179430Y-88534172D01*
X80438291Y-88427212D01*
X80636516Y-88229333D01*
X80743927Y-87970659D01*
X80744172Y-87690570D01*
X80637212Y-87431709D01*
X80439333Y-87233484D01*
X80319886Y-87183885D01*
X82518796Y-87183885D01*
X82698213Y-87618109D01*
X83030144Y-87950619D01*
X83464054Y-88130794D01*
X83933885Y-88131204D01*
X84167518Y-88034669D01*
X95578864Y-88034669D01*
X95697514Y-88321823D01*
X95917021Y-88541714D01*
X96203968Y-88660864D01*
X96514669Y-88661136D01*
X96801823Y-88542486D01*
X97021714Y-88322979D01*
X97140864Y-88036032D01*
X97141136Y-87725331D01*
X97022486Y-87438177D01*
X96802979Y-87218286D01*
X96516032Y-87099136D01*
X96205331Y-87098864D01*
X95918177Y-87217514D01*
X95698286Y-87437021D01*
X95579136Y-87723968D01*
X95578864Y-88034669D01*
X84167518Y-88034669D01*
X84368109Y-87951787D01*
X84700619Y-87619856D01*
X84880794Y-87185946D01*
X84881204Y-86716115D01*
X84701787Y-86281891D01*
X84369856Y-85949381D01*
X83935946Y-85769206D01*
X83466115Y-85768796D01*
X83031891Y-85948213D01*
X82699381Y-86280144D01*
X82519206Y-86714054D01*
X82518796Y-87183885D01*
X80319886Y-87183885D01*
X80180659Y-87126073D01*
X79900570Y-87125828D01*
X79641709Y-87232788D01*
X79443484Y-87430667D01*
X79336073Y-87689341D01*
X79335828Y-87969430D01*
X75971878Y-87969430D01*
X75915628Y-87946073D01*
X75635539Y-87945828D01*
X75376678Y-88052788D01*
X75178453Y-88250667D01*
X75071042Y-88509341D01*
X75070797Y-88789430D01*
X69429383Y-88789430D01*
X69129856Y-88489381D01*
X68695946Y-88309206D01*
X68226115Y-88308796D01*
X67791891Y-88488213D01*
X67459381Y-88820144D01*
X67279206Y-89254054D01*
X67278796Y-89723885D01*
X66361819Y-89723885D01*
X66052897Y-89414424D01*
X65637357Y-89241876D01*
X65187417Y-89241484D01*
X64771577Y-89413305D01*
X64453144Y-89731183D01*
X64280596Y-90146723D01*
X64280204Y-90596663D01*
X60542205Y-90596663D01*
X60542596Y-90148697D01*
X60370775Y-89732857D01*
X60052897Y-89414424D01*
X59637357Y-89241876D01*
X59187417Y-89241484D01*
X58771577Y-89413305D01*
X58453144Y-89731183D01*
X58280596Y-90146723D01*
X58280204Y-90596663D01*
X50456000Y-90596663D01*
X50456000Y-87183885D01*
X67278796Y-87183885D01*
X67458213Y-87618109D01*
X67790144Y-87950619D01*
X68224054Y-88130794D01*
X68693885Y-88131204D01*
X69128109Y-87951787D01*
X69400886Y-87679485D01*
X69412788Y-87708291D01*
X69610667Y-87906516D01*
X69869341Y-88013927D01*
X70149430Y-88014172D01*
X70408291Y-87907212D01*
X70606516Y-87709333D01*
X70713927Y-87450659D01*
X70714105Y-87247283D01*
X70895504Y-87247442D01*
X71154365Y-87140482D01*
X71352590Y-86942603D01*
X71460001Y-86683929D01*
X71460246Y-86403840D01*
X71353286Y-86144979D01*
X71155407Y-85946754D01*
X70896733Y-85839343D01*
X70616644Y-85839098D01*
X70357783Y-85946058D01*
X70159558Y-86143937D01*
X70052147Y-86402611D01*
X70051969Y-86605987D01*
X69870570Y-86605828D01*
X69635729Y-86702863D01*
X69461787Y-86281891D01*
X69129856Y-85949381D01*
X68695946Y-85769206D01*
X68226115Y-85768796D01*
X67791891Y-85948213D01*
X67459381Y-86280144D01*
X67279206Y-86714054D01*
X67278796Y-87183885D01*
X50456000Y-87183885D01*
X50456000Y-85744669D01*
X64928864Y-85744669D01*
X65047514Y-86031823D01*
X65267021Y-86251714D01*
X65553968Y-86370864D01*
X65864669Y-86371136D01*
X66151823Y-86252486D01*
X66371714Y-86032979D01*
X66490864Y-85746032D01*
X66491136Y-85435331D01*
X66372486Y-85148177D01*
X66152979Y-84928286D01*
X65866032Y-84809136D01*
X65555331Y-84808864D01*
X65268177Y-84927514D01*
X65048286Y-85147021D01*
X64929136Y-85433968D01*
X64928864Y-85744669D01*
X50456000Y-85744669D01*
X50456000Y-84643885D01*
X67278796Y-84643885D01*
X67458213Y-85078109D01*
X67790144Y-85410619D01*
X68224054Y-85590794D01*
X68693885Y-85591204D01*
X69128109Y-85411787D01*
X69460619Y-85079856D01*
X69640794Y-84645946D01*
X69640795Y-84643885D01*
X82518796Y-84643885D01*
X82698213Y-85078109D01*
X83030144Y-85410619D01*
X83464054Y-85590794D01*
X83933885Y-85591204D01*
X84368109Y-85411787D01*
X84570816Y-85209432D01*
X109225828Y-85209432D01*
X109332788Y-85468293D01*
X109530667Y-85666518D01*
X109789341Y-85773929D01*
X110069430Y-85774174D01*
X110328291Y-85667214D01*
X110526516Y-85469335D01*
X110553571Y-85404179D01*
X128378822Y-85404179D01*
X128535451Y-85783251D01*
X128825223Y-86073529D01*
X129204022Y-86230820D01*
X129614179Y-86231178D01*
X129993251Y-86074549D01*
X130283529Y-85784777D01*
X130440820Y-85405978D01*
X130441178Y-84995821D01*
X130284549Y-84616749D01*
X129994777Y-84326471D01*
X129615978Y-84169180D01*
X129205821Y-84168822D01*
X128826749Y-84325451D01*
X128536471Y-84615223D01*
X128379180Y-84994022D01*
X128378822Y-85404179D01*
X110553571Y-85404179D01*
X110633927Y-85210661D01*
X110634172Y-84930572D01*
X110527212Y-84671711D01*
X110329333Y-84473486D01*
X110070659Y-84366075D01*
X109790570Y-84365830D01*
X109531709Y-84472790D01*
X109333484Y-84670669D01*
X109226073Y-84929343D01*
X109225828Y-85209432D01*
X84570816Y-85209432D01*
X84700619Y-85079856D01*
X84880794Y-84645946D01*
X84880799Y-84639430D01*
X85345828Y-84639430D01*
X85452788Y-84898291D01*
X85650667Y-85096516D01*
X85909341Y-85203927D01*
X86189430Y-85204172D01*
X86448291Y-85097212D01*
X86646516Y-84899333D01*
X86753927Y-84640659D01*
X86754172Y-84360570D01*
X86647212Y-84101709D01*
X86449333Y-83903484D01*
X86190659Y-83796073D01*
X85910570Y-83795828D01*
X85651709Y-83902788D01*
X85453484Y-84100667D01*
X85346073Y-84359341D01*
X85345828Y-84639430D01*
X84880799Y-84639430D01*
X84881204Y-84176115D01*
X84701787Y-83741891D01*
X84369856Y-83409381D01*
X83935946Y-83229206D01*
X83466115Y-83228796D01*
X83031891Y-83408213D01*
X82699381Y-83740144D01*
X82519206Y-84174054D01*
X82518796Y-84643885D01*
X69640795Y-84643885D01*
X69641204Y-84176115D01*
X69461787Y-83741891D01*
X69129856Y-83409381D01*
X68695946Y-83229206D01*
X68226115Y-83228796D01*
X67791891Y-83408213D01*
X67459381Y-83740144D01*
X67279206Y-84174054D01*
X67278796Y-84643885D01*
X50456000Y-84643885D01*
X50456000Y-82103885D01*
X67278796Y-82103885D01*
X67458213Y-82538109D01*
X67790144Y-82870619D01*
X68224054Y-83050794D01*
X68693885Y-83051204D01*
X69128109Y-82871787D01*
X69460619Y-82539856D01*
X69640794Y-82105946D01*
X69640852Y-82039430D01*
X79235828Y-82039430D01*
X79342788Y-82298291D01*
X79540667Y-82496516D01*
X79799341Y-82603927D01*
X80079430Y-82604172D01*
X80338291Y-82497212D01*
X80536516Y-82299333D01*
X80617673Y-82103885D01*
X82518796Y-82103885D01*
X82698213Y-82538109D01*
X83030144Y-82870619D01*
X83464054Y-83050794D01*
X83933885Y-83051204D01*
X84368109Y-82871787D01*
X84700619Y-82539856D01*
X84880794Y-82105946D01*
X84880982Y-81889430D01*
X90865828Y-81889430D01*
X90972788Y-82148291D01*
X91170667Y-82346516D01*
X91429341Y-82453927D01*
X91709430Y-82454172D01*
X91968291Y-82347212D01*
X92156401Y-82159430D01*
X122495828Y-82159430D01*
X122602788Y-82418291D01*
X122800667Y-82616516D01*
X123059341Y-82723927D01*
X123339430Y-82724172D01*
X123598291Y-82617212D01*
X123796516Y-82419333D01*
X123903927Y-82160659D01*
X123904172Y-81880570D01*
X123797212Y-81621709D01*
X123599333Y-81423484D01*
X123542778Y-81400000D01*
X130181536Y-81400000D01*
X130181536Y-83000000D01*
X130211106Y-83148659D01*
X130295314Y-83274686D01*
X130421341Y-83358894D01*
X130570000Y-83388464D01*
X132170000Y-83388464D01*
X132318659Y-83358894D01*
X132444686Y-83274686D01*
X132528894Y-83148659D01*
X132558464Y-83000000D01*
X132558464Y-81400000D01*
X132528894Y-81251341D01*
X132444686Y-81125314D01*
X132318659Y-81041106D01*
X132170000Y-81011536D01*
X130570000Y-81011536D01*
X130421341Y-81041106D01*
X130295314Y-81125314D01*
X130211106Y-81251341D01*
X130181536Y-81400000D01*
X123542778Y-81400000D01*
X123340659Y-81316073D01*
X123060570Y-81315828D01*
X122801709Y-81422788D01*
X122603484Y-81620667D01*
X122496073Y-81879341D01*
X122495828Y-82159430D01*
X92156401Y-82159430D01*
X92166516Y-82149333D01*
X92273927Y-81890659D01*
X92274172Y-81610570D01*
X92167212Y-81351709D01*
X91969333Y-81153484D01*
X91710659Y-81046073D01*
X91430570Y-81045828D01*
X91171709Y-81152788D01*
X90973484Y-81350667D01*
X90866073Y-81609341D01*
X90865828Y-81889430D01*
X84880982Y-81889430D01*
X84881204Y-81636115D01*
X84701787Y-81201891D01*
X84369856Y-80869381D01*
X83935946Y-80689206D01*
X83466115Y-80688796D01*
X83031891Y-80868213D01*
X82699381Y-81200144D01*
X82519206Y-81634054D01*
X82518796Y-82103885D01*
X80617673Y-82103885D01*
X80643927Y-82040659D01*
X80644172Y-81760570D01*
X80537212Y-81501709D01*
X80339333Y-81303484D01*
X80080659Y-81196073D01*
X79800570Y-81195828D01*
X79541709Y-81302788D01*
X79343484Y-81500667D01*
X79236073Y-81759341D01*
X79235828Y-82039430D01*
X69640852Y-82039430D01*
X69641204Y-81636115D01*
X69461787Y-81201891D01*
X69129856Y-80869381D01*
X68937313Y-80789430D01*
X72445828Y-80789430D01*
X72552788Y-81048291D01*
X72750667Y-81246516D01*
X73009341Y-81353927D01*
X73289430Y-81354172D01*
X73548291Y-81247212D01*
X73746516Y-81049333D01*
X73853927Y-80790659D01*
X73854172Y-80510570D01*
X73747212Y-80251709D01*
X73549333Y-80053484D01*
X73290659Y-79946073D01*
X73010570Y-79945828D01*
X72751709Y-80052788D01*
X72553484Y-80250667D01*
X72446073Y-80509341D01*
X72445828Y-80789430D01*
X68937313Y-80789430D01*
X68695946Y-80689206D01*
X68226115Y-80688796D01*
X67791891Y-80868213D01*
X67459381Y-81200144D01*
X67279206Y-81634054D01*
X67278796Y-82103885D01*
X50456000Y-82103885D01*
X50456000Y-79563885D01*
X67278796Y-79563885D01*
X67458213Y-79998109D01*
X67790144Y-80330619D01*
X68224054Y-80510794D01*
X68693885Y-80511204D01*
X69128109Y-80331787D01*
X69460619Y-79999856D01*
X69640794Y-79565946D01*
X69640930Y-79409430D01*
X70705828Y-79409430D01*
X70812788Y-79668291D01*
X71010667Y-79866516D01*
X71269341Y-79973927D01*
X71549430Y-79974172D01*
X71808291Y-79867212D01*
X72006516Y-79669333D01*
X72050301Y-79563885D01*
X82518796Y-79563885D01*
X82698213Y-79998109D01*
X83030144Y-80330619D01*
X83464054Y-80510794D01*
X83933885Y-80511204D01*
X84368109Y-80331787D01*
X84700619Y-79999856D01*
X84767233Y-79839430D01*
X105425828Y-79839430D01*
X105532788Y-80098291D01*
X105730667Y-80296516D01*
X105989341Y-80403927D01*
X106269430Y-80404172D01*
X106528291Y-80297212D01*
X106608346Y-80217297D01*
X106622787Y-80252247D01*
X106820666Y-80450472D01*
X107079340Y-80557883D01*
X107359429Y-80558128D01*
X107618290Y-80451168D01*
X107816515Y-80253289D01*
X107923926Y-79994615D01*
X107924171Y-79714526D01*
X107921834Y-79708870D01*
X108666748Y-79708870D01*
X108773708Y-79967731D01*
X108971587Y-80165956D01*
X109230261Y-80273367D01*
X109235730Y-80273372D01*
X109235708Y-80298150D01*
X109342668Y-80557011D01*
X109540547Y-80755236D01*
X109799221Y-80862647D01*
X110079310Y-80862892D01*
X110338171Y-80755932D01*
X110536396Y-80558053D01*
X110643807Y-80299379D01*
X110644052Y-80019290D01*
X110537092Y-79760429D01*
X110339213Y-79562204D01*
X110080539Y-79454793D01*
X110075070Y-79454788D01*
X110075070Y-79453689D01*
X130088778Y-79453689D01*
X130283388Y-79924680D01*
X130643425Y-80285345D01*
X131114076Y-80480777D01*
X131623689Y-80481222D01*
X132094680Y-80286612D01*
X132455345Y-79926575D01*
X132650777Y-79455924D01*
X132651222Y-78946311D01*
X132456612Y-78475320D01*
X132096575Y-78114655D01*
X131625924Y-77919223D01*
X131116311Y-77918778D01*
X130645320Y-78113388D01*
X130284655Y-78473425D01*
X130089223Y-78944076D01*
X130088778Y-79453689D01*
X110075070Y-79453689D01*
X110075092Y-79430010D01*
X109968132Y-79171149D01*
X109770253Y-78972924D01*
X109511579Y-78865513D01*
X109231490Y-78865268D01*
X108972629Y-78972228D01*
X108774404Y-79170107D01*
X108666993Y-79428781D01*
X108666748Y-79708870D01*
X107921834Y-79708870D01*
X107817211Y-79455665D01*
X107619332Y-79257440D01*
X107360658Y-79150029D01*
X107080569Y-79149784D01*
X106821708Y-79256744D01*
X106741653Y-79336659D01*
X106727212Y-79301709D01*
X106529333Y-79103484D01*
X106270659Y-78996073D01*
X105990570Y-78995828D01*
X105731709Y-79102788D01*
X105533484Y-79300667D01*
X105426073Y-79559341D01*
X105425828Y-79839430D01*
X84767233Y-79839430D01*
X84880794Y-79565946D01*
X84881204Y-79096115D01*
X84701787Y-78661891D01*
X84379888Y-78339430D01*
X92155828Y-78339430D01*
X92262788Y-78598291D01*
X92460667Y-78796516D01*
X92719341Y-78903927D01*
X92999430Y-78904172D01*
X93258291Y-78797212D01*
X93456516Y-78599333D01*
X93563927Y-78340659D01*
X93564172Y-78060570D01*
X93457212Y-77801709D01*
X93259333Y-77603484D01*
X93000659Y-77496073D01*
X92720570Y-77495828D01*
X92461709Y-77602788D01*
X92263484Y-77800667D01*
X92156073Y-78059341D01*
X92155828Y-78339430D01*
X84379888Y-78339430D01*
X84369856Y-78329381D01*
X83935946Y-78149206D01*
X83466115Y-78148796D01*
X83031891Y-78328213D01*
X82699381Y-78660144D01*
X82519206Y-79094054D01*
X82518796Y-79563885D01*
X72050301Y-79563885D01*
X72113927Y-79410659D01*
X72114172Y-79130570D01*
X72007212Y-78871709D01*
X71910298Y-78774626D01*
X71937392Y-78785876D01*
X72217481Y-78786121D01*
X72476342Y-78679161D01*
X72674567Y-78481282D01*
X72781978Y-78222608D01*
X72782223Y-77942519D01*
X72675263Y-77683658D01*
X72477384Y-77485433D01*
X72218710Y-77378022D01*
X71938621Y-77377777D01*
X71679760Y-77484737D01*
X71481535Y-77682616D01*
X71374124Y-77941290D01*
X71373879Y-78221379D01*
X71480839Y-78480240D01*
X71577753Y-78577323D01*
X71550659Y-78566073D01*
X71270570Y-78565828D01*
X71011709Y-78672788D01*
X70813484Y-78870667D01*
X70706073Y-79129341D01*
X70705828Y-79409430D01*
X69640930Y-79409430D01*
X69641204Y-79096115D01*
X69461787Y-78661891D01*
X69129856Y-78329381D01*
X68695946Y-78149206D01*
X68226115Y-78148796D01*
X67791891Y-78328213D01*
X67459381Y-78660144D01*
X67279206Y-79094054D01*
X67278796Y-79563885D01*
X50456000Y-79563885D01*
X50456000Y-77849430D01*
X63185828Y-77849430D01*
X63292788Y-78108291D01*
X63490667Y-78306516D01*
X63749341Y-78413927D01*
X64029430Y-78414172D01*
X64288291Y-78307212D01*
X64486516Y-78109333D01*
X64593927Y-77850659D01*
X64594172Y-77570570D01*
X64487212Y-77311709D01*
X64289333Y-77113484D01*
X64073555Y-77023885D01*
X67278796Y-77023885D01*
X67458213Y-77458109D01*
X67790144Y-77790619D01*
X68224054Y-77970794D01*
X68693885Y-77971204D01*
X69128109Y-77791787D01*
X69460619Y-77459856D01*
X69640794Y-77025946D01*
X69640795Y-77023885D01*
X82518796Y-77023885D01*
X82698213Y-77458109D01*
X83030144Y-77790619D01*
X83464054Y-77970794D01*
X83933885Y-77971204D01*
X84368109Y-77791787D01*
X84700619Y-77459856D01*
X84858585Y-77079430D01*
X108445828Y-77079430D01*
X108552788Y-77338291D01*
X108750667Y-77536516D01*
X109009341Y-77643927D01*
X109289430Y-77644172D01*
X109548291Y-77537212D01*
X109746516Y-77339333D01*
X109853927Y-77080659D01*
X109854172Y-76800570D01*
X109747212Y-76541709D01*
X109595199Y-76389430D01*
X110125828Y-76389430D01*
X110232788Y-76648291D01*
X110430667Y-76846516D01*
X110689341Y-76953927D01*
X110969430Y-76954172D01*
X111228291Y-76847212D01*
X111426516Y-76649333D01*
X111533927Y-76390659D01*
X111534172Y-76110570D01*
X111427212Y-75851709D01*
X111229333Y-75653484D01*
X110970659Y-75546073D01*
X110690570Y-75545828D01*
X110431709Y-75652788D01*
X110233484Y-75850667D01*
X110126073Y-76109341D01*
X110125828Y-76389430D01*
X109595199Y-76389430D01*
X109549333Y-76343484D01*
X109290659Y-76236073D01*
X109010570Y-76235828D01*
X108751709Y-76342788D01*
X108553484Y-76540667D01*
X108446073Y-76799341D01*
X108445828Y-77079430D01*
X84858585Y-77079430D01*
X84880794Y-77025946D01*
X84881204Y-76556115D01*
X84701787Y-76121891D01*
X84369856Y-75789381D01*
X83935946Y-75609206D01*
X83466115Y-75608796D01*
X83031891Y-75788213D01*
X82699381Y-76120144D01*
X82519206Y-76554054D01*
X82518796Y-77023885D01*
X69640795Y-77023885D01*
X69641204Y-76556115D01*
X69461787Y-76121891D01*
X69129856Y-75789381D01*
X68695946Y-75609206D01*
X68226115Y-75608796D01*
X67791891Y-75788213D01*
X67459381Y-76120144D01*
X67279206Y-76554054D01*
X67278796Y-77023885D01*
X64073555Y-77023885D01*
X64030659Y-77006073D01*
X63750570Y-77005828D01*
X63491709Y-77112788D01*
X63293484Y-77310667D01*
X63186073Y-77569341D01*
X63185828Y-77849430D01*
X50456000Y-77849430D01*
X50456000Y-74483885D01*
X67278796Y-74483885D01*
X67458213Y-74918109D01*
X67790144Y-75250619D01*
X68224054Y-75430794D01*
X68693885Y-75431204D01*
X69128109Y-75251787D01*
X69460619Y-74919856D01*
X69640794Y-74485946D01*
X69641204Y-74016115D01*
X69461787Y-73581891D01*
X69129856Y-73249381D01*
X69105892Y-73239430D01*
X91520828Y-73239430D01*
X91627788Y-73498291D01*
X91825667Y-73696516D01*
X92084341Y-73803927D01*
X92364430Y-73804172D01*
X92623291Y-73697212D01*
X92821516Y-73499333D01*
X92861027Y-73404179D01*
X128378822Y-73404179D01*
X128535451Y-73783251D01*
X128825223Y-74073529D01*
X129204022Y-74230820D01*
X129614179Y-74231178D01*
X129993251Y-74074549D01*
X130283529Y-73784777D01*
X130440820Y-73405978D01*
X130441178Y-72995821D01*
X130284549Y-72616749D01*
X129994777Y-72326471D01*
X129615978Y-72169180D01*
X129205821Y-72168822D01*
X128826749Y-72325451D01*
X128536471Y-72615223D01*
X128379180Y-72994022D01*
X128378822Y-73404179D01*
X92861027Y-73404179D01*
X92928927Y-73240659D01*
X92929172Y-72960570D01*
X92822212Y-72701709D01*
X92660217Y-72539430D01*
X96105828Y-72539430D01*
X96212788Y-72798291D01*
X96410667Y-72996516D01*
X96669341Y-73103927D01*
X96949430Y-73104172D01*
X97208291Y-72997212D01*
X97406516Y-72799333D01*
X97513927Y-72540659D01*
X97514172Y-72260570D01*
X97407212Y-72001709D01*
X97209333Y-71803484D01*
X96950659Y-71696073D01*
X96670570Y-71695828D01*
X96411709Y-71802788D01*
X96213484Y-72000667D01*
X96106073Y-72259341D01*
X96105828Y-72539430D01*
X92660217Y-72539430D01*
X92624333Y-72503484D01*
X92365659Y-72396073D01*
X92085570Y-72395828D01*
X91826709Y-72502788D01*
X91628484Y-72700667D01*
X91521073Y-72959341D01*
X91520828Y-73239430D01*
X69105892Y-73239430D01*
X68695946Y-73069206D01*
X68226115Y-73068796D01*
X67791891Y-73248213D01*
X67459381Y-73580144D01*
X67279206Y-74014054D01*
X67278796Y-74483885D01*
X50456000Y-74483885D01*
X50456000Y-71169430D01*
X52595828Y-71169430D01*
X52702788Y-71428291D01*
X52900667Y-71626516D01*
X53159341Y-71733927D01*
X53439430Y-71734172D01*
X53698291Y-71627212D01*
X53780978Y-71544669D01*
X64928864Y-71544669D01*
X65047514Y-71831823D01*
X65267021Y-72051714D01*
X65553968Y-72170864D01*
X65864669Y-72171136D01*
X66151823Y-72052486D01*
X66260613Y-71943885D01*
X82518796Y-71943885D01*
X82698213Y-72378109D01*
X83030144Y-72710619D01*
X83464054Y-72890794D01*
X83933885Y-72891204D01*
X84368109Y-72711787D01*
X84700619Y-72379856D01*
X84880794Y-71945946D01*
X84881204Y-71476115D01*
X84701787Y-71041891D01*
X84369856Y-70709381D01*
X83935946Y-70529206D01*
X83466115Y-70528796D01*
X83031891Y-70708213D01*
X82699381Y-71040144D01*
X82519206Y-71474054D01*
X82518796Y-71943885D01*
X66260613Y-71943885D01*
X66371714Y-71832979D01*
X66490864Y-71546032D01*
X66491136Y-71235331D01*
X66372486Y-70948177D01*
X66152979Y-70728286D01*
X65866032Y-70609136D01*
X65555331Y-70608864D01*
X65268177Y-70727514D01*
X65048286Y-70947021D01*
X64929136Y-71233968D01*
X64928864Y-71544669D01*
X53780978Y-71544669D01*
X53896516Y-71429333D01*
X54003927Y-71170659D01*
X54004172Y-70890570D01*
X53897212Y-70631709D01*
X53699333Y-70433484D01*
X53440659Y-70326073D01*
X53160570Y-70325828D01*
X52901709Y-70432788D01*
X52703484Y-70630667D01*
X52596073Y-70889341D01*
X52595828Y-71169430D01*
X50456000Y-71169430D01*
X50456000Y-70064430D01*
X91495828Y-70064430D01*
X91602788Y-70323291D01*
X91796549Y-70517391D01*
X91696083Y-70759341D01*
X91695838Y-71039430D01*
X91802798Y-71298291D01*
X92000677Y-71496516D01*
X92259351Y-71603927D01*
X92539440Y-71604172D01*
X92798301Y-71497212D01*
X92881217Y-71414440D01*
X109345828Y-71414440D01*
X109452788Y-71673301D01*
X109650667Y-71871526D01*
X109909341Y-71978937D01*
X110189430Y-71979182D01*
X110448291Y-71872222D01*
X110646516Y-71674343D01*
X110753927Y-71415669D01*
X110753984Y-71349430D01*
X113974828Y-71349430D01*
X114081788Y-71608291D01*
X114279667Y-71806516D01*
X114538341Y-71913927D01*
X114818430Y-71914172D01*
X115077291Y-71807212D01*
X115275516Y-71609333D01*
X115382927Y-71350659D01*
X115383172Y-71070570D01*
X115276212Y-70811709D01*
X115078333Y-70613484D01*
X114819659Y-70506073D01*
X114539570Y-70505828D01*
X114280709Y-70612788D01*
X114082484Y-70810667D01*
X113975073Y-71069341D01*
X113974828Y-71349430D01*
X110753984Y-71349430D01*
X110754172Y-71135580D01*
X110647212Y-70876719D01*
X110449333Y-70678494D01*
X110190659Y-70571083D01*
X109910570Y-70570838D01*
X109651709Y-70677798D01*
X109453484Y-70875677D01*
X109346073Y-71134351D01*
X109345828Y-71414440D01*
X92881217Y-71414440D01*
X92996526Y-71299333D01*
X93103937Y-71040659D01*
X93104182Y-70760570D01*
X93029336Y-70579430D01*
X97725828Y-70579430D01*
X97832788Y-70838291D01*
X98030667Y-71036516D01*
X98289341Y-71143927D01*
X98569430Y-71144172D01*
X98828291Y-71037212D01*
X99026516Y-70839333D01*
X99133927Y-70580659D01*
X99134172Y-70300570D01*
X99027212Y-70041709D01*
X98829333Y-69843484D01*
X98570659Y-69736073D01*
X98290570Y-69735828D01*
X98031709Y-69842788D01*
X97833484Y-70040667D01*
X97726073Y-70299341D01*
X97725828Y-70579430D01*
X93029336Y-70579430D01*
X92997222Y-70501709D01*
X92803461Y-70307609D01*
X92903927Y-70065659D01*
X92904172Y-69785570D01*
X92797212Y-69526709D01*
X92599333Y-69328484D01*
X92340659Y-69221073D01*
X92060570Y-69220828D01*
X91801709Y-69327788D01*
X91603484Y-69525667D01*
X91496073Y-69784341D01*
X91495828Y-70064430D01*
X50456000Y-70064430D01*
X50456000Y-68925681D01*
X69439054Y-68925681D01*
X69546014Y-69184542D01*
X69743893Y-69382767D01*
X70002567Y-69490178D01*
X70282656Y-69490423D01*
X70541517Y-69383463D01*
X70739742Y-69185584D01*
X70757245Y-69143432D01*
X70796036Y-69237313D01*
X70993915Y-69435538D01*
X71252589Y-69542949D01*
X71532678Y-69543194D01*
X71791539Y-69436234D01*
X71989764Y-69238355D01*
X72097175Y-68979681D01*
X72097420Y-68699592D01*
X71990460Y-68440731D01*
X71792581Y-68242506D01*
X71544701Y-68139577D01*
X71544739Y-68095590D01*
X71437779Y-67836729D01*
X71239900Y-67638504D01*
X71013921Y-67544669D01*
X96778864Y-67544669D01*
X96897514Y-67831823D01*
X97117021Y-68051714D01*
X97403968Y-68170864D01*
X97714669Y-68171136D01*
X97763541Y-68150942D01*
X97706073Y-68289341D01*
X97705828Y-68569430D01*
X97812788Y-68828291D01*
X98010667Y-69026516D01*
X98269341Y-69133927D01*
X98549430Y-69134172D01*
X98808291Y-69027212D01*
X98999018Y-68836818D01*
X98946073Y-68964323D01*
X98945828Y-69244412D01*
X99052788Y-69503273D01*
X99250667Y-69701498D01*
X99509341Y-69808909D01*
X99789430Y-69809154D01*
X100048291Y-69702194D01*
X100246516Y-69504315D01*
X100353927Y-69245641D01*
X100354172Y-68965552D01*
X100247212Y-68706691D01*
X100156000Y-68615320D01*
X100156000Y-67920000D01*
X100117483Y-67726362D01*
X100007796Y-67562204D01*
X98700261Y-66254669D01*
X123508864Y-66254669D01*
X123627514Y-66541823D01*
X123847021Y-66761714D01*
X124133968Y-66880864D01*
X124444669Y-66881136D01*
X124731823Y-66762486D01*
X124951714Y-66542979D01*
X125070864Y-66256032D01*
X125071136Y-65945331D01*
X124952486Y-65658177D01*
X124732979Y-65438286D01*
X124446032Y-65319136D01*
X124135331Y-65318864D01*
X123848177Y-65437514D01*
X123628286Y-65657021D01*
X123509136Y-65943968D01*
X123508864Y-66254669D01*
X98700261Y-66254669D01*
X98416000Y-65970408D01*
X98416000Y-65559691D01*
X98506516Y-65469333D01*
X98613927Y-65210659D01*
X98614172Y-64930570D01*
X98507212Y-64671709D01*
X98309333Y-64473484D01*
X98155075Y-64409430D01*
X99975828Y-64409430D01*
X100082788Y-64668291D01*
X100280667Y-64866516D01*
X100539341Y-64973927D01*
X100819430Y-64974172D01*
X101078291Y-64867212D01*
X101276516Y-64669333D01*
X101383927Y-64410659D01*
X101384172Y-64130570D01*
X101277212Y-63871709D01*
X101079333Y-63673484D01*
X100820659Y-63566073D01*
X100540570Y-63565828D01*
X100281709Y-63672788D01*
X100083484Y-63870667D01*
X99976073Y-64129341D01*
X99975828Y-64409430D01*
X98155075Y-64409430D01*
X98050659Y-64366073D01*
X97770570Y-64365828D01*
X97511709Y-64472788D01*
X97313484Y-64670667D01*
X97206073Y-64929341D01*
X97205828Y-65209430D01*
X97312788Y-65468291D01*
X97404000Y-65559662D01*
X97404000Y-66180000D01*
X97442517Y-66373638D01*
X97552204Y-66537796D01*
X97623463Y-66609055D01*
X97405331Y-66608864D01*
X97118177Y-66727514D01*
X96898286Y-66947021D01*
X96779136Y-67233968D01*
X96778864Y-67544669D01*
X71013921Y-67544669D01*
X70981226Y-67531093D01*
X70701137Y-67530848D01*
X70442276Y-67637808D01*
X70244051Y-67835687D01*
X70141690Y-68082200D01*
X70003796Y-68082079D01*
X69744935Y-68189039D01*
X69546710Y-68386918D01*
X69439299Y-68645592D01*
X69439054Y-68925681D01*
X50456000Y-68925681D01*
X50456000Y-65269430D01*
X71585828Y-65269430D01*
X71692788Y-65528291D01*
X71890667Y-65726516D01*
X72149341Y-65833927D01*
X72429430Y-65834172D01*
X72688291Y-65727212D01*
X72886516Y-65529333D01*
X72993927Y-65270659D01*
X72994172Y-64990570D01*
X72887212Y-64731709D01*
X72689333Y-64533484D01*
X72430659Y-64426073D01*
X72150570Y-64425828D01*
X71891709Y-64532788D01*
X71693484Y-64730667D01*
X71586073Y-64989341D01*
X71585828Y-65269430D01*
X50456000Y-65269430D01*
X50456000Y-62597758D01*
X59343696Y-62597758D01*
X59610468Y-63243395D01*
X60104007Y-63737796D01*
X60749178Y-64005694D01*
X61447758Y-64006304D01*
X62093395Y-63739532D01*
X62587796Y-63245993D01*
X62656958Y-63079430D01*
X97405828Y-63079430D01*
X97512788Y-63338291D01*
X97710667Y-63536516D01*
X97969341Y-63643927D01*
X98249430Y-63644172D01*
X98508291Y-63537212D01*
X98706516Y-63339333D01*
X98813927Y-63080659D01*
X98814172Y-62800570D01*
X98730372Y-62597758D01*
X129143696Y-62597758D01*
X129410468Y-63243395D01*
X129904007Y-63737796D01*
X130549178Y-64005694D01*
X131247758Y-64006304D01*
X131893395Y-63739532D01*
X132387796Y-63245993D01*
X132655694Y-62600822D01*
X132656304Y-61902242D01*
X132389532Y-61256605D01*
X131895993Y-60762204D01*
X131250822Y-60494306D01*
X130552242Y-60493696D01*
X129906605Y-60760468D01*
X129412204Y-61254007D01*
X129144306Y-61899178D01*
X129143696Y-62597758D01*
X98730372Y-62597758D01*
X98707212Y-62541709D01*
X98509333Y-62343484D01*
X98250659Y-62236073D01*
X97970570Y-62235828D01*
X97711709Y-62342788D01*
X97513484Y-62540667D01*
X97406073Y-62799341D01*
X97405828Y-63079430D01*
X62656958Y-63079430D01*
X62855694Y-62600822D01*
X62856304Y-61902242D01*
X62589532Y-61256605D01*
X62118419Y-60784669D01*
X64148864Y-60784669D01*
X64267514Y-61071823D01*
X64487021Y-61291714D01*
X64773968Y-61410864D01*
X65084669Y-61411136D01*
X65371823Y-61292486D01*
X65505111Y-61159430D01*
X89475828Y-61159430D01*
X89582788Y-61418291D01*
X89780667Y-61616516D01*
X89933610Y-61680023D01*
X89781709Y-61742788D01*
X89583484Y-61940667D01*
X89476073Y-62199341D01*
X89475828Y-62479430D01*
X89582788Y-62738291D01*
X89780667Y-62936516D01*
X90039341Y-63043927D01*
X90319430Y-63044172D01*
X90578291Y-62937212D01*
X90776516Y-62739333D01*
X90883927Y-62480659D01*
X90884045Y-62346052D01*
X90999341Y-62393927D01*
X91279430Y-62394172D01*
X91538291Y-62287212D01*
X91736516Y-62089333D01*
X91843927Y-61830659D01*
X91844172Y-61550570D01*
X91765194Y-61359430D01*
X95485828Y-61359430D01*
X95592788Y-61618291D01*
X95790667Y-61816516D01*
X96049341Y-61923927D01*
X96329430Y-61924172D01*
X96588291Y-61817212D01*
X96649881Y-61755729D01*
X96650667Y-61756516D01*
X96909341Y-61863927D01*
X97189430Y-61864172D01*
X97448291Y-61757212D01*
X97646516Y-61559333D01*
X97753927Y-61300659D01*
X97754172Y-61020570D01*
X97647212Y-60761709D01*
X97449333Y-60563484D01*
X97190659Y-60456073D01*
X96910570Y-60455828D01*
X96651709Y-60562788D01*
X96590119Y-60624271D01*
X96589333Y-60623484D01*
X96330659Y-60516073D01*
X96050570Y-60515828D01*
X95791709Y-60622788D01*
X95593484Y-60820667D01*
X95486073Y-61079341D01*
X95485828Y-61359430D01*
X91765194Y-61359430D01*
X91737212Y-61291709D01*
X91539333Y-61093484D01*
X91280659Y-60986073D01*
X91000570Y-60985828D01*
X90884038Y-61033978D01*
X90884172Y-60880570D01*
X90777212Y-60621709D01*
X90579333Y-60423484D01*
X90569570Y-60419430D01*
X91895828Y-60419430D01*
X92002788Y-60678291D01*
X92200667Y-60876516D01*
X92459341Y-60983927D01*
X92739430Y-60984172D01*
X92998291Y-60877212D01*
X93196516Y-60679333D01*
X93303927Y-60420659D01*
X93304172Y-60140570D01*
X93197212Y-59881709D01*
X92999333Y-59683484D01*
X92740659Y-59576073D01*
X92460570Y-59575828D01*
X92201709Y-59682788D01*
X92003484Y-59880667D01*
X91896073Y-60139341D01*
X91895828Y-60419430D01*
X90569570Y-60419430D01*
X90320659Y-60316073D01*
X90040570Y-60315828D01*
X89781709Y-60422788D01*
X89583484Y-60620667D01*
X89476073Y-60879341D01*
X89475828Y-61159430D01*
X65505111Y-61159430D01*
X65591714Y-61072979D01*
X65710864Y-60786032D01*
X65711136Y-60475331D01*
X65619991Y-60254743D01*
X87679032Y-60254743D01*
X87797682Y-60541897D01*
X88017189Y-60761788D01*
X88304136Y-60880938D01*
X88614837Y-60881210D01*
X88901991Y-60762560D01*
X89121882Y-60543053D01*
X89241032Y-60256106D01*
X89241304Y-59945405D01*
X89122654Y-59658251D01*
X88903147Y-59438360D01*
X88616200Y-59319210D01*
X88305499Y-59318938D01*
X88018345Y-59437588D01*
X87798454Y-59657095D01*
X87679304Y-59944042D01*
X87679032Y-60254743D01*
X65619991Y-60254743D01*
X65592486Y-60188177D01*
X65372979Y-59968286D01*
X65086032Y-59849136D01*
X64775331Y-59848864D01*
X64488177Y-59967514D01*
X64268286Y-60187021D01*
X64149136Y-60473968D01*
X64148864Y-60784669D01*
X62118419Y-60784669D01*
X62095993Y-60762204D01*
X61450822Y-60494306D01*
X60752242Y-60493696D01*
X60106605Y-60760468D01*
X59612204Y-61254007D01*
X59344306Y-61899178D01*
X59343696Y-62597758D01*
X50456000Y-62597758D01*
X50456000Y-57524669D01*
X97468864Y-57524669D01*
X97587514Y-57811823D01*
X97807021Y-58031714D01*
X98093968Y-58150864D01*
X98404669Y-58151136D01*
X98691823Y-58032486D01*
X98911714Y-57812979D01*
X99030864Y-57526032D01*
X99031018Y-57349430D01*
X103255828Y-57349430D01*
X103362788Y-57608291D01*
X103560667Y-57806516D01*
X103819341Y-57913927D01*
X104099430Y-57914172D01*
X104358291Y-57807212D01*
X104556516Y-57609333D01*
X104663927Y-57350659D01*
X104664172Y-57070570D01*
X104557212Y-56811709D01*
X104359333Y-56613484D01*
X104100659Y-56506073D01*
X103820570Y-56505828D01*
X103561709Y-56612788D01*
X103363484Y-56810667D01*
X103256073Y-57069341D01*
X103255828Y-57349430D01*
X99031018Y-57349430D01*
X99031136Y-57215331D01*
X98912486Y-56928177D01*
X98692979Y-56708286D01*
X98406032Y-56589136D01*
X98095331Y-56588864D01*
X97808177Y-56707514D01*
X97588286Y-56927021D01*
X97469136Y-57213968D01*
X97468864Y-57524669D01*
X50456000Y-57524669D01*
X50456000Y-56229110D01*
X95199670Y-56229110D01*
X95306630Y-56487971D01*
X95504509Y-56686196D01*
X95763183Y-56793607D01*
X95976301Y-56793793D01*
X96036871Y-56940382D01*
X96234750Y-57138607D01*
X96493424Y-57246018D01*
X96773513Y-57246263D01*
X97032374Y-57139303D01*
X97230599Y-56941424D01*
X97338010Y-56682750D01*
X97338255Y-56402661D01*
X97231295Y-56143800D01*
X97033416Y-55945575D01*
X96774742Y-55838164D01*
X96561624Y-55837978D01*
X96501054Y-55691389D01*
X96303175Y-55493164D01*
X96044501Y-55385753D01*
X95764412Y-55385508D01*
X95505551Y-55492468D01*
X95307326Y-55690347D01*
X95199915Y-55949021D01*
X95199670Y-56229110D01*
X50456000Y-56229110D01*
X50456000Y-54424669D01*
X129508864Y-54424669D01*
X129627514Y-54711823D01*
X129847021Y-54931714D01*
X130133968Y-55050864D01*
X130444669Y-55051136D01*
X130731823Y-54932486D01*
X130951714Y-54712979D01*
X131070864Y-54426032D01*
X131071136Y-54115331D01*
X130952486Y-53828177D01*
X130732979Y-53608286D01*
X130446032Y-53489136D01*
X130135331Y-53488864D01*
X129848177Y-53607514D01*
X129628286Y-53827021D01*
X129509136Y-54113968D01*
X129508864Y-54424669D01*
X50456000Y-54424669D01*
X50456000Y-50456000D01*
X141544000Y-50456000D01*
X141544000Y-133293000D01*
X141544000Y-133293000D01*
G37*
X141544000Y-133293000D02*
X130899576Y-133293000D01*
X130822441Y-133177559D01*
X130674504Y-133078711D01*
X130500000Y-133044000D01*
X127000000Y-133044000D01*
X126825496Y-133078711D01*
X126677559Y-133177559D01*
X126578711Y-133325496D01*
X126544000Y-133500000D01*
X126544000Y-141544000D01*
X50456000Y-141544000D01*
X50456000Y-139113787D01*
X71428787Y-139113787D01*
X71615800Y-139566395D01*
X71961784Y-139912983D01*
X72414065Y-140100786D01*
X72903787Y-140101213D01*
X73356395Y-139914200D01*
X73702983Y-139568216D01*
X73890786Y-139115935D01*
X73890787Y-139113787D01*
X80878787Y-139113787D01*
X81065800Y-139566395D01*
X81411784Y-139912983D01*
X81864065Y-140100786D01*
X82353787Y-140101213D01*
X82806395Y-139914200D01*
X83152983Y-139568216D01*
X83340786Y-139115935D01*
X83341213Y-138626213D01*
X83154200Y-138173605D01*
X82808216Y-137827017D01*
X82355935Y-137639214D01*
X81866213Y-137638787D01*
X81413605Y-137825800D01*
X81067017Y-138171784D01*
X80879214Y-138624065D01*
X80878787Y-139113787D01*
X73890787Y-139113787D01*
X73891213Y-138626213D01*
X73704200Y-138173605D01*
X73358216Y-137827017D01*
X72905935Y-137639214D01*
X72416213Y-137638787D01*
X71963605Y-137825800D01*
X71617017Y-138171784D01*
X71429214Y-138624065D01*
X71428787Y-139113787D01*
X50456000Y-139113787D01*
X50456000Y-133054375D01*
X63418839Y-133054375D01*
X63560277Y-133396680D01*
X63821943Y-133658803D01*
X64164000Y-133800838D01*
X64534375Y-133801161D01*
X64876680Y-133659723D01*
X65138803Y-133398057D01*
X65179469Y-133300121D01*
X77546105Y-133300121D01*
X77653065Y-133558982D01*
X77850944Y-133757207D01*
X78109618Y-133864618D01*
X78389707Y-133864863D01*
X78648568Y-133757903D01*
X78846793Y-133560024D01*
X78953498Y-133303050D01*
X84529128Y-133303050D01*
X84636088Y-133561911D01*
X84833967Y-133760136D01*
X85092641Y-133867547D01*
X85372730Y-133867792D01*
X85631591Y-133760832D01*
X85829816Y-133562953D01*
X85937227Y-133304279D01*
X85937281Y-133242755D01*
X85956930Y-133242772D01*
X86215791Y-133135812D01*
X86414016Y-132937933D01*
X86521427Y-132679259D01*
X86521672Y-132399170D01*
X86414712Y-132140309D01*
X86216833Y-131942084D01*
X85958159Y-131834673D01*
X85678070Y-131834428D01*
X85419209Y-131941388D01*
X85220984Y-132139267D01*
X85113573Y-132397941D01*
X85113519Y-132459465D01*
X85093870Y-132459448D01*
X84835009Y-132566408D01*
X84636784Y-132764287D01*
X84529373Y-133022961D01*
X84529128Y-133303050D01*
X78953498Y-133303050D01*
X78954204Y-133301350D01*
X78954449Y-133021261D01*
X78847489Y-132762400D01*
X78649610Y-132564175D01*
X78390936Y-132456764D01*
X78110847Y-132456519D01*
X77851986Y-132563479D01*
X77653761Y-132761358D01*
X77546350Y-133020032D01*
X77546105Y-133300121D01*
X65179469Y-133300121D01*
X65280838Y-133056000D01*
X65281161Y-132685625D01*
X65139723Y-132343320D01*
X64878057Y-132081197D01*
X64536000Y-131939162D01*
X64165625Y-131938839D01*
X63823320Y-132080277D01*
X63561197Y-132341943D01*
X63419162Y-132684000D01*
X63418839Y-133054375D01*
X50456000Y-133054375D01*
X50456000Y-131929818D01*
X76858328Y-131929818D01*
X76965288Y-132188679D01*
X77163167Y-132386904D01*
X77421841Y-132494315D01*
X77701930Y-132494560D01*
X77960791Y-132387600D01*
X78159016Y-132189721D01*
X78266427Y-131931047D01*
X78266672Y-131650958D01*
X78159712Y-131392097D01*
X77961833Y-131193872D01*
X77703159Y-131086461D01*
X77423070Y-131086216D01*
X77164209Y-131193176D01*
X76965984Y-131391055D01*
X76858573Y-131649729D01*
X76858328Y-131929818D01*
X50456000Y-131929818D01*
X50456000Y-129070000D01*
X59221536Y-129070000D01*
X59221536Y-130670000D01*
X59251106Y-130818659D01*
X59335314Y-130944686D01*
X59461341Y-131028894D01*
X59610000Y-131058464D01*
X61210000Y-131058464D01*
X61358659Y-131028894D01*
X61484686Y-130944686D01*
X61568894Y-130818659D01*
X61598464Y-130670000D01*
X61598464Y-130103885D01*
X62228796Y-130103885D01*
X62408213Y-130538109D01*
X62740144Y-130870619D01*
X63174054Y-131050794D01*
X63643885Y-131051204D01*
X64078109Y-130871787D01*
X64410619Y-130539856D01*
X64483688Y-130363885D01*
X67278796Y-130363885D01*
X67458213Y-130798109D01*
X67790144Y-131130619D01*
X68224054Y-131310794D01*
X68693885Y-131311204D01*
X69128109Y-131131787D01*
X69460619Y-130799856D01*
X69640794Y-130365946D01*
X69640795Y-130363885D01*
X82518796Y-130363885D01*
X82698213Y-130798109D01*
X83030144Y-131130619D01*
X83464054Y-131310794D01*
X83933885Y-131311204D01*
X84368109Y-131131787D01*
X84570818Y-130929430D01*
X102445828Y-130929430D01*
X102552788Y-131188291D01*
X102750667Y-131386516D01*
X103009341Y-131493927D01*
X103289430Y-131494172D01*
X103548291Y-131387212D01*
X103746516Y-131189333D01*
X103853927Y-130930659D01*
X103854172Y-130650570D01*
X103747212Y-130391709D01*
X103549333Y-130193484D01*
X103290659Y-130086073D01*
X103010570Y-130085828D01*
X102751709Y-130192788D01*
X102553484Y-130390667D01*
X102446073Y-130649341D01*
X102445828Y-130929430D01*
X84570818Y-130929430D01*
X84700619Y-130799856D01*
X84880794Y-130365946D01*
X84881204Y-129896115D01*
X84701787Y-129461891D01*
X84369856Y-129129381D01*
X83935946Y-128949206D01*
X83466115Y-128948796D01*
X83031891Y-129128213D01*
X82699381Y-129460144D01*
X82519206Y-129894054D01*
X82518796Y-130363885D01*
X69640795Y-130363885D01*
X69641204Y-129896115D01*
X69461787Y-129461891D01*
X69129856Y-129129381D01*
X68695946Y-128949206D01*
X68226115Y-128948796D01*
X67791891Y-129128213D01*
X67459381Y-129460144D01*
X67279206Y-129894054D01*
X67278796Y-130363885D01*
X64483688Y-130363885D01*
X64590794Y-130105946D01*
X64591204Y-129636115D01*
X64411787Y-129201891D01*
X64079856Y-128869381D01*
X63645946Y-128689206D01*
X63176115Y-128688796D01*
X62741891Y-128868213D01*
X62409381Y-129200144D01*
X62229206Y-129634054D01*
X62228796Y-130103885D01*
X61598464Y-130103885D01*
X61598464Y-129070000D01*
X61568894Y-128921341D01*
X61484686Y-128795314D01*
X61358659Y-128711106D01*
X61210000Y-128681536D01*
X59610000Y-128681536D01*
X59461341Y-128711106D01*
X59335314Y-128795314D01*
X59251106Y-128921341D01*
X59221536Y-129070000D01*
X50456000Y-129070000D01*
X50456000Y-127103885D01*
X59228796Y-127103885D01*
X59408213Y-127538109D01*
X59740144Y-127870619D01*
X60174054Y-128050794D01*
X60643885Y-128051204D01*
X61078109Y-127871787D01*
X61126094Y-127823885D01*
X67278796Y-127823885D01*
X67458213Y-128258109D01*
X67790144Y-128590619D01*
X68224054Y-128770794D01*
X68693885Y-128771204D01*
X69128109Y-128591787D01*
X69460619Y-128259856D01*
X69640794Y-127825946D01*
X69640795Y-127823885D01*
X82518796Y-127823885D01*
X82698213Y-128258109D01*
X83030144Y-128590619D01*
X83464054Y-128770794D01*
X83933885Y-128771204D01*
X84368109Y-128591787D01*
X84700619Y-128259856D01*
X84880794Y-127825946D01*
X84881204Y-127356115D01*
X84701787Y-126921891D01*
X84369856Y-126589381D01*
X83935946Y-126409206D01*
X83466115Y-126408796D01*
X83031891Y-126588213D01*
X82699381Y-126920144D01*
X82519206Y-127354054D01*
X82518796Y-127823885D01*
X69640795Y-127823885D01*
X69641204Y-127356115D01*
X69461787Y-126921891D01*
X69129856Y-126589381D01*
X68695946Y-126409206D01*
X68226115Y-126408796D01*
X67791891Y-126588213D01*
X67459381Y-126920144D01*
X67279206Y-127354054D01*
X67278796Y-127823885D01*
X61126094Y-127823885D01*
X61410619Y-127539856D01*
X61590794Y-127105946D01*
X61591204Y-126636115D01*
X61411787Y-126201891D01*
X61079856Y-125869381D01*
X60645946Y-125689206D01*
X60176115Y-125688796D01*
X59741891Y-125868213D01*
X59409381Y-126200144D01*
X59229206Y-126634054D01*
X59228796Y-127103885D01*
X50456000Y-127103885D01*
X50456000Y-125639430D01*
X56185828Y-125639430D01*
X56292788Y-125898291D01*
X56490667Y-126096516D01*
X56749341Y-126203927D01*
X57029430Y-126204172D01*
X57288291Y-126097212D01*
X57486516Y-125899333D01*
X57593927Y-125640659D01*
X57594172Y-125360570D01*
X57562487Y-125283885D01*
X67278796Y-125283885D01*
X67458213Y-125718109D01*
X67790144Y-126050619D01*
X68224054Y-126230794D01*
X68693885Y-126231204D01*
X69128109Y-126051787D01*
X69460619Y-125719856D01*
X69640794Y-125285946D01*
X69640795Y-125283885D01*
X82518796Y-125283885D01*
X82698213Y-125718109D01*
X83030144Y-126050619D01*
X83464054Y-126230794D01*
X83933885Y-126231204D01*
X84368109Y-126051787D01*
X84582413Y-125837856D01*
X96893704Y-125837856D01*
X97152880Y-126465109D01*
X97632367Y-126945433D01*
X98259167Y-127205704D01*
X98937856Y-127206296D01*
X99565109Y-126947120D01*
X99728727Y-126783787D01*
X128078787Y-126783787D01*
X128265800Y-127236395D01*
X128611784Y-127582983D01*
X129064065Y-127770786D01*
X129553787Y-127771213D01*
X130006395Y-127584200D01*
X130352983Y-127238216D01*
X130540786Y-126785935D01*
X130541213Y-126296213D01*
X130354200Y-125843605D01*
X130008216Y-125497017D01*
X129555935Y-125309214D01*
X129066213Y-125308787D01*
X128613605Y-125495800D01*
X128267017Y-125841784D01*
X128079214Y-126294065D01*
X128078787Y-126783787D01*
X99728727Y-126783787D01*
X100045433Y-126467633D01*
X100305704Y-125840833D01*
X100306296Y-125162144D01*
X100047120Y-124534891D01*
X99567633Y-124054567D01*
X98940833Y-123794296D01*
X98262144Y-123793704D01*
X97634891Y-124052880D01*
X97154567Y-124532367D01*
X96894296Y-125159167D01*
X96893704Y-125837856D01*
X84582413Y-125837856D01*
X84700619Y-125719856D01*
X84880794Y-125285946D01*
X84881204Y-124816115D01*
X84701787Y-124381891D01*
X84559575Y-124239430D01*
X84945828Y-124239430D01*
X85052788Y-124498291D01*
X85250667Y-124696516D01*
X85509341Y-124803927D01*
X85789430Y-124804172D01*
X86048291Y-124697212D01*
X86246516Y-124499333D01*
X86353927Y-124240659D01*
X86354172Y-123960570D01*
X86247212Y-123701709D01*
X86049333Y-123503484D01*
X85790659Y-123396073D01*
X85510570Y-123395828D01*
X85251709Y-123502788D01*
X85053484Y-123700667D01*
X84946073Y-123959341D01*
X84945828Y-124239430D01*
X84559575Y-124239430D01*
X84369856Y-124049381D01*
X83935946Y-123869206D01*
X83466115Y-123868796D01*
X83031891Y-124048213D01*
X82699381Y-124380144D01*
X82519206Y-124814054D01*
X82518796Y-125283885D01*
X69640795Y-125283885D01*
X69641204Y-124816115D01*
X69461787Y-124381891D01*
X69129856Y-124049381D01*
X68695946Y-123869206D01*
X68226115Y-123868796D01*
X67791891Y-124048213D01*
X67459381Y-124380144D01*
X67279206Y-124814054D01*
X67278796Y-125283885D01*
X57562487Y-125283885D01*
X57487212Y-125101709D01*
X57289333Y-124903484D01*
X57030659Y-124796073D01*
X56750570Y-124795828D01*
X56491709Y-124902788D01*
X56293484Y-125100667D01*
X56186073Y-125359341D01*
X56185828Y-125639430D01*
X50456000Y-125639430D01*
X50456000Y-124054375D01*
X63478839Y-124054375D01*
X63620277Y-124396680D01*
X63881943Y-124658803D01*
X64224000Y-124800838D01*
X64594375Y-124801161D01*
X64936680Y-124659723D01*
X65198803Y-124398057D01*
X65340838Y-124056000D01*
X65341161Y-123685625D01*
X65199723Y-123343320D01*
X64938057Y-123081197D01*
X64596000Y-122939162D01*
X64225625Y-122938839D01*
X63883320Y-123080277D01*
X63621197Y-123341943D01*
X63479162Y-123684000D01*
X63478839Y-124054375D01*
X50456000Y-124054375D01*
X50456000Y-122743885D01*
X67278796Y-122743885D01*
X67458213Y-123178109D01*
X67790144Y-123510619D01*
X68224054Y-123690794D01*
X68693885Y-123691204D01*
X69128109Y-123511787D01*
X69460619Y-123179856D01*
X69640794Y-122745946D01*
X69640795Y-122743885D01*
X82518796Y-122743885D01*
X82698213Y-123178109D01*
X83030144Y-123510619D01*
X83464054Y-123690794D01*
X83933885Y-123691204D01*
X84368109Y-123511787D01*
X84700619Y-123179856D01*
X84773362Y-123004669D01*
X120208864Y-123004669D01*
X120327514Y-123291823D01*
X120547021Y-123511714D01*
X120833968Y-123630864D01*
X121144669Y-123631136D01*
X121431823Y-123512486D01*
X121651714Y-123292979D01*
X121659316Y-123274669D01*
X135218864Y-123274669D01*
X135337514Y-123561823D01*
X135557021Y-123781714D01*
X135843968Y-123900864D01*
X136154669Y-123901136D01*
X136441823Y-123782486D01*
X136661714Y-123562979D01*
X136780864Y-123276032D01*
X136781136Y-122965331D01*
X136662486Y-122678177D01*
X136442979Y-122458286D01*
X136156032Y-122339136D01*
X135845331Y-122338864D01*
X135558177Y-122457514D01*
X135338286Y-122677021D01*
X135219136Y-122963968D01*
X135218864Y-123274669D01*
X121659316Y-123274669D01*
X121770864Y-123006032D01*
X121771136Y-122695331D01*
X121652486Y-122408177D01*
X121432979Y-122188286D01*
X121146032Y-122069136D01*
X120835331Y-122068864D01*
X120548177Y-122187514D01*
X120328286Y-122407021D01*
X120209136Y-122693968D01*
X120208864Y-123004669D01*
X84773362Y-123004669D01*
X84880794Y-122745946D01*
X84881204Y-122276115D01*
X84701787Y-121841891D01*
X84369856Y-121509381D01*
X83935946Y-121329206D01*
X83466115Y-121328796D01*
X83031891Y-121508213D01*
X82699381Y-121840144D01*
X82519206Y-122274054D01*
X82518796Y-122743885D01*
X69640795Y-122743885D01*
X69641204Y-122276115D01*
X69461787Y-121841891D01*
X69129856Y-121509381D01*
X68695946Y-121329206D01*
X68226115Y-121328796D01*
X67791891Y-121508213D01*
X67459381Y-121840144D01*
X67279206Y-122274054D01*
X67278796Y-122743885D01*
X50456000Y-122743885D01*
X50456000Y-119769430D01*
X65255828Y-119769430D01*
X65362788Y-120028291D01*
X65560667Y-120226516D01*
X65819341Y-120333927D01*
X66099430Y-120334172D01*
X66358291Y-120227212D01*
X66381658Y-120203885D01*
X67278796Y-120203885D01*
X67458213Y-120638109D01*
X67790144Y-120970619D01*
X68224054Y-121150794D01*
X68693885Y-121151204D01*
X69128109Y-120971787D01*
X69460619Y-120639856D01*
X69640794Y-120205946D01*
X69640795Y-120203885D01*
X82518796Y-120203885D01*
X82698213Y-120638109D01*
X83030144Y-120970619D01*
X83464054Y-121150794D01*
X83933885Y-121151204D01*
X84368109Y-120971787D01*
X84700619Y-120639856D01*
X84880794Y-120205946D01*
X84881204Y-119736115D01*
X84847187Y-119653787D01*
X116048787Y-119653787D01*
X116235800Y-120106395D01*
X116581784Y-120452983D01*
X117034065Y-120640786D01*
X117523787Y-120641213D01*
X117976395Y-120454200D01*
X118322983Y-120108216D01*
X118510786Y-119655935D01*
X118511213Y-119166213D01*
X118324200Y-118713605D01*
X117978216Y-118367017D01*
X117525935Y-118179214D01*
X117036213Y-118178787D01*
X116583605Y-118365800D01*
X116237017Y-118711784D01*
X116049214Y-119164065D01*
X116048787Y-119653787D01*
X84847187Y-119653787D01*
X84701787Y-119301891D01*
X84369856Y-118969381D01*
X83935946Y-118789206D01*
X83466115Y-118788796D01*
X83031891Y-118968213D01*
X82699381Y-119300144D01*
X82519206Y-119734054D01*
X82518796Y-120203885D01*
X69640795Y-120203885D01*
X69641204Y-119736115D01*
X69588860Y-119609430D01*
X76035828Y-119609430D01*
X76142788Y-119868291D01*
X76340667Y-120066516D01*
X76599341Y-120173927D01*
X76879430Y-120174172D01*
X77138291Y-120067212D01*
X77336516Y-119869333D01*
X77443927Y-119610659D01*
X77444172Y-119330570D01*
X77337212Y-119071709D01*
X77139333Y-118873484D01*
X76880659Y-118766073D01*
X76600570Y-118765828D01*
X76341709Y-118872788D01*
X76143484Y-119070667D01*
X76036073Y-119329341D01*
X76035828Y-119609430D01*
X69588860Y-119609430D01*
X69461787Y-119301891D01*
X69129856Y-118969381D01*
X68695946Y-118789206D01*
X68226115Y-118788796D01*
X67791891Y-118968213D01*
X67459381Y-119300144D01*
X67279206Y-119734054D01*
X67278796Y-120203885D01*
X66381658Y-120203885D01*
X66556516Y-120029333D01*
X66663927Y-119770659D01*
X66664172Y-119490570D01*
X66557212Y-119231709D01*
X66359333Y-119033484D01*
X66100659Y-118926073D01*
X65820570Y-118925828D01*
X65561709Y-119032788D01*
X65363484Y-119230667D01*
X65256073Y-119489341D01*
X65255828Y-119769430D01*
X50456000Y-119769430D01*
X50456000Y-117663885D01*
X67278796Y-117663885D01*
X67458213Y-118098109D01*
X67790144Y-118430619D01*
X68224054Y-118610794D01*
X68693885Y-118611204D01*
X69128109Y-118431787D01*
X69460619Y-118099856D01*
X69640794Y-117665946D01*
X69640795Y-117663885D01*
X69818796Y-117663885D01*
X69998213Y-118098109D01*
X70330144Y-118430619D01*
X70764054Y-118610794D01*
X71233885Y-118611204D01*
X71668109Y-118431787D01*
X72000619Y-118099856D01*
X72180794Y-117665946D01*
X72180795Y-117663885D01*
X82518796Y-117663885D01*
X82698213Y-118098109D01*
X83030144Y-118430619D01*
X83464054Y-118610794D01*
X83933885Y-118611204D01*
X84368109Y-118431787D01*
X84700619Y-118099856D01*
X84880794Y-117665946D01*
X84881204Y-117196115D01*
X84843055Y-117103787D01*
X127988787Y-117103787D01*
X128175800Y-117556395D01*
X128521784Y-117902983D01*
X128974065Y-118090786D01*
X129463787Y-118091213D01*
X129916395Y-117904200D01*
X130262983Y-117558216D01*
X130450786Y-117105935D01*
X130451213Y-116616213D01*
X130264200Y-116163605D01*
X129918216Y-115817017D01*
X129465935Y-115629214D01*
X128976213Y-115628787D01*
X128523605Y-115815800D01*
X128177017Y-116161784D01*
X127989214Y-116614065D01*
X127988787Y-117103787D01*
X84843055Y-117103787D01*
X84701787Y-116761891D01*
X84369856Y-116429381D01*
X83935946Y-116249206D01*
X83466115Y-116248796D01*
X83031891Y-116428213D01*
X82699381Y-116760144D01*
X82519206Y-117194054D01*
X82518796Y-117663885D01*
X72180795Y-117663885D01*
X72181204Y-117196115D01*
X72001787Y-116761891D01*
X71669856Y-116429381D01*
X71235946Y-116249206D01*
X70766115Y-116248796D01*
X70331891Y-116428213D01*
X69999381Y-116760144D01*
X69819206Y-117194054D01*
X69818796Y-117663885D01*
X69640795Y-117663885D01*
X69641204Y-117196115D01*
X69461787Y-116761891D01*
X69129856Y-116429381D01*
X68695946Y-116249206D01*
X68226115Y-116248796D01*
X67791891Y-116428213D01*
X67459381Y-116760144D01*
X67279206Y-117194054D01*
X67278796Y-117663885D01*
X50456000Y-117663885D01*
X50456000Y-114733787D01*
X62258787Y-114733787D01*
X62445800Y-115186395D01*
X62791784Y-115532983D01*
X63244065Y-115720786D01*
X63733787Y-115721213D01*
X64186395Y-115534200D01*
X64532983Y-115188216D01*
X64559695Y-115123885D01*
X67278796Y-115123885D01*
X67458213Y-115558109D01*
X67790144Y-115890619D01*
X68224054Y-116070794D01*
X68693885Y-116071204D01*
X69128109Y-115891787D01*
X69441010Y-115579430D01*
X79185828Y-115579430D01*
X79292788Y-115838291D01*
X79490667Y-116036516D01*
X79749341Y-116143927D01*
X80029430Y-116144172D01*
X80288291Y-116037212D01*
X80486516Y-115839333D01*
X80593927Y-115580659D01*
X80594172Y-115300570D01*
X80521167Y-115123885D01*
X82518796Y-115123885D01*
X82698213Y-115558109D01*
X83030144Y-115890619D01*
X83464054Y-116070794D01*
X83933885Y-116071204D01*
X84368109Y-115891787D01*
X84700619Y-115559856D01*
X84825366Y-115259430D01*
X109835828Y-115259430D01*
X109942788Y-115518291D01*
X110140667Y-115716516D01*
X110399341Y-115823927D01*
X110679430Y-115824172D01*
X110938291Y-115717212D01*
X111136516Y-115519333D01*
X111243927Y-115260659D01*
X111244172Y-114980570D01*
X111137212Y-114721709D01*
X110939333Y-114523484D01*
X110680659Y-114416073D01*
X110400570Y-114415828D01*
X110141709Y-114522788D01*
X109943484Y-114720667D01*
X109836073Y-114979341D01*
X109835828Y-115259430D01*
X84825366Y-115259430D01*
X84880794Y-115125946D01*
X84881204Y-114656115D01*
X84727727Y-114284669D01*
X122208864Y-114284669D01*
X122327514Y-114571823D01*
X122547021Y-114791714D01*
X122833968Y-114910864D01*
X123144669Y-114911136D01*
X123431823Y-114792486D01*
X123651714Y-114572979D01*
X123770864Y-114286032D01*
X123771136Y-113975331D01*
X123652486Y-113688177D01*
X123432979Y-113468286D01*
X123146032Y-113349136D01*
X122835331Y-113348864D01*
X122548177Y-113467514D01*
X122328286Y-113687021D01*
X122209136Y-113973968D01*
X122208864Y-114284669D01*
X84727727Y-114284669D01*
X84701787Y-114221891D01*
X84369856Y-113889381D01*
X83935946Y-113709206D01*
X83466115Y-113708796D01*
X83031891Y-113888213D01*
X82699381Y-114220144D01*
X82519206Y-114654054D01*
X82518796Y-115123885D01*
X80521167Y-115123885D01*
X80487212Y-115041709D01*
X80289333Y-114843484D01*
X80030659Y-114736073D01*
X79750570Y-114735828D01*
X79491709Y-114842788D01*
X79293484Y-115040667D01*
X79186073Y-115299341D01*
X79185828Y-115579430D01*
X69441010Y-115579430D01*
X69460619Y-115559856D01*
X69640794Y-115125946D01*
X69641204Y-114656115D01*
X69461787Y-114221891D01*
X69129856Y-113889381D01*
X68695946Y-113709206D01*
X68226115Y-113708796D01*
X67791891Y-113888213D01*
X67459381Y-114220144D01*
X67279206Y-114654054D01*
X67278796Y-115123885D01*
X64559695Y-115123885D01*
X64720786Y-114735935D01*
X64721213Y-114246213D01*
X64534200Y-113793605D01*
X64188216Y-113447017D01*
X63735935Y-113259214D01*
X63246213Y-113258787D01*
X62793605Y-113445800D01*
X62447017Y-113791784D01*
X62259214Y-114244065D01*
X62258787Y-114733787D01*
X50456000Y-114733787D01*
X50456000Y-112583885D01*
X67278796Y-112583885D01*
X67458213Y-113018109D01*
X67790144Y-113350619D01*
X68224054Y-113530794D01*
X68693885Y-113531204D01*
X69128109Y-113351787D01*
X69460619Y-113019856D01*
X69640794Y-112585946D01*
X69640795Y-112583885D01*
X82518796Y-112583885D01*
X82698213Y-113018109D01*
X83030144Y-113350619D01*
X83464054Y-113530794D01*
X83933885Y-113531204D01*
X84368109Y-113351787D01*
X84600869Y-113119432D01*
X87678728Y-113119432D01*
X87785688Y-113378293D01*
X87983567Y-113576518D01*
X88242241Y-113683929D01*
X88522330Y-113684174D01*
X88781191Y-113577214D01*
X88979416Y-113379335D01*
X88986892Y-113361330D01*
X92682528Y-113361330D01*
X92789488Y-113620191D01*
X92987367Y-113818416D01*
X93246041Y-113925827D01*
X93526130Y-113926072D01*
X93784991Y-113819112D01*
X93983216Y-113621233D01*
X94090627Y-113362559D01*
X94090728Y-113247030D01*
X97686328Y-113247030D01*
X97793288Y-113505891D01*
X97991167Y-113704116D01*
X98249841Y-113811527D01*
X98529930Y-113811772D01*
X98788791Y-113704812D01*
X98987016Y-113506933D01*
X99094427Y-113248259D01*
X99094672Y-112968170D01*
X98987712Y-112709309D01*
X98789833Y-112511084D01*
X98531159Y-112403673D01*
X98251070Y-112403428D01*
X97992209Y-112510388D01*
X97793984Y-112708267D01*
X97686573Y-112966941D01*
X97686328Y-113247030D01*
X94090728Y-113247030D01*
X94090872Y-113082470D01*
X93983912Y-112823609D01*
X93786033Y-112625384D01*
X93527359Y-112517973D01*
X93247270Y-112517728D01*
X92988409Y-112624688D01*
X92790184Y-112822567D01*
X92682773Y-113081241D01*
X92682528Y-113361330D01*
X88986892Y-113361330D01*
X89086827Y-113120661D01*
X89087072Y-112840572D01*
X88980112Y-112581711D01*
X88782233Y-112383486D01*
X88523559Y-112276075D01*
X88243470Y-112275830D01*
X87984609Y-112382790D01*
X87786384Y-112580669D01*
X87678973Y-112839343D01*
X87678728Y-113119432D01*
X84600869Y-113119432D01*
X84700619Y-113019856D01*
X84880794Y-112585946D01*
X84881204Y-112116115D01*
X84701787Y-111681891D01*
X84669383Y-111649430D01*
X110525828Y-111649430D01*
X110632788Y-111908291D01*
X110830667Y-112106516D01*
X111089341Y-112213927D01*
X111369430Y-112214172D01*
X111628291Y-112107212D01*
X111826516Y-111909333D01*
X111838932Y-111879430D01*
X112305828Y-111879430D01*
X112412788Y-112138291D01*
X112610667Y-112336516D01*
X112869341Y-112443927D01*
X113149430Y-112444172D01*
X113408291Y-112337212D01*
X113606516Y-112139333D01*
X113713927Y-111880659D01*
X113714129Y-111649430D01*
X114605828Y-111649430D01*
X114712788Y-111908291D01*
X114910667Y-112106516D01*
X115169341Y-112213927D01*
X115449430Y-112214172D01*
X115708291Y-112107212D01*
X115906516Y-111909333D01*
X116013927Y-111650659D01*
X116014130Y-111417758D01*
X129073696Y-111417758D01*
X129340468Y-112063395D01*
X129834007Y-112557796D01*
X130479178Y-112825694D01*
X131177758Y-112826304D01*
X131823395Y-112559532D01*
X132317796Y-112065993D01*
X132585694Y-111420822D01*
X132586304Y-110722242D01*
X132319532Y-110076605D01*
X131825993Y-109582204D01*
X131180822Y-109314306D01*
X130482242Y-109313696D01*
X129836605Y-109580468D01*
X129342204Y-110074007D01*
X129074306Y-110719178D01*
X129073696Y-111417758D01*
X116014130Y-111417758D01*
X116014172Y-111370570D01*
X115907212Y-111111709D01*
X115709333Y-110913484D01*
X115450659Y-110806073D01*
X115170570Y-110805828D01*
X114911709Y-110912788D01*
X114713484Y-111110667D01*
X114606073Y-111369341D01*
X114605828Y-111649430D01*
X113714129Y-111649430D01*
X113714172Y-111600570D01*
X113607212Y-111341709D01*
X113409333Y-111143484D01*
X113150659Y-111036073D01*
X112870570Y-111035828D01*
X112611709Y-111142788D01*
X112413484Y-111340667D01*
X112306073Y-111599341D01*
X112305828Y-111879430D01*
X111838932Y-111879430D01*
X111933927Y-111650659D01*
X111934172Y-111370570D01*
X111827212Y-111111709D01*
X111629333Y-110913484D01*
X111370659Y-110806073D01*
X111090570Y-110805828D01*
X110831709Y-110912788D01*
X110633484Y-111110667D01*
X110526073Y-111369341D01*
X110525828Y-111649430D01*
X84669383Y-111649430D01*
X84369856Y-111349381D01*
X83935946Y-111169206D01*
X83466115Y-111168796D01*
X83031891Y-111348213D01*
X82699381Y-111680144D01*
X82519206Y-112114054D01*
X82518796Y-112583885D01*
X69640795Y-112583885D01*
X69641204Y-112116115D01*
X69461787Y-111681891D01*
X69129856Y-111349381D01*
X68792817Y-111209430D01*
X79225828Y-111209430D01*
X79332788Y-111468291D01*
X79530667Y-111666516D01*
X79789341Y-111773927D01*
X80069430Y-111774172D01*
X80328291Y-111667212D01*
X80526516Y-111469333D01*
X80633927Y-111210659D01*
X80633997Y-111130357D01*
X80859339Y-111223927D01*
X81139428Y-111224172D01*
X81398289Y-111117212D01*
X81596514Y-110919333D01*
X81703925Y-110660659D01*
X81704170Y-110380570D01*
X81597210Y-110121709D01*
X81519522Y-110043885D01*
X82518796Y-110043885D01*
X82698213Y-110478109D01*
X83030144Y-110810619D01*
X83464054Y-110990794D01*
X83933885Y-110991204D01*
X84368109Y-110811787D01*
X84700619Y-110479856D01*
X84880794Y-110045946D01*
X84880895Y-109929430D01*
X90565828Y-109929430D01*
X90672788Y-110188291D01*
X90870667Y-110386516D01*
X91129341Y-110493927D01*
X91409430Y-110494172D01*
X91668291Y-110387212D01*
X91866516Y-110189333D01*
X91973927Y-109930659D01*
X91974172Y-109650570D01*
X91867212Y-109391709D01*
X91829357Y-109353787D01*
X116048787Y-109353787D01*
X116235800Y-109806395D01*
X116581784Y-110152983D01*
X117034065Y-110340786D01*
X117523787Y-110341213D01*
X117976395Y-110154200D01*
X118322983Y-109808216D01*
X118510786Y-109355935D01*
X118511213Y-108866213D01*
X118324200Y-108413605D01*
X117978216Y-108067017D01*
X117525935Y-107879214D01*
X117036213Y-107878787D01*
X116583605Y-108065800D01*
X116237017Y-108411784D01*
X116049214Y-108864065D01*
X116048787Y-109353787D01*
X91829357Y-109353787D01*
X91669333Y-109193484D01*
X91410659Y-109086073D01*
X91130570Y-109085828D01*
X90871709Y-109192788D01*
X90673484Y-109390667D01*
X90566073Y-109649341D01*
X90565828Y-109929430D01*
X84880895Y-109929430D01*
X84881204Y-109576115D01*
X84701787Y-109141891D01*
X84369856Y-108809381D01*
X83935946Y-108629206D01*
X83466115Y-108628796D01*
X83031891Y-108808213D01*
X82699381Y-109140144D01*
X82519206Y-109574054D01*
X82518796Y-110043885D01*
X81519522Y-110043885D01*
X81399331Y-109923484D01*
X81140657Y-109816073D01*
X80860568Y-109815828D01*
X80601707Y-109922788D01*
X80403482Y-110120667D01*
X80296071Y-110379341D01*
X80296001Y-110459643D01*
X80070659Y-110366073D01*
X79790570Y-110365828D01*
X79531709Y-110472788D01*
X79333484Y-110670667D01*
X79226073Y-110929341D01*
X79225828Y-111209430D01*
X68792817Y-111209430D01*
X68695946Y-111169206D01*
X68226115Y-111168796D01*
X67791891Y-111348213D01*
X67459381Y-111680144D01*
X67279206Y-112114054D01*
X67278796Y-112583885D01*
X50456000Y-112583885D01*
X50456000Y-110249430D01*
X64525828Y-110249430D01*
X64632788Y-110508291D01*
X64830667Y-110706516D01*
X65089341Y-110813927D01*
X65369430Y-110814172D01*
X65628291Y-110707212D01*
X65826516Y-110509333D01*
X65933927Y-110250659D01*
X65934054Y-110105734D01*
X66083738Y-110043885D01*
X67278796Y-110043885D01*
X67458213Y-110478109D01*
X67790144Y-110810619D01*
X68224054Y-110990794D01*
X68693885Y-110991204D01*
X69128109Y-110811787D01*
X69460619Y-110479856D01*
X69640794Y-110045946D01*
X69641204Y-109576115D01*
X69461787Y-109141891D01*
X69129856Y-108809381D01*
X68695946Y-108629206D01*
X68226115Y-108628796D01*
X67791891Y-108808213D01*
X67459381Y-109140144D01*
X67279206Y-109574054D01*
X67278796Y-110043885D01*
X66083738Y-110043885D01*
X66148291Y-110017212D01*
X66346516Y-109819333D01*
X66453927Y-109560659D01*
X66454172Y-109280570D01*
X66347212Y-109021709D01*
X66149333Y-108823484D01*
X65890659Y-108716073D01*
X65610570Y-108715828D01*
X65351709Y-108822788D01*
X65153484Y-109020667D01*
X65046073Y-109279341D01*
X65045946Y-109424266D01*
X64831709Y-109512788D01*
X64633484Y-109710667D01*
X64526073Y-109969341D01*
X64525828Y-110249430D01*
X50456000Y-110249430D01*
X50456000Y-107503885D01*
X67278796Y-107503885D01*
X67458213Y-107938109D01*
X67790144Y-108270619D01*
X68224054Y-108450794D01*
X68693885Y-108451204D01*
X69128109Y-108271787D01*
X69460619Y-107939856D01*
X69589519Y-107629430D01*
X104085828Y-107629430D01*
X104192788Y-107888291D01*
X104390667Y-108086516D01*
X104649341Y-108193927D01*
X104929430Y-108194172D01*
X105188291Y-108087212D01*
X105386516Y-107889333D01*
X105493927Y-107630659D01*
X105494172Y-107350570D01*
X105387212Y-107091709D01*
X105189333Y-106893484D01*
X104930659Y-106786073D01*
X104650570Y-106785828D01*
X104391709Y-106892788D01*
X104193484Y-107090667D01*
X104086073Y-107349341D01*
X104085828Y-107629430D01*
X69589519Y-107629430D01*
X69640794Y-107505946D01*
X69641204Y-107036115D01*
X69461787Y-106601891D01*
X69129856Y-106269381D01*
X68695946Y-106089206D01*
X68226115Y-106088796D01*
X67791891Y-106268213D01*
X67459381Y-106600144D01*
X67279206Y-107034054D01*
X67278796Y-107503885D01*
X50456000Y-107503885D01*
X50456000Y-105596663D01*
X58280204Y-105596663D01*
X58452025Y-106012503D01*
X58769903Y-106330936D01*
X59185443Y-106503484D01*
X59635383Y-106503876D01*
X60051223Y-106332055D01*
X60369656Y-106014177D01*
X60542204Y-105598637D01*
X60542205Y-105596663D01*
X64280204Y-105596663D01*
X64452025Y-106012503D01*
X64769903Y-106330936D01*
X65185443Y-106503484D01*
X65635383Y-106503876D01*
X66051223Y-106332055D01*
X66369656Y-106014177D01*
X66542204Y-105598637D01*
X66542596Y-105148697D01*
X66466234Y-104963885D01*
X67278796Y-104963885D01*
X67458213Y-105398109D01*
X67790144Y-105730619D01*
X68224054Y-105910794D01*
X68693885Y-105911204D01*
X69128109Y-105731787D01*
X69460619Y-105399856D01*
X69640794Y-104965946D01*
X69640795Y-104963885D01*
X82518796Y-104963885D01*
X82698213Y-105398109D01*
X83030144Y-105730619D01*
X83464054Y-105910794D01*
X83933885Y-105911204D01*
X84215922Y-105794669D01*
X98438864Y-105794669D01*
X98557514Y-106081823D01*
X98777021Y-106301714D01*
X99063968Y-106420864D01*
X99374669Y-106421136D01*
X99661823Y-106302486D01*
X99881714Y-106082979D01*
X100000864Y-105796032D01*
X100000952Y-105694669D01*
X102258864Y-105694669D01*
X102377514Y-105981823D01*
X102597021Y-106201714D01*
X102883968Y-106320864D01*
X103194669Y-106321136D01*
X103481823Y-106202486D01*
X103701714Y-105982979D01*
X103728795Y-105917758D01*
X129073696Y-105917758D01*
X129340468Y-106563395D01*
X129834007Y-107057796D01*
X130479178Y-107325694D01*
X131177758Y-107326304D01*
X131823395Y-107059532D01*
X132317796Y-106565993D01*
X132585694Y-105920822D01*
X132586304Y-105222242D01*
X132319532Y-104576605D01*
X131825993Y-104082204D01*
X131180822Y-103814306D01*
X130482242Y-103813696D01*
X129836605Y-104080468D01*
X129342204Y-104574007D01*
X129074306Y-105219178D01*
X129073696Y-105917758D01*
X103728795Y-105917758D01*
X103820864Y-105696032D01*
X103821136Y-105385331D01*
X103702486Y-105098177D01*
X103559229Y-104954669D01*
X124198864Y-104954669D01*
X124317514Y-105241823D01*
X124537021Y-105461714D01*
X124823968Y-105580864D01*
X125134669Y-105581136D01*
X125421823Y-105462486D01*
X125641714Y-105242979D01*
X125760864Y-104956032D01*
X125761136Y-104645331D01*
X125642486Y-104358177D01*
X125422979Y-104138286D01*
X125136032Y-104019136D01*
X124825331Y-104018864D01*
X124538177Y-104137514D01*
X124318286Y-104357021D01*
X124199136Y-104643968D01*
X124198864Y-104954669D01*
X103559229Y-104954669D01*
X103482979Y-104878286D01*
X103196032Y-104759136D01*
X102885331Y-104758864D01*
X102598177Y-104877514D01*
X102378286Y-105097021D01*
X102259136Y-105383968D01*
X102258864Y-105694669D01*
X100000952Y-105694669D01*
X100001136Y-105485331D01*
X99882486Y-105198177D01*
X99662979Y-104978286D01*
X99376032Y-104859136D01*
X99065331Y-104858864D01*
X98778177Y-104977514D01*
X98558286Y-105197021D01*
X98439136Y-105483968D01*
X98438864Y-105794669D01*
X84215922Y-105794669D01*
X84368109Y-105731787D01*
X84700619Y-105399856D01*
X84880794Y-104965946D01*
X84881204Y-104496115D01*
X84701787Y-104061891D01*
X84694578Y-104054669D01*
X95728864Y-104054669D01*
X95847514Y-104341823D01*
X96067021Y-104561714D01*
X96353968Y-104680864D01*
X96664669Y-104681136D01*
X96951823Y-104562486D01*
X97171714Y-104342979D01*
X97290864Y-104056032D01*
X97290952Y-103954669D01*
X104958864Y-103954669D01*
X105077514Y-104241823D01*
X105297021Y-104461714D01*
X105583968Y-104580864D01*
X105894669Y-104581136D01*
X106181823Y-104462486D01*
X106401714Y-104242979D01*
X106520864Y-103956032D01*
X106521132Y-103649430D01*
X112155828Y-103649430D01*
X112262788Y-103908291D01*
X112460667Y-104106516D01*
X112719341Y-104213927D01*
X112999430Y-104214172D01*
X113258291Y-104107212D01*
X113456516Y-103909333D01*
X113563927Y-103650659D01*
X113564172Y-103370570D01*
X113457212Y-103111709D01*
X113259333Y-102913484D01*
X113000659Y-102806073D01*
X112720570Y-102805828D01*
X112461709Y-102912788D01*
X112263484Y-103110667D01*
X112156073Y-103369341D01*
X112155828Y-103649430D01*
X106521132Y-103649430D01*
X106521136Y-103645331D01*
X106402486Y-103358177D01*
X106182979Y-103138286D01*
X105896032Y-103019136D01*
X105585331Y-103018864D01*
X105298177Y-103137514D01*
X105078286Y-103357021D01*
X104959136Y-103643968D01*
X104958864Y-103954669D01*
X97290952Y-103954669D01*
X97291136Y-103745331D01*
X97172486Y-103458177D01*
X96952979Y-103238286D01*
X96666032Y-103119136D01*
X96355331Y-103118864D01*
X96068177Y-103237514D01*
X95848286Y-103457021D01*
X95729136Y-103743968D01*
X95728864Y-104054669D01*
X84694578Y-104054669D01*
X84369856Y-103729381D01*
X83935946Y-103549206D01*
X83466115Y-103548796D01*
X83031891Y-103728213D01*
X82699381Y-104060144D01*
X82519206Y-104494054D01*
X82518796Y-104963885D01*
X69640795Y-104963885D01*
X69641204Y-104496115D01*
X69461787Y-104061891D01*
X69129856Y-103729381D01*
X68695946Y-103549206D01*
X68226115Y-103548796D01*
X67791891Y-103728213D01*
X67459381Y-104060144D01*
X67279206Y-104494054D01*
X67278796Y-104963885D01*
X66466234Y-104963885D01*
X66370775Y-104732857D01*
X66052897Y-104414424D01*
X65637357Y-104241876D01*
X65187417Y-104241484D01*
X64771577Y-104413305D01*
X64453144Y-104731183D01*
X64280596Y-105146723D01*
X64280204Y-105596663D01*
X60542205Y-105596663D01*
X60542596Y-105148697D01*
X60370775Y-104732857D01*
X60052897Y-104414424D01*
X59637357Y-104241876D01*
X59187417Y-104241484D01*
X58771577Y-104413305D01*
X58453144Y-104731183D01*
X58280596Y-105146723D01*
X58280204Y-105596663D01*
X50456000Y-105596663D01*
X50456000Y-102071908D01*
X60155225Y-102071908D01*
X60308057Y-102441789D01*
X60590803Y-102725028D01*
X60960416Y-102878505D01*
X61360628Y-102878855D01*
X61730509Y-102726023D01*
X62013748Y-102443277D01*
X62167225Y-102073664D01*
X62167226Y-102071908D01*
X62655225Y-102071908D01*
X62808057Y-102441789D01*
X63090803Y-102725028D01*
X63460416Y-102878505D01*
X63860628Y-102878855D01*
X64230509Y-102726023D01*
X64513748Y-102443277D01*
X64667225Y-102073664D01*
X64667575Y-101673452D01*
X64523960Y-101325878D01*
X64526362Y-101327483D01*
X64720000Y-101366000D01*
X67613794Y-101366000D01*
X67459381Y-101520144D01*
X67279206Y-101954054D01*
X67278796Y-102423885D01*
X67458213Y-102858109D01*
X67790144Y-103190619D01*
X68224054Y-103370794D01*
X68693885Y-103371204D01*
X69128109Y-103191787D01*
X69460619Y-102859856D01*
X69640794Y-102425946D01*
X69641204Y-101956115D01*
X69461787Y-101521891D01*
X69414833Y-101474856D01*
X69629341Y-101563927D01*
X69909430Y-101564172D01*
X70168291Y-101457212D01*
X70366516Y-101259333D01*
X70473927Y-101000659D01*
X70474172Y-100720570D01*
X70382799Y-100499430D01*
X75395828Y-100499430D01*
X75502788Y-100758291D01*
X75634253Y-100889986D01*
X75583484Y-100940667D01*
X75476073Y-101199341D01*
X75475828Y-101479430D01*
X75582788Y-101738291D01*
X75672855Y-101828515D01*
X75560763Y-101940411D01*
X75453352Y-102199085D01*
X75453107Y-102479174D01*
X75560067Y-102738035D01*
X75757946Y-102936260D01*
X76016620Y-103043671D01*
X76296709Y-103043916D01*
X76555570Y-102936956D01*
X76753795Y-102739077D01*
X76861206Y-102480403D01*
X76861451Y-102200314D01*
X76754491Y-101941453D01*
X76664424Y-101851229D01*
X76776516Y-101739333D01*
X76830456Y-101609430D01*
X81745828Y-101609430D01*
X81852788Y-101868291D01*
X82050667Y-102066516D01*
X82309341Y-102173927D01*
X82519014Y-102174110D01*
X82518796Y-102423885D01*
X82698213Y-102858109D01*
X83030144Y-103190619D01*
X83464054Y-103370794D01*
X83933885Y-103371204D01*
X84368109Y-103191787D01*
X84700619Y-102859856D01*
X84880794Y-102425946D01*
X84881204Y-101956115D01*
X84701787Y-101521891D01*
X84369856Y-101189381D01*
X83935946Y-101009206D01*
X83466115Y-101008796D01*
X83086096Y-101165816D01*
X83047212Y-101071709D01*
X82849333Y-100873484D01*
X82590659Y-100766073D01*
X82310570Y-100765828D01*
X82051709Y-100872788D01*
X81853484Y-101070667D01*
X81746073Y-101329341D01*
X81745828Y-101609430D01*
X76830456Y-101609430D01*
X76883927Y-101480659D01*
X76884172Y-101200570D01*
X76777212Y-100941709D01*
X76645747Y-100810014D01*
X76696516Y-100759333D01*
X76803927Y-100500659D01*
X76804172Y-100220570D01*
X76697212Y-99961709D01*
X76499333Y-99763484D01*
X76240659Y-99656073D01*
X75960570Y-99655828D01*
X75701709Y-99762788D01*
X75503484Y-99960667D01*
X75396073Y-100219341D01*
X75395828Y-100499430D01*
X70382799Y-100499430D01*
X70367212Y-100461709D01*
X70169333Y-100263484D01*
X69910659Y-100156073D01*
X69630570Y-100155828D01*
X69507637Y-100206623D01*
X69640794Y-99885946D01*
X69641087Y-99549430D01*
X79540818Y-99549430D01*
X79647778Y-99808291D01*
X79845657Y-100006516D01*
X80104331Y-100113927D01*
X80384420Y-100114172D01*
X80643281Y-100007212D01*
X80766823Y-99883885D01*
X82518796Y-99883885D01*
X82698213Y-100318109D01*
X83030144Y-100650619D01*
X83464054Y-100830794D01*
X83933885Y-100831204D01*
X84368109Y-100651787D01*
X84369813Y-100650086D01*
X84422786Y-100778291D01*
X84620665Y-100976516D01*
X84879339Y-101083927D01*
X85159428Y-101084172D01*
X85418289Y-100977212D01*
X85616514Y-100779333D01*
X85723925Y-100520659D01*
X85724004Y-100429430D01*
X92845828Y-100429430D01*
X92952788Y-100688291D01*
X93150667Y-100886516D01*
X93409341Y-100993927D01*
X93689430Y-100994172D01*
X93948291Y-100887212D01*
X94146516Y-100689333D01*
X94253927Y-100430659D01*
X94254037Y-100304669D01*
X116028864Y-100304669D01*
X116147514Y-100591823D01*
X116367021Y-100811714D01*
X116653968Y-100930864D01*
X116964669Y-100931136D01*
X117251823Y-100812486D01*
X117471714Y-100592979D01*
X117590864Y-100306032D01*
X117591136Y-99995331D01*
X117472486Y-99708177D01*
X117252979Y-99488286D01*
X116966032Y-99369136D01*
X116655331Y-99368864D01*
X116368177Y-99487514D01*
X116148286Y-99707021D01*
X116029136Y-99993968D01*
X116028864Y-100304669D01*
X94254037Y-100304669D01*
X94254172Y-100150570D01*
X94147212Y-99891709D01*
X93949333Y-99693484D01*
X93690659Y-99586073D01*
X93410570Y-99585828D01*
X93151709Y-99692788D01*
X92953484Y-99890667D01*
X92846073Y-100149341D01*
X92845828Y-100429430D01*
X85724004Y-100429430D01*
X85724170Y-100240570D01*
X85644638Y-100048089D01*
X85839341Y-100128937D01*
X86119430Y-100129182D01*
X86378291Y-100022222D01*
X86576516Y-99824343D01*
X86683927Y-99565669D01*
X86684172Y-99285580D01*
X86577212Y-99026719D01*
X86458459Y-98907758D01*
X128973696Y-98907758D01*
X129240468Y-99553395D01*
X129734007Y-100047796D01*
X130379178Y-100315694D01*
X131077758Y-100316304D01*
X131723395Y-100049532D01*
X132217796Y-99555993D01*
X132485694Y-98910822D01*
X132486304Y-98212242D01*
X132219532Y-97566605D01*
X131725993Y-97072204D01*
X131080822Y-96804306D01*
X130382242Y-96803696D01*
X129736605Y-97070468D01*
X129242204Y-97564007D01*
X128974306Y-98209178D01*
X128973696Y-98907758D01*
X86458459Y-98907758D01*
X86379333Y-98828494D01*
X86120659Y-98721083D01*
X85840570Y-98720838D01*
X85581709Y-98827798D01*
X85383484Y-99025677D01*
X85276073Y-99284351D01*
X85275828Y-99564440D01*
X85355360Y-99756921D01*
X85160657Y-99676073D01*
X84880977Y-99675828D01*
X84881204Y-99416115D01*
X84701787Y-98981891D01*
X84369856Y-98649381D01*
X83935946Y-98469206D01*
X83466115Y-98468796D01*
X83031891Y-98648213D01*
X82699381Y-98980144D01*
X82519206Y-99414054D01*
X82518796Y-99883885D01*
X80766823Y-99883885D01*
X80841506Y-99809333D01*
X80948917Y-99550659D01*
X80949162Y-99270570D01*
X80842202Y-99011709D01*
X80644323Y-98813484D01*
X80385649Y-98706073D01*
X80105560Y-98705828D01*
X79846699Y-98812788D01*
X79648474Y-99010667D01*
X79541063Y-99269341D01*
X79540818Y-99549430D01*
X69641087Y-99549430D01*
X69641204Y-99416115D01*
X69461787Y-98981891D01*
X69129856Y-98649381D01*
X68695946Y-98469206D01*
X68226115Y-98468796D01*
X67791891Y-98648213D01*
X67459381Y-98980144D01*
X67279206Y-99414054D01*
X67278796Y-99883885D01*
X67458213Y-100318109D01*
X67494042Y-100354000D01*
X65090798Y-100354000D01*
X65007212Y-100151709D01*
X64809333Y-99953484D01*
X64550659Y-99846073D01*
X64270570Y-99845828D01*
X64011709Y-99952788D01*
X63813484Y-100150667D01*
X63706073Y-100409341D01*
X63705828Y-100689430D01*
X63779109Y-100866782D01*
X63462172Y-100866505D01*
X63092291Y-101019337D01*
X62809052Y-101302083D01*
X62655575Y-101671696D01*
X62655225Y-102071908D01*
X62167226Y-102071908D01*
X62167575Y-101673452D01*
X62014743Y-101303571D01*
X61731997Y-101020332D01*
X61362384Y-100866855D01*
X60962172Y-100866505D01*
X60592291Y-101019337D01*
X60309052Y-101302083D01*
X60155575Y-101671696D01*
X60155225Y-102071908D01*
X50456000Y-102071908D01*
X50456000Y-98071908D01*
X60155225Y-98071908D01*
X60308057Y-98441789D01*
X60590803Y-98725028D01*
X60960416Y-98878505D01*
X61360628Y-98878855D01*
X61730509Y-98726023D01*
X62013748Y-98443277D01*
X62167225Y-98073664D01*
X62167226Y-98071908D01*
X62655225Y-98071908D01*
X62808057Y-98441789D01*
X63090803Y-98725028D01*
X63460416Y-98878505D01*
X63860628Y-98878855D01*
X64230509Y-98726023D01*
X64513748Y-98443277D01*
X64667225Y-98073664D01*
X64667575Y-97673452D01*
X64531401Y-97343885D01*
X67278796Y-97343885D01*
X67458213Y-97778109D01*
X67790144Y-98110619D01*
X68224054Y-98290794D01*
X68693885Y-98291204D01*
X69128109Y-98111787D01*
X69460619Y-97779856D01*
X69640794Y-97345946D01*
X69640795Y-97343885D01*
X82518796Y-97343885D01*
X82698213Y-97778109D01*
X83030144Y-98110619D01*
X83464054Y-98290794D01*
X83933885Y-98291204D01*
X84368109Y-98111787D01*
X84700619Y-97779856D01*
X84880794Y-97345946D01*
X84881201Y-96879428D01*
X86975828Y-96879428D01*
X87082788Y-97138289D01*
X87280667Y-97336514D01*
X87539341Y-97443925D01*
X87819430Y-97444170D01*
X88078291Y-97337210D01*
X88276516Y-97139331D01*
X88383927Y-96880657D01*
X88384172Y-96600568D01*
X88277212Y-96341707D01*
X88079333Y-96143482D01*
X87949157Y-96089428D01*
X108145828Y-96089428D01*
X108252788Y-96348289D01*
X108450667Y-96546514D01*
X108709341Y-96653925D01*
X108989430Y-96654170D01*
X109248291Y-96547210D01*
X109446516Y-96349331D01*
X109553927Y-96090657D01*
X109554172Y-95810568D01*
X109447212Y-95551707D01*
X109249333Y-95353482D01*
X108990659Y-95246071D01*
X108710570Y-95245826D01*
X108451709Y-95352786D01*
X108253484Y-95550665D01*
X108146073Y-95809339D01*
X108145828Y-96089428D01*
X87949157Y-96089428D01*
X87820659Y-96036071D01*
X87540570Y-96035826D01*
X87281709Y-96142786D01*
X87083484Y-96340665D01*
X86976073Y-96599339D01*
X86975828Y-96879428D01*
X84881201Y-96879428D01*
X84881204Y-96876115D01*
X84701787Y-96441891D01*
X84369856Y-96109381D01*
X83935946Y-95929206D01*
X83466115Y-95928796D01*
X83031891Y-96108213D01*
X82699381Y-96440144D01*
X82519206Y-96874054D01*
X82518796Y-97343885D01*
X69640795Y-97343885D01*
X69641204Y-96876115D01*
X69461787Y-96441891D01*
X69129856Y-96109381D01*
X68695946Y-95929206D01*
X68226115Y-95928796D01*
X67791891Y-96108213D01*
X67459381Y-96440144D01*
X67279206Y-96874054D01*
X67278796Y-97343885D01*
X64531401Y-97343885D01*
X64514743Y-97303571D01*
X64231997Y-97020332D01*
X63862384Y-96866855D01*
X63462172Y-96866505D01*
X63092291Y-97019337D01*
X62809052Y-97302083D01*
X62655575Y-97671696D01*
X62655225Y-98071908D01*
X62167226Y-98071908D01*
X62167575Y-97673452D01*
X62014743Y-97303571D01*
X61731997Y-97020332D01*
X61362384Y-96866855D01*
X60962172Y-96866505D01*
X60592291Y-97019337D01*
X60309052Y-97302083D01*
X60155575Y-97671696D01*
X60155225Y-98071908D01*
X50456000Y-98071908D01*
X50456000Y-95964669D01*
X57028864Y-95964669D01*
X57147514Y-96251823D01*
X57367021Y-96471714D01*
X57653968Y-96590864D01*
X57964669Y-96591136D01*
X58251823Y-96472486D01*
X58471714Y-96252979D01*
X58590864Y-95966032D01*
X58591136Y-95655331D01*
X58472486Y-95368177D01*
X58252979Y-95148286D01*
X57966032Y-95029136D01*
X57655331Y-95028864D01*
X57368177Y-95147514D01*
X57148286Y-95367021D01*
X57029136Y-95653968D01*
X57028864Y-95964669D01*
X50456000Y-95964669D01*
X50456000Y-94071908D01*
X62655225Y-94071908D01*
X62808057Y-94441789D01*
X63090803Y-94725028D01*
X63460416Y-94878505D01*
X63860628Y-94878855D01*
X64042068Y-94803885D01*
X67278796Y-94803885D01*
X67458213Y-95238109D01*
X67790144Y-95570619D01*
X68224054Y-95750794D01*
X68693885Y-95751204D01*
X69128109Y-95571787D01*
X69460619Y-95239856D01*
X69640794Y-94805946D01*
X69640795Y-94803885D01*
X82518796Y-94803885D01*
X82698213Y-95238109D01*
X83030144Y-95570619D01*
X83464054Y-95750794D01*
X83933885Y-95751204D01*
X84368109Y-95571787D01*
X84700619Y-95239856D01*
X84880794Y-94805946D01*
X84881204Y-94336115D01*
X84701787Y-93901891D01*
X84369856Y-93569381D01*
X83935946Y-93389206D01*
X83466115Y-93388796D01*
X83031891Y-93568213D01*
X82699381Y-93900144D01*
X82519206Y-94334054D01*
X82518796Y-94803885D01*
X69640795Y-94803885D01*
X69641204Y-94336115D01*
X69461787Y-93901891D01*
X69199784Y-93639430D01*
X79455828Y-93639430D01*
X79562788Y-93898291D01*
X79760667Y-94096516D01*
X80019341Y-94203927D01*
X80299430Y-94204172D01*
X80558291Y-94097212D01*
X80756516Y-93899333D01*
X80863927Y-93640659D01*
X80864172Y-93360570D01*
X80757212Y-93101709D01*
X80559333Y-92903484D01*
X80300659Y-92796073D01*
X80020570Y-92795828D01*
X79761709Y-92902788D01*
X79563484Y-93100667D01*
X79456073Y-93359341D01*
X79455828Y-93639430D01*
X69199784Y-93639430D01*
X69129856Y-93569381D01*
X68695946Y-93389206D01*
X68226115Y-93388796D01*
X67791891Y-93568213D01*
X67459381Y-93900144D01*
X67279206Y-94334054D01*
X67278796Y-94803885D01*
X64042068Y-94803885D01*
X64230509Y-94726023D01*
X64513748Y-94443277D01*
X64667225Y-94073664D01*
X64667575Y-93673452D01*
X64514743Y-93303571D01*
X64231997Y-93020332D01*
X63862384Y-92866855D01*
X63462172Y-92866505D01*
X63092291Y-93019337D01*
X62809052Y-93302083D01*
X62655575Y-93671696D01*
X62655225Y-94071908D01*
X50456000Y-94071908D01*
X50456000Y-92263885D01*
X67278796Y-92263885D01*
X67458213Y-92698109D01*
X67790144Y-93030619D01*
X68224054Y-93210794D01*
X68693885Y-93211204D01*
X69128109Y-93031787D01*
X69460619Y-92699856D01*
X69640794Y-92265946D01*
X69641201Y-91799430D01*
X71255828Y-91799430D01*
X71362788Y-92058291D01*
X71560667Y-92256516D01*
X71819341Y-92363927D01*
X72099430Y-92364172D01*
X72342141Y-92263885D01*
X82518796Y-92263885D01*
X82698213Y-92698109D01*
X83030144Y-93030619D01*
X83464054Y-93210794D01*
X83933885Y-93211204D01*
X84368109Y-93031787D01*
X84700619Y-92699856D01*
X84880794Y-92265946D01*
X84881204Y-91796115D01*
X84701787Y-91361891D01*
X84669383Y-91329430D01*
X85495828Y-91329430D01*
X85602788Y-91588291D01*
X85800667Y-91786516D01*
X86059341Y-91893927D01*
X86339430Y-91894172D01*
X86598291Y-91787212D01*
X86796516Y-91589333D01*
X86900284Y-91339430D01*
X92705828Y-91339430D01*
X92812788Y-91598291D01*
X93010667Y-91796516D01*
X93269341Y-91903927D01*
X93398448Y-91904040D01*
X96527760Y-95033352D01*
X96527649Y-95160773D01*
X96634609Y-95419634D01*
X96832488Y-95617859D01*
X97091162Y-95725270D01*
X97371251Y-95725515D01*
X97630112Y-95618555D01*
X97726857Y-95521979D01*
X97901861Y-95594647D01*
X98181950Y-95594892D01*
X98440811Y-95487932D01*
X98639036Y-95290053D01*
X98746447Y-95031379D01*
X98746692Y-94751290D01*
X98639732Y-94492429D01*
X98441853Y-94294204D01*
X98322560Y-94244669D01*
X112398864Y-94244669D01*
X112517514Y-94531823D01*
X112737021Y-94751714D01*
X113023968Y-94870864D01*
X113334669Y-94871136D01*
X113621823Y-94752486D01*
X113841714Y-94532979D01*
X113960864Y-94246032D01*
X113961136Y-93935331D01*
X113842486Y-93648177D01*
X113622979Y-93428286D01*
X113573542Y-93407758D01*
X128973696Y-93407758D01*
X129240468Y-94053395D01*
X129734007Y-94547796D01*
X130379178Y-94815694D01*
X131077758Y-94816304D01*
X131723395Y-94549532D01*
X132217796Y-94055993D01*
X132485694Y-93410822D01*
X132486304Y-92712242D01*
X132219532Y-92066605D01*
X131725993Y-91572204D01*
X131080822Y-91304306D01*
X130382242Y-91303696D01*
X129736605Y-91570468D01*
X129242204Y-92064007D01*
X128974306Y-92709178D01*
X128973696Y-93407758D01*
X113573542Y-93407758D01*
X113336032Y-93309136D01*
X113025331Y-93308864D01*
X112738177Y-93427514D01*
X112518286Y-93647021D01*
X112399136Y-93933968D01*
X112398864Y-94244669D01*
X98322560Y-94244669D01*
X98183179Y-94186793D01*
X98054072Y-94186680D01*
X96476842Y-92609450D01*
X100055828Y-92609450D01*
X100162788Y-92868311D01*
X100360667Y-93066536D01*
X100619341Y-93173947D01*
X100899430Y-93174192D01*
X101158291Y-93067232D01*
X101356516Y-92869353D01*
X101463927Y-92610679D01*
X101464172Y-92330590D01*
X101357212Y-92071729D01*
X101170479Y-91884669D01*
X121478864Y-91884669D01*
X121597514Y-92171823D01*
X121817021Y-92391714D01*
X122103968Y-92510864D01*
X122414669Y-92511136D01*
X122701823Y-92392486D01*
X122921714Y-92172979D01*
X123040864Y-91886032D01*
X123041136Y-91575331D01*
X122922486Y-91288177D01*
X122702979Y-91068286D01*
X122416032Y-90949136D01*
X122105331Y-90948864D01*
X121818177Y-91067514D01*
X121598286Y-91287021D01*
X121479136Y-91573968D01*
X121478864Y-91884669D01*
X101170479Y-91884669D01*
X101159333Y-91873504D01*
X100900659Y-91766093D01*
X100620570Y-91765848D01*
X100361709Y-91872808D01*
X100163484Y-92070687D01*
X100056073Y-92329361D01*
X100055828Y-92609450D01*
X96476842Y-92609450D01*
X94755385Y-90887993D01*
X94798289Y-90784669D01*
X114558864Y-90784669D01*
X114677514Y-91071823D01*
X114897021Y-91291714D01*
X115183968Y-91410864D01*
X115494669Y-91411136D01*
X115781823Y-91292486D01*
X116001714Y-91072979D01*
X116120864Y-90786032D01*
X116121136Y-90475331D01*
X116002486Y-90188177D01*
X115782979Y-89968286D01*
X115496032Y-89849136D01*
X115185331Y-89848864D01*
X114898177Y-89967514D01*
X114678286Y-90187021D01*
X114559136Y-90473968D01*
X114558864Y-90784669D01*
X94798289Y-90784669D01*
X94853927Y-90650679D01*
X94854172Y-90370590D01*
X94747212Y-90111729D01*
X94549333Y-89913504D01*
X94290659Y-89806093D01*
X94010570Y-89805848D01*
X93751709Y-89912808D01*
X93553484Y-90110687D01*
X93446073Y-90369361D01*
X93445962Y-90495981D01*
X93270570Y-90495828D01*
X93011709Y-90602788D01*
X92813484Y-90800667D01*
X92706073Y-91059341D01*
X92705828Y-91339430D01*
X86900284Y-91339430D01*
X86903927Y-91330659D01*
X86904172Y-91050570D01*
X86797212Y-90791709D01*
X86599333Y-90593484D01*
X86340659Y-90486073D01*
X86060570Y-90485828D01*
X85801709Y-90592788D01*
X85603484Y-90790667D01*
X85496073Y-91049341D01*
X85495828Y-91329430D01*
X84669383Y-91329430D01*
X84369856Y-91029381D01*
X83935946Y-90849206D01*
X83466115Y-90848796D01*
X83031891Y-91028213D01*
X82699381Y-91360144D01*
X82519206Y-91794054D01*
X82518796Y-92263885D01*
X72342141Y-92263885D01*
X72358291Y-92257212D01*
X72556516Y-92059333D01*
X72663927Y-91800659D01*
X72664172Y-91520570D01*
X72557212Y-91261709D01*
X72524826Y-91229266D01*
X72624340Y-91129926D01*
X72731751Y-90871252D01*
X72731996Y-90591163D01*
X72625036Y-90332302D01*
X72427157Y-90134077D01*
X72168483Y-90026666D01*
X71888394Y-90026421D01*
X71629533Y-90133381D01*
X71431308Y-90331260D01*
X71323897Y-90589934D01*
X71323652Y-90870023D01*
X71430612Y-91128884D01*
X71462998Y-91161327D01*
X71363484Y-91260667D01*
X71256073Y-91519341D01*
X71255828Y-91799430D01*
X69641201Y-91799430D01*
X69641204Y-91796115D01*
X69461787Y-91361891D01*
X69129856Y-91029381D01*
X68695946Y-90849206D01*
X68226115Y-90848796D01*
X67791891Y-91028213D01*
X67459381Y-91360144D01*
X67279206Y-91794054D01*
X67278796Y-92263885D01*
X50456000Y-92263885D01*
X50456000Y-90596663D01*
X58280204Y-90596663D01*
X58452025Y-91012503D01*
X58769903Y-91330936D01*
X59185443Y-91503484D01*
X59635383Y-91503876D01*
X60051223Y-91332055D01*
X60369656Y-91014177D01*
X60542204Y-90598637D01*
X60542205Y-90596663D01*
X64280204Y-90596663D01*
X64452025Y-91012503D01*
X64769903Y-91330936D01*
X65185443Y-91503484D01*
X65635383Y-91503876D01*
X66051223Y-91332055D01*
X66369656Y-91014177D01*
X66542204Y-90598637D01*
X66542596Y-90148697D01*
X66370775Y-89732857D01*
X66361819Y-89723885D01*
X67278796Y-89723885D01*
X67458213Y-90158109D01*
X67790144Y-90490619D01*
X68224054Y-90670794D01*
X68693885Y-90671204D01*
X69128109Y-90491787D01*
X69285885Y-90334286D01*
X69285828Y-90399430D01*
X69392788Y-90658291D01*
X69590667Y-90856516D01*
X69849341Y-90963927D01*
X70129430Y-90964172D01*
X70388291Y-90857212D01*
X70586516Y-90659333D01*
X70693927Y-90400659D01*
X70694172Y-90120570D01*
X70587212Y-89861709D01*
X70389333Y-89663484D01*
X70130659Y-89556073D01*
X69850570Y-89555828D01*
X69640867Y-89642476D01*
X69641204Y-89256115D01*
X69461787Y-88821891D01*
X69429383Y-88789430D01*
X75070797Y-88789430D01*
X75177757Y-89048291D01*
X75342905Y-89213728D01*
X75178453Y-89377893D01*
X75071042Y-89636567D01*
X75070797Y-89916656D01*
X75177757Y-90175517D01*
X75375636Y-90373742D01*
X75634310Y-90481153D01*
X75914399Y-90481398D01*
X76173260Y-90374438D01*
X76371485Y-90176559D01*
X76478896Y-89917885D01*
X76479065Y-89723885D01*
X82518796Y-89723885D01*
X82698213Y-90158109D01*
X83030144Y-90490619D01*
X83464054Y-90670794D01*
X83933885Y-90671204D01*
X84368109Y-90491787D01*
X84700619Y-90159856D01*
X84880794Y-89725946D01*
X84881204Y-89256115D01*
X84701787Y-88821891D01*
X84369856Y-88489381D01*
X83935946Y-88309206D01*
X83466115Y-88308796D01*
X83031891Y-88488213D01*
X82699381Y-88820144D01*
X82519206Y-89254054D01*
X82518796Y-89723885D01*
X76479065Y-89723885D01*
X76479141Y-89637796D01*
X76372181Y-89378935D01*
X76207033Y-89213498D01*
X76371485Y-89049333D01*
X76478896Y-88790659D01*
X76479141Y-88510570D01*
X76372181Y-88251709D01*
X76174302Y-88053484D01*
X75971878Y-87969430D01*
X79335828Y-87969430D01*
X79442788Y-88228291D01*
X79640667Y-88426516D01*
X79899341Y-88533927D01*
X80179430Y-88534172D01*
X80438291Y-88427212D01*
X80636516Y-88229333D01*
X80743927Y-87970659D01*
X80744172Y-87690570D01*
X80637212Y-87431709D01*
X80439333Y-87233484D01*
X80319886Y-87183885D01*
X82518796Y-87183885D01*
X82698213Y-87618109D01*
X83030144Y-87950619D01*
X83464054Y-88130794D01*
X83933885Y-88131204D01*
X84167518Y-88034669D01*
X95578864Y-88034669D01*
X95697514Y-88321823D01*
X95917021Y-88541714D01*
X96203968Y-88660864D01*
X96514669Y-88661136D01*
X96801823Y-88542486D01*
X97021714Y-88322979D01*
X97140864Y-88036032D01*
X97141136Y-87725331D01*
X97022486Y-87438177D01*
X96802979Y-87218286D01*
X96516032Y-87099136D01*
X96205331Y-87098864D01*
X95918177Y-87217514D01*
X95698286Y-87437021D01*
X95579136Y-87723968D01*
X95578864Y-88034669D01*
X84167518Y-88034669D01*
X84368109Y-87951787D01*
X84700619Y-87619856D01*
X84880794Y-87185946D01*
X84881204Y-86716115D01*
X84701787Y-86281891D01*
X84369856Y-85949381D01*
X83935946Y-85769206D01*
X83466115Y-85768796D01*
X83031891Y-85948213D01*
X82699381Y-86280144D01*
X82519206Y-86714054D01*
X82518796Y-87183885D01*
X80319886Y-87183885D01*
X80180659Y-87126073D01*
X79900570Y-87125828D01*
X79641709Y-87232788D01*
X79443484Y-87430667D01*
X79336073Y-87689341D01*
X79335828Y-87969430D01*
X75971878Y-87969430D01*
X75915628Y-87946073D01*
X75635539Y-87945828D01*
X75376678Y-88052788D01*
X75178453Y-88250667D01*
X75071042Y-88509341D01*
X75070797Y-88789430D01*
X69429383Y-88789430D01*
X69129856Y-88489381D01*
X68695946Y-88309206D01*
X68226115Y-88308796D01*
X67791891Y-88488213D01*
X67459381Y-88820144D01*
X67279206Y-89254054D01*
X67278796Y-89723885D01*
X66361819Y-89723885D01*
X66052897Y-89414424D01*
X65637357Y-89241876D01*
X65187417Y-89241484D01*
X64771577Y-89413305D01*
X64453144Y-89731183D01*
X64280596Y-90146723D01*
X64280204Y-90596663D01*
X60542205Y-90596663D01*
X60542596Y-90148697D01*
X60370775Y-89732857D01*
X60052897Y-89414424D01*
X59637357Y-89241876D01*
X59187417Y-89241484D01*
X58771577Y-89413305D01*
X58453144Y-89731183D01*
X58280596Y-90146723D01*
X58280204Y-90596663D01*
X50456000Y-90596663D01*
X50456000Y-87183885D01*
X67278796Y-87183885D01*
X67458213Y-87618109D01*
X67790144Y-87950619D01*
X68224054Y-88130794D01*
X68693885Y-88131204D01*
X69128109Y-87951787D01*
X69400886Y-87679485D01*
X69412788Y-87708291D01*
X69610667Y-87906516D01*
X69869341Y-88013927D01*
X70149430Y-88014172D01*
X70408291Y-87907212D01*
X70606516Y-87709333D01*
X70713927Y-87450659D01*
X70714105Y-87247283D01*
X70895504Y-87247442D01*
X71154365Y-87140482D01*
X71352590Y-86942603D01*
X71460001Y-86683929D01*
X71460246Y-86403840D01*
X71353286Y-86144979D01*
X71155407Y-85946754D01*
X70896733Y-85839343D01*
X70616644Y-85839098D01*
X70357783Y-85946058D01*
X70159558Y-86143937D01*
X70052147Y-86402611D01*
X70051969Y-86605987D01*
X69870570Y-86605828D01*
X69635729Y-86702863D01*
X69461787Y-86281891D01*
X69129856Y-85949381D01*
X68695946Y-85769206D01*
X68226115Y-85768796D01*
X67791891Y-85948213D01*
X67459381Y-86280144D01*
X67279206Y-86714054D01*
X67278796Y-87183885D01*
X50456000Y-87183885D01*
X50456000Y-85744669D01*
X64928864Y-85744669D01*
X65047514Y-86031823D01*
X65267021Y-86251714D01*
X65553968Y-86370864D01*
X65864669Y-86371136D01*
X66151823Y-86252486D01*
X66371714Y-86032979D01*
X66490864Y-85746032D01*
X66491136Y-85435331D01*
X66372486Y-85148177D01*
X66152979Y-84928286D01*
X65866032Y-84809136D01*
X65555331Y-84808864D01*
X65268177Y-84927514D01*
X65048286Y-85147021D01*
X64929136Y-85433968D01*
X64928864Y-85744669D01*
X50456000Y-85744669D01*
X50456000Y-84643885D01*
X67278796Y-84643885D01*
X67458213Y-85078109D01*
X67790144Y-85410619D01*
X68224054Y-85590794D01*
X68693885Y-85591204D01*
X69128109Y-85411787D01*
X69460619Y-85079856D01*
X69640794Y-84645946D01*
X69640795Y-84643885D01*
X82518796Y-84643885D01*
X82698213Y-85078109D01*
X83030144Y-85410619D01*
X83464054Y-85590794D01*
X83933885Y-85591204D01*
X84368109Y-85411787D01*
X84570816Y-85209432D01*
X109225828Y-85209432D01*
X109332788Y-85468293D01*
X109530667Y-85666518D01*
X109789341Y-85773929D01*
X110069430Y-85774174D01*
X110328291Y-85667214D01*
X110526516Y-85469335D01*
X110553571Y-85404179D01*
X128378822Y-85404179D01*
X128535451Y-85783251D01*
X128825223Y-86073529D01*
X129204022Y-86230820D01*
X129614179Y-86231178D01*
X129993251Y-86074549D01*
X130283529Y-85784777D01*
X130440820Y-85405978D01*
X130441178Y-84995821D01*
X130284549Y-84616749D01*
X129994777Y-84326471D01*
X129615978Y-84169180D01*
X129205821Y-84168822D01*
X128826749Y-84325451D01*
X128536471Y-84615223D01*
X128379180Y-84994022D01*
X128378822Y-85404179D01*
X110553571Y-85404179D01*
X110633927Y-85210661D01*
X110634172Y-84930572D01*
X110527212Y-84671711D01*
X110329333Y-84473486D01*
X110070659Y-84366075D01*
X109790570Y-84365830D01*
X109531709Y-84472790D01*
X109333484Y-84670669D01*
X109226073Y-84929343D01*
X109225828Y-85209432D01*
X84570816Y-85209432D01*
X84700619Y-85079856D01*
X84880794Y-84645946D01*
X84880799Y-84639430D01*
X85345828Y-84639430D01*
X85452788Y-84898291D01*
X85650667Y-85096516D01*
X85909341Y-85203927D01*
X86189430Y-85204172D01*
X86448291Y-85097212D01*
X86646516Y-84899333D01*
X86753927Y-84640659D01*
X86754172Y-84360570D01*
X86647212Y-84101709D01*
X86449333Y-83903484D01*
X86190659Y-83796073D01*
X85910570Y-83795828D01*
X85651709Y-83902788D01*
X85453484Y-84100667D01*
X85346073Y-84359341D01*
X85345828Y-84639430D01*
X84880799Y-84639430D01*
X84881204Y-84176115D01*
X84701787Y-83741891D01*
X84369856Y-83409381D01*
X83935946Y-83229206D01*
X83466115Y-83228796D01*
X83031891Y-83408213D01*
X82699381Y-83740144D01*
X82519206Y-84174054D01*
X82518796Y-84643885D01*
X69640795Y-84643885D01*
X69641204Y-84176115D01*
X69461787Y-83741891D01*
X69129856Y-83409381D01*
X68695946Y-83229206D01*
X68226115Y-83228796D01*
X67791891Y-83408213D01*
X67459381Y-83740144D01*
X67279206Y-84174054D01*
X67278796Y-84643885D01*
X50456000Y-84643885D01*
X50456000Y-82103885D01*
X67278796Y-82103885D01*
X67458213Y-82538109D01*
X67790144Y-82870619D01*
X68224054Y-83050794D01*
X68693885Y-83051204D01*
X69128109Y-82871787D01*
X69460619Y-82539856D01*
X69640794Y-82105946D01*
X69640852Y-82039430D01*
X79235828Y-82039430D01*
X79342788Y-82298291D01*
X79540667Y-82496516D01*
X79799341Y-82603927D01*
X80079430Y-82604172D01*
X80338291Y-82497212D01*
X80536516Y-82299333D01*
X80617673Y-82103885D01*
X82518796Y-82103885D01*
X82698213Y-82538109D01*
X83030144Y-82870619D01*
X83464054Y-83050794D01*
X83933885Y-83051204D01*
X84368109Y-82871787D01*
X84700619Y-82539856D01*
X84880794Y-82105946D01*
X84880982Y-81889430D01*
X90865828Y-81889430D01*
X90972788Y-82148291D01*
X91170667Y-82346516D01*
X91429341Y-82453927D01*
X91709430Y-82454172D01*
X91968291Y-82347212D01*
X92156401Y-82159430D01*
X122495828Y-82159430D01*
X122602788Y-82418291D01*
X122800667Y-82616516D01*
X123059341Y-82723927D01*
X123339430Y-82724172D01*
X123598291Y-82617212D01*
X123796516Y-82419333D01*
X123903927Y-82160659D01*
X123904172Y-81880570D01*
X123797212Y-81621709D01*
X123599333Y-81423484D01*
X123542778Y-81400000D01*
X130181536Y-81400000D01*
X130181536Y-83000000D01*
X130211106Y-83148659D01*
X130295314Y-83274686D01*
X130421341Y-83358894D01*
X130570000Y-83388464D01*
X132170000Y-83388464D01*
X132318659Y-83358894D01*
X132444686Y-83274686D01*
X132528894Y-83148659D01*
X132558464Y-83000000D01*
X132558464Y-81400000D01*
X132528894Y-81251341D01*
X132444686Y-81125314D01*
X132318659Y-81041106D01*
X132170000Y-81011536D01*
X130570000Y-81011536D01*
X130421341Y-81041106D01*
X130295314Y-81125314D01*
X130211106Y-81251341D01*
X130181536Y-81400000D01*
X123542778Y-81400000D01*
X123340659Y-81316073D01*
X123060570Y-81315828D01*
X122801709Y-81422788D01*
X122603484Y-81620667D01*
X122496073Y-81879341D01*
X122495828Y-82159430D01*
X92156401Y-82159430D01*
X92166516Y-82149333D01*
X92273927Y-81890659D01*
X92274172Y-81610570D01*
X92167212Y-81351709D01*
X91969333Y-81153484D01*
X91710659Y-81046073D01*
X91430570Y-81045828D01*
X91171709Y-81152788D01*
X90973484Y-81350667D01*
X90866073Y-81609341D01*
X90865828Y-81889430D01*
X84880982Y-81889430D01*
X84881204Y-81636115D01*
X84701787Y-81201891D01*
X84369856Y-80869381D01*
X83935946Y-80689206D01*
X83466115Y-80688796D01*
X83031891Y-80868213D01*
X82699381Y-81200144D01*
X82519206Y-81634054D01*
X82518796Y-82103885D01*
X80617673Y-82103885D01*
X80643927Y-82040659D01*
X80644172Y-81760570D01*
X80537212Y-81501709D01*
X80339333Y-81303484D01*
X80080659Y-81196073D01*
X79800570Y-81195828D01*
X79541709Y-81302788D01*
X79343484Y-81500667D01*
X79236073Y-81759341D01*
X79235828Y-82039430D01*
X69640852Y-82039430D01*
X69641204Y-81636115D01*
X69461787Y-81201891D01*
X69129856Y-80869381D01*
X68937313Y-80789430D01*
X72445828Y-80789430D01*
X72552788Y-81048291D01*
X72750667Y-81246516D01*
X73009341Y-81353927D01*
X73289430Y-81354172D01*
X73548291Y-81247212D01*
X73746516Y-81049333D01*
X73853927Y-80790659D01*
X73854172Y-80510570D01*
X73747212Y-80251709D01*
X73549333Y-80053484D01*
X73290659Y-79946073D01*
X73010570Y-79945828D01*
X72751709Y-80052788D01*
X72553484Y-80250667D01*
X72446073Y-80509341D01*
X72445828Y-80789430D01*
X68937313Y-80789430D01*
X68695946Y-80689206D01*
X68226115Y-80688796D01*
X67791891Y-80868213D01*
X67459381Y-81200144D01*
X67279206Y-81634054D01*
X67278796Y-82103885D01*
X50456000Y-82103885D01*
X50456000Y-79563885D01*
X67278796Y-79563885D01*
X67458213Y-79998109D01*
X67790144Y-80330619D01*
X68224054Y-80510794D01*
X68693885Y-80511204D01*
X69128109Y-80331787D01*
X69460619Y-79999856D01*
X69640794Y-79565946D01*
X69640930Y-79409430D01*
X70705828Y-79409430D01*
X70812788Y-79668291D01*
X71010667Y-79866516D01*
X71269341Y-79973927D01*
X71549430Y-79974172D01*
X71808291Y-79867212D01*
X72006516Y-79669333D01*
X72050301Y-79563885D01*
X82518796Y-79563885D01*
X82698213Y-79998109D01*
X83030144Y-80330619D01*
X83464054Y-80510794D01*
X83933885Y-80511204D01*
X84368109Y-80331787D01*
X84700619Y-79999856D01*
X84767233Y-79839430D01*
X105425828Y-79839430D01*
X105532788Y-80098291D01*
X105730667Y-80296516D01*
X105989341Y-80403927D01*
X106269430Y-80404172D01*
X106528291Y-80297212D01*
X106608346Y-80217297D01*
X106622787Y-80252247D01*
X106820666Y-80450472D01*
X107079340Y-80557883D01*
X107359429Y-80558128D01*
X107618290Y-80451168D01*
X107816515Y-80253289D01*
X107923926Y-79994615D01*
X107924171Y-79714526D01*
X107921834Y-79708870D01*
X108666748Y-79708870D01*
X108773708Y-79967731D01*
X108971587Y-80165956D01*
X109230261Y-80273367D01*
X109235730Y-80273372D01*
X109235708Y-80298150D01*
X109342668Y-80557011D01*
X109540547Y-80755236D01*
X109799221Y-80862647D01*
X110079310Y-80862892D01*
X110338171Y-80755932D01*
X110536396Y-80558053D01*
X110643807Y-80299379D01*
X110644052Y-80019290D01*
X110537092Y-79760429D01*
X110339213Y-79562204D01*
X110080539Y-79454793D01*
X110075070Y-79454788D01*
X110075070Y-79453689D01*
X130088778Y-79453689D01*
X130283388Y-79924680D01*
X130643425Y-80285345D01*
X131114076Y-80480777D01*
X131623689Y-80481222D01*
X132094680Y-80286612D01*
X132455345Y-79926575D01*
X132650777Y-79455924D01*
X132651222Y-78946311D01*
X132456612Y-78475320D01*
X132096575Y-78114655D01*
X131625924Y-77919223D01*
X131116311Y-77918778D01*
X130645320Y-78113388D01*
X130284655Y-78473425D01*
X130089223Y-78944076D01*
X130088778Y-79453689D01*
X110075070Y-79453689D01*
X110075092Y-79430010D01*
X109968132Y-79171149D01*
X109770253Y-78972924D01*
X109511579Y-78865513D01*
X109231490Y-78865268D01*
X108972629Y-78972228D01*
X108774404Y-79170107D01*
X108666993Y-79428781D01*
X108666748Y-79708870D01*
X107921834Y-79708870D01*
X107817211Y-79455665D01*
X107619332Y-79257440D01*
X107360658Y-79150029D01*
X107080569Y-79149784D01*
X106821708Y-79256744D01*
X106741653Y-79336659D01*
X106727212Y-79301709D01*
X106529333Y-79103484D01*
X106270659Y-78996073D01*
X105990570Y-78995828D01*
X105731709Y-79102788D01*
X105533484Y-79300667D01*
X105426073Y-79559341D01*
X105425828Y-79839430D01*
X84767233Y-79839430D01*
X84880794Y-79565946D01*
X84881204Y-79096115D01*
X84701787Y-78661891D01*
X84379888Y-78339430D01*
X92155828Y-78339430D01*
X92262788Y-78598291D01*
X92460667Y-78796516D01*
X92719341Y-78903927D01*
X92999430Y-78904172D01*
X93258291Y-78797212D01*
X93456516Y-78599333D01*
X93563927Y-78340659D01*
X93564172Y-78060570D01*
X93457212Y-77801709D01*
X93259333Y-77603484D01*
X93000659Y-77496073D01*
X92720570Y-77495828D01*
X92461709Y-77602788D01*
X92263484Y-77800667D01*
X92156073Y-78059341D01*
X92155828Y-78339430D01*
X84379888Y-78339430D01*
X84369856Y-78329381D01*
X83935946Y-78149206D01*
X83466115Y-78148796D01*
X83031891Y-78328213D01*
X82699381Y-78660144D01*
X82519206Y-79094054D01*
X82518796Y-79563885D01*
X72050301Y-79563885D01*
X72113927Y-79410659D01*
X72114172Y-79130570D01*
X72007212Y-78871709D01*
X71910298Y-78774626D01*
X71937392Y-78785876D01*
X72217481Y-78786121D01*
X72476342Y-78679161D01*
X72674567Y-78481282D01*
X72781978Y-78222608D01*
X72782223Y-77942519D01*
X72675263Y-77683658D01*
X72477384Y-77485433D01*
X72218710Y-77378022D01*
X71938621Y-77377777D01*
X71679760Y-77484737D01*
X71481535Y-77682616D01*
X71374124Y-77941290D01*
X71373879Y-78221379D01*
X71480839Y-78480240D01*
X71577753Y-78577323D01*
X71550659Y-78566073D01*
X71270570Y-78565828D01*
X71011709Y-78672788D01*
X70813484Y-78870667D01*
X70706073Y-79129341D01*
X70705828Y-79409430D01*
X69640930Y-79409430D01*
X69641204Y-79096115D01*
X69461787Y-78661891D01*
X69129856Y-78329381D01*
X68695946Y-78149206D01*
X68226115Y-78148796D01*
X67791891Y-78328213D01*
X67459381Y-78660144D01*
X67279206Y-79094054D01*
X67278796Y-79563885D01*
X50456000Y-79563885D01*
X50456000Y-77849430D01*
X63185828Y-77849430D01*
X63292788Y-78108291D01*
X63490667Y-78306516D01*
X63749341Y-78413927D01*
X64029430Y-78414172D01*
X64288291Y-78307212D01*
X64486516Y-78109333D01*
X64593927Y-77850659D01*
X64594172Y-77570570D01*
X64487212Y-77311709D01*
X64289333Y-77113484D01*
X64073555Y-77023885D01*
X67278796Y-77023885D01*
X67458213Y-77458109D01*
X67790144Y-77790619D01*
X68224054Y-77970794D01*
X68693885Y-77971204D01*
X69128109Y-77791787D01*
X69460619Y-77459856D01*
X69640794Y-77025946D01*
X69640795Y-77023885D01*
X82518796Y-77023885D01*
X82698213Y-77458109D01*
X83030144Y-77790619D01*
X83464054Y-77970794D01*
X83933885Y-77971204D01*
X84368109Y-77791787D01*
X84700619Y-77459856D01*
X84858585Y-77079430D01*
X108445828Y-77079430D01*
X108552788Y-77338291D01*
X108750667Y-77536516D01*
X109009341Y-77643927D01*
X109289430Y-77644172D01*
X109548291Y-77537212D01*
X109746516Y-77339333D01*
X109853927Y-77080659D01*
X109854172Y-76800570D01*
X109747212Y-76541709D01*
X109595199Y-76389430D01*
X110125828Y-76389430D01*
X110232788Y-76648291D01*
X110430667Y-76846516D01*
X110689341Y-76953927D01*
X110969430Y-76954172D01*
X111228291Y-76847212D01*
X111426516Y-76649333D01*
X111533927Y-76390659D01*
X111534172Y-76110570D01*
X111427212Y-75851709D01*
X111229333Y-75653484D01*
X110970659Y-75546073D01*
X110690570Y-75545828D01*
X110431709Y-75652788D01*
X110233484Y-75850667D01*
X110126073Y-76109341D01*
X110125828Y-76389430D01*
X109595199Y-76389430D01*
X109549333Y-76343484D01*
X109290659Y-76236073D01*
X109010570Y-76235828D01*
X108751709Y-76342788D01*
X108553484Y-76540667D01*
X108446073Y-76799341D01*
X108445828Y-77079430D01*
X84858585Y-77079430D01*
X84880794Y-77025946D01*
X84881204Y-76556115D01*
X84701787Y-76121891D01*
X84369856Y-75789381D01*
X83935946Y-75609206D01*
X83466115Y-75608796D01*
X83031891Y-75788213D01*
X82699381Y-76120144D01*
X82519206Y-76554054D01*
X82518796Y-77023885D01*
X69640795Y-77023885D01*
X69641204Y-76556115D01*
X69461787Y-76121891D01*
X69129856Y-75789381D01*
X68695946Y-75609206D01*
X68226115Y-75608796D01*
X67791891Y-75788213D01*
X67459381Y-76120144D01*
X67279206Y-76554054D01*
X67278796Y-77023885D01*
X64073555Y-77023885D01*
X64030659Y-77006073D01*
X63750570Y-77005828D01*
X63491709Y-77112788D01*
X63293484Y-77310667D01*
X63186073Y-77569341D01*
X63185828Y-77849430D01*
X50456000Y-77849430D01*
X50456000Y-74483885D01*
X67278796Y-74483885D01*
X67458213Y-74918109D01*
X67790144Y-75250619D01*
X68224054Y-75430794D01*
X68693885Y-75431204D01*
X69128109Y-75251787D01*
X69460619Y-74919856D01*
X69640794Y-74485946D01*
X69641204Y-74016115D01*
X69461787Y-73581891D01*
X69129856Y-73249381D01*
X69105892Y-73239430D01*
X91520828Y-73239430D01*
X91627788Y-73498291D01*
X91825667Y-73696516D01*
X92084341Y-73803927D01*
X92364430Y-73804172D01*
X92623291Y-73697212D01*
X92821516Y-73499333D01*
X92861027Y-73404179D01*
X128378822Y-73404179D01*
X128535451Y-73783251D01*
X128825223Y-74073529D01*
X129204022Y-74230820D01*
X129614179Y-74231178D01*
X129993251Y-74074549D01*
X130283529Y-73784777D01*
X130440820Y-73405978D01*
X130441178Y-72995821D01*
X130284549Y-72616749D01*
X129994777Y-72326471D01*
X129615978Y-72169180D01*
X129205821Y-72168822D01*
X128826749Y-72325451D01*
X128536471Y-72615223D01*
X128379180Y-72994022D01*
X128378822Y-73404179D01*
X92861027Y-73404179D01*
X92928927Y-73240659D01*
X92929172Y-72960570D01*
X92822212Y-72701709D01*
X92660217Y-72539430D01*
X96105828Y-72539430D01*
X96212788Y-72798291D01*
X96410667Y-72996516D01*
X96669341Y-73103927D01*
X96949430Y-73104172D01*
X97208291Y-72997212D01*
X97406516Y-72799333D01*
X97513927Y-72540659D01*
X97514172Y-72260570D01*
X97407212Y-72001709D01*
X97209333Y-71803484D01*
X96950659Y-71696073D01*
X96670570Y-71695828D01*
X96411709Y-71802788D01*
X96213484Y-72000667D01*
X96106073Y-72259341D01*
X96105828Y-72539430D01*
X92660217Y-72539430D01*
X92624333Y-72503484D01*
X92365659Y-72396073D01*
X92085570Y-72395828D01*
X91826709Y-72502788D01*
X91628484Y-72700667D01*
X91521073Y-72959341D01*
X91520828Y-73239430D01*
X69105892Y-73239430D01*
X68695946Y-73069206D01*
X68226115Y-73068796D01*
X67791891Y-73248213D01*
X67459381Y-73580144D01*
X67279206Y-74014054D01*
X67278796Y-74483885D01*
X50456000Y-74483885D01*
X50456000Y-71169430D01*
X52595828Y-71169430D01*
X52702788Y-71428291D01*
X52900667Y-71626516D01*
X53159341Y-71733927D01*
X53439430Y-71734172D01*
X53698291Y-71627212D01*
X53780978Y-71544669D01*
X64928864Y-71544669D01*
X65047514Y-71831823D01*
X65267021Y-72051714D01*
X65553968Y-72170864D01*
X65864669Y-72171136D01*
X66151823Y-72052486D01*
X66260613Y-71943885D01*
X82518796Y-71943885D01*
X82698213Y-72378109D01*
X83030144Y-72710619D01*
X83464054Y-72890794D01*
X83933885Y-72891204D01*
X84368109Y-72711787D01*
X84700619Y-72379856D01*
X84880794Y-71945946D01*
X84881204Y-71476115D01*
X84701787Y-71041891D01*
X84369856Y-70709381D01*
X83935946Y-70529206D01*
X83466115Y-70528796D01*
X83031891Y-70708213D01*
X82699381Y-71040144D01*
X82519206Y-71474054D01*
X82518796Y-71943885D01*
X66260613Y-71943885D01*
X66371714Y-71832979D01*
X66490864Y-71546032D01*
X66491136Y-71235331D01*
X66372486Y-70948177D01*
X66152979Y-70728286D01*
X65866032Y-70609136D01*
X65555331Y-70608864D01*
X65268177Y-70727514D01*
X65048286Y-70947021D01*
X64929136Y-71233968D01*
X64928864Y-71544669D01*
X53780978Y-71544669D01*
X53896516Y-71429333D01*
X54003927Y-71170659D01*
X54004172Y-70890570D01*
X53897212Y-70631709D01*
X53699333Y-70433484D01*
X53440659Y-70326073D01*
X53160570Y-70325828D01*
X52901709Y-70432788D01*
X52703484Y-70630667D01*
X52596073Y-70889341D01*
X52595828Y-71169430D01*
X50456000Y-71169430D01*
X50456000Y-70064430D01*
X91495828Y-70064430D01*
X91602788Y-70323291D01*
X91796549Y-70517391D01*
X91696083Y-70759341D01*
X91695838Y-71039430D01*
X91802798Y-71298291D01*
X92000677Y-71496516D01*
X92259351Y-71603927D01*
X92539440Y-71604172D01*
X92798301Y-71497212D01*
X92881217Y-71414440D01*
X109345828Y-71414440D01*
X109452788Y-71673301D01*
X109650667Y-71871526D01*
X109909341Y-71978937D01*
X110189430Y-71979182D01*
X110448291Y-71872222D01*
X110646516Y-71674343D01*
X110753927Y-71415669D01*
X110753984Y-71349430D01*
X113974828Y-71349430D01*
X114081788Y-71608291D01*
X114279667Y-71806516D01*
X114538341Y-71913927D01*
X114818430Y-71914172D01*
X115077291Y-71807212D01*
X115275516Y-71609333D01*
X115382927Y-71350659D01*
X115383172Y-71070570D01*
X115276212Y-70811709D01*
X115078333Y-70613484D01*
X114819659Y-70506073D01*
X114539570Y-70505828D01*
X114280709Y-70612788D01*
X114082484Y-70810667D01*
X113975073Y-71069341D01*
X113974828Y-71349430D01*
X110753984Y-71349430D01*
X110754172Y-71135580D01*
X110647212Y-70876719D01*
X110449333Y-70678494D01*
X110190659Y-70571083D01*
X109910570Y-70570838D01*
X109651709Y-70677798D01*
X109453484Y-70875677D01*
X109346073Y-71134351D01*
X109345828Y-71414440D01*
X92881217Y-71414440D01*
X92996526Y-71299333D01*
X93103937Y-71040659D01*
X93104182Y-70760570D01*
X93029336Y-70579430D01*
X97725828Y-70579430D01*
X97832788Y-70838291D01*
X98030667Y-71036516D01*
X98289341Y-71143927D01*
X98569430Y-71144172D01*
X98828291Y-71037212D01*
X99026516Y-70839333D01*
X99133927Y-70580659D01*
X99134172Y-70300570D01*
X99027212Y-70041709D01*
X98829333Y-69843484D01*
X98570659Y-69736073D01*
X98290570Y-69735828D01*
X98031709Y-69842788D01*
X97833484Y-70040667D01*
X97726073Y-70299341D01*
X97725828Y-70579430D01*
X93029336Y-70579430D01*
X92997222Y-70501709D01*
X92803461Y-70307609D01*
X92903927Y-70065659D01*
X92904172Y-69785570D01*
X92797212Y-69526709D01*
X92599333Y-69328484D01*
X92340659Y-69221073D01*
X92060570Y-69220828D01*
X91801709Y-69327788D01*
X91603484Y-69525667D01*
X91496073Y-69784341D01*
X91495828Y-70064430D01*
X50456000Y-70064430D01*
X50456000Y-68925681D01*
X69439054Y-68925681D01*
X69546014Y-69184542D01*
X69743893Y-69382767D01*
X70002567Y-69490178D01*
X70282656Y-69490423D01*
X70541517Y-69383463D01*
X70739742Y-69185584D01*
X70757245Y-69143432D01*
X70796036Y-69237313D01*
X70993915Y-69435538D01*
X71252589Y-69542949D01*
X71532678Y-69543194D01*
X71791539Y-69436234D01*
X71989764Y-69238355D01*
X72097175Y-68979681D01*
X72097420Y-68699592D01*
X71990460Y-68440731D01*
X71792581Y-68242506D01*
X71544701Y-68139577D01*
X71544739Y-68095590D01*
X71437779Y-67836729D01*
X71239900Y-67638504D01*
X71013921Y-67544669D01*
X96778864Y-67544669D01*
X96897514Y-67831823D01*
X97117021Y-68051714D01*
X97403968Y-68170864D01*
X97714669Y-68171136D01*
X97763541Y-68150942D01*
X97706073Y-68289341D01*
X97705828Y-68569430D01*
X97812788Y-68828291D01*
X98010667Y-69026516D01*
X98269341Y-69133927D01*
X98549430Y-69134172D01*
X98808291Y-69027212D01*
X98999018Y-68836818D01*
X98946073Y-68964323D01*
X98945828Y-69244412D01*
X99052788Y-69503273D01*
X99250667Y-69701498D01*
X99509341Y-69808909D01*
X99789430Y-69809154D01*
X100048291Y-69702194D01*
X100246516Y-69504315D01*
X100353927Y-69245641D01*
X100354172Y-68965552D01*
X100247212Y-68706691D01*
X100156000Y-68615320D01*
X100156000Y-67920000D01*
X100117483Y-67726362D01*
X100007796Y-67562204D01*
X98700261Y-66254669D01*
X123508864Y-66254669D01*
X123627514Y-66541823D01*
X123847021Y-66761714D01*
X124133968Y-66880864D01*
X124444669Y-66881136D01*
X124731823Y-66762486D01*
X124951714Y-66542979D01*
X125070864Y-66256032D01*
X125071136Y-65945331D01*
X124952486Y-65658177D01*
X124732979Y-65438286D01*
X124446032Y-65319136D01*
X124135331Y-65318864D01*
X123848177Y-65437514D01*
X123628286Y-65657021D01*
X123509136Y-65943968D01*
X123508864Y-66254669D01*
X98700261Y-66254669D01*
X98416000Y-65970408D01*
X98416000Y-65559691D01*
X98506516Y-65469333D01*
X98613927Y-65210659D01*
X98614172Y-64930570D01*
X98507212Y-64671709D01*
X98309333Y-64473484D01*
X98155075Y-64409430D01*
X99975828Y-64409430D01*
X100082788Y-64668291D01*
X100280667Y-64866516D01*
X100539341Y-64973927D01*
X100819430Y-64974172D01*
X101078291Y-64867212D01*
X101276516Y-64669333D01*
X101383927Y-64410659D01*
X101384172Y-64130570D01*
X101277212Y-63871709D01*
X101079333Y-63673484D01*
X100820659Y-63566073D01*
X100540570Y-63565828D01*
X100281709Y-63672788D01*
X100083484Y-63870667D01*
X99976073Y-64129341D01*
X99975828Y-64409430D01*
X98155075Y-64409430D01*
X98050659Y-64366073D01*
X97770570Y-64365828D01*
X97511709Y-64472788D01*
X97313484Y-64670667D01*
X97206073Y-64929341D01*
X97205828Y-65209430D01*
X97312788Y-65468291D01*
X97404000Y-65559662D01*
X97404000Y-66180000D01*
X97442517Y-66373638D01*
X97552204Y-66537796D01*
X97623463Y-66609055D01*
X97405331Y-66608864D01*
X97118177Y-66727514D01*
X96898286Y-66947021D01*
X96779136Y-67233968D01*
X96778864Y-67544669D01*
X71013921Y-67544669D01*
X70981226Y-67531093D01*
X70701137Y-67530848D01*
X70442276Y-67637808D01*
X70244051Y-67835687D01*
X70141690Y-68082200D01*
X70003796Y-68082079D01*
X69744935Y-68189039D01*
X69546710Y-68386918D01*
X69439299Y-68645592D01*
X69439054Y-68925681D01*
X50456000Y-68925681D01*
X50456000Y-65269430D01*
X71585828Y-65269430D01*
X71692788Y-65528291D01*
X71890667Y-65726516D01*
X72149341Y-65833927D01*
X72429430Y-65834172D01*
X72688291Y-65727212D01*
X72886516Y-65529333D01*
X72993927Y-65270659D01*
X72994172Y-64990570D01*
X72887212Y-64731709D01*
X72689333Y-64533484D01*
X72430659Y-64426073D01*
X72150570Y-64425828D01*
X71891709Y-64532788D01*
X71693484Y-64730667D01*
X71586073Y-64989341D01*
X71585828Y-65269430D01*
X50456000Y-65269430D01*
X50456000Y-62597758D01*
X59343696Y-62597758D01*
X59610468Y-63243395D01*
X60104007Y-63737796D01*
X60749178Y-64005694D01*
X61447758Y-64006304D01*
X62093395Y-63739532D01*
X62587796Y-63245993D01*
X62656958Y-63079430D01*
X97405828Y-63079430D01*
X97512788Y-63338291D01*
X97710667Y-63536516D01*
X97969341Y-63643927D01*
X98249430Y-63644172D01*
X98508291Y-63537212D01*
X98706516Y-63339333D01*
X98813927Y-63080659D01*
X98814172Y-62800570D01*
X98730372Y-62597758D01*
X129143696Y-62597758D01*
X129410468Y-63243395D01*
X129904007Y-63737796D01*
X130549178Y-64005694D01*
X131247758Y-64006304D01*
X131893395Y-63739532D01*
X132387796Y-63245993D01*
X132655694Y-62600822D01*
X132656304Y-61902242D01*
X132389532Y-61256605D01*
X131895993Y-60762204D01*
X131250822Y-60494306D01*
X130552242Y-60493696D01*
X129906605Y-60760468D01*
X129412204Y-61254007D01*
X129144306Y-61899178D01*
X129143696Y-62597758D01*
X98730372Y-62597758D01*
X98707212Y-62541709D01*
X98509333Y-62343484D01*
X98250659Y-62236073D01*
X97970570Y-62235828D01*
X97711709Y-62342788D01*
X97513484Y-62540667D01*
X97406073Y-62799341D01*
X97405828Y-63079430D01*
X62656958Y-63079430D01*
X62855694Y-62600822D01*
X62856304Y-61902242D01*
X62589532Y-61256605D01*
X62118419Y-60784669D01*
X64148864Y-60784669D01*
X64267514Y-61071823D01*
X64487021Y-61291714D01*
X64773968Y-61410864D01*
X65084669Y-61411136D01*
X65371823Y-61292486D01*
X65505111Y-61159430D01*
X89475828Y-61159430D01*
X89582788Y-61418291D01*
X89780667Y-61616516D01*
X89933610Y-61680023D01*
X89781709Y-61742788D01*
X89583484Y-61940667D01*
X89476073Y-62199341D01*
X89475828Y-62479430D01*
X89582788Y-62738291D01*
X89780667Y-62936516D01*
X90039341Y-63043927D01*
X90319430Y-63044172D01*
X90578291Y-62937212D01*
X90776516Y-62739333D01*
X90883927Y-62480659D01*
X90884045Y-62346052D01*
X90999341Y-62393927D01*
X91279430Y-62394172D01*
X91538291Y-62287212D01*
X91736516Y-62089333D01*
X91843927Y-61830659D01*
X91844172Y-61550570D01*
X91765194Y-61359430D01*
X95485828Y-61359430D01*
X95592788Y-61618291D01*
X95790667Y-61816516D01*
X96049341Y-61923927D01*
X96329430Y-61924172D01*
X96588291Y-61817212D01*
X96649881Y-61755729D01*
X96650667Y-61756516D01*
X96909341Y-61863927D01*
X97189430Y-61864172D01*
X97448291Y-61757212D01*
X97646516Y-61559333D01*
X97753927Y-61300659D01*
X97754172Y-61020570D01*
X97647212Y-60761709D01*
X97449333Y-60563484D01*
X97190659Y-60456073D01*
X96910570Y-60455828D01*
X96651709Y-60562788D01*
X96590119Y-60624271D01*
X96589333Y-60623484D01*
X96330659Y-60516073D01*
X96050570Y-60515828D01*
X95791709Y-60622788D01*
X95593484Y-60820667D01*
X95486073Y-61079341D01*
X95485828Y-61359430D01*
X91765194Y-61359430D01*
X91737212Y-61291709D01*
X91539333Y-61093484D01*
X91280659Y-60986073D01*
X91000570Y-60985828D01*
X90884038Y-61033978D01*
X90884172Y-60880570D01*
X90777212Y-60621709D01*
X90579333Y-60423484D01*
X90569570Y-60419430D01*
X91895828Y-60419430D01*
X92002788Y-60678291D01*
X92200667Y-60876516D01*
X92459341Y-60983927D01*
X92739430Y-60984172D01*
X92998291Y-60877212D01*
X93196516Y-60679333D01*
X93303927Y-60420659D01*
X93304172Y-60140570D01*
X93197212Y-59881709D01*
X92999333Y-59683484D01*
X92740659Y-59576073D01*
X92460570Y-59575828D01*
X92201709Y-59682788D01*
X92003484Y-59880667D01*
X91896073Y-60139341D01*
X91895828Y-60419430D01*
X90569570Y-60419430D01*
X90320659Y-60316073D01*
X90040570Y-60315828D01*
X89781709Y-60422788D01*
X89583484Y-60620667D01*
X89476073Y-60879341D01*
X89475828Y-61159430D01*
X65505111Y-61159430D01*
X65591714Y-61072979D01*
X65710864Y-60786032D01*
X65711136Y-60475331D01*
X65619991Y-60254743D01*
X87679032Y-60254743D01*
X87797682Y-60541897D01*
X88017189Y-60761788D01*
X88304136Y-60880938D01*
X88614837Y-60881210D01*
X88901991Y-60762560D01*
X89121882Y-60543053D01*
X89241032Y-60256106D01*
X89241304Y-59945405D01*
X89122654Y-59658251D01*
X88903147Y-59438360D01*
X88616200Y-59319210D01*
X88305499Y-59318938D01*
X88018345Y-59437588D01*
X87798454Y-59657095D01*
X87679304Y-59944042D01*
X87679032Y-60254743D01*
X65619991Y-60254743D01*
X65592486Y-60188177D01*
X65372979Y-59968286D01*
X65086032Y-59849136D01*
X64775331Y-59848864D01*
X64488177Y-59967514D01*
X64268286Y-60187021D01*
X64149136Y-60473968D01*
X64148864Y-60784669D01*
X62118419Y-60784669D01*
X62095993Y-60762204D01*
X61450822Y-60494306D01*
X60752242Y-60493696D01*
X60106605Y-60760468D01*
X59612204Y-61254007D01*
X59344306Y-61899178D01*
X59343696Y-62597758D01*
X50456000Y-62597758D01*
X50456000Y-57524669D01*
X97468864Y-57524669D01*
X97587514Y-57811823D01*
X97807021Y-58031714D01*
X98093968Y-58150864D01*
X98404669Y-58151136D01*
X98691823Y-58032486D01*
X98911714Y-57812979D01*
X99030864Y-57526032D01*
X99031018Y-57349430D01*
X103255828Y-57349430D01*
X103362788Y-57608291D01*
X103560667Y-57806516D01*
X103819341Y-57913927D01*
X104099430Y-57914172D01*
X104358291Y-57807212D01*
X104556516Y-57609333D01*
X104663927Y-57350659D01*
X104664172Y-57070570D01*
X104557212Y-56811709D01*
X104359333Y-56613484D01*
X104100659Y-56506073D01*
X103820570Y-56505828D01*
X103561709Y-56612788D01*
X103363484Y-56810667D01*
X103256073Y-57069341D01*
X103255828Y-57349430D01*
X99031018Y-57349430D01*
X99031136Y-57215331D01*
X98912486Y-56928177D01*
X98692979Y-56708286D01*
X98406032Y-56589136D01*
X98095331Y-56588864D01*
X97808177Y-56707514D01*
X97588286Y-56927021D01*
X97469136Y-57213968D01*
X97468864Y-57524669D01*
X50456000Y-57524669D01*
X50456000Y-56229110D01*
X95199670Y-56229110D01*
X95306630Y-56487971D01*
X95504509Y-56686196D01*
X95763183Y-56793607D01*
X95976301Y-56793793D01*
X96036871Y-56940382D01*
X96234750Y-57138607D01*
X96493424Y-57246018D01*
X96773513Y-57246263D01*
X97032374Y-57139303D01*
X97230599Y-56941424D01*
X97338010Y-56682750D01*
X97338255Y-56402661D01*
X97231295Y-56143800D01*
X97033416Y-55945575D01*
X96774742Y-55838164D01*
X96561624Y-55837978D01*
X96501054Y-55691389D01*
X96303175Y-55493164D01*
X96044501Y-55385753D01*
X95764412Y-55385508D01*
X95505551Y-55492468D01*
X95307326Y-55690347D01*
X95199915Y-55949021D01*
X95199670Y-56229110D01*
X50456000Y-56229110D01*
X50456000Y-54424669D01*
X129508864Y-54424669D01*
X129627514Y-54711823D01*
X129847021Y-54931714D01*
X130133968Y-55050864D01*
X130444669Y-55051136D01*
X130731823Y-54932486D01*
X130951714Y-54712979D01*
X131070864Y-54426032D01*
X131071136Y-54115331D01*
X130952486Y-53828177D01*
X130732979Y-53608286D01*
X130446032Y-53489136D01*
X130135331Y-53488864D01*
X129848177Y-53607514D01*
X129628286Y-53827021D01*
X129509136Y-54113968D01*
X129508864Y-54424669D01*
X50456000Y-54424669D01*
X50456000Y-50456000D01*
X141544000Y-50456000D01*
X141544000Y-133293000D01*
M02*
